<?xml version="1.0" encoding="utf-8"?>
<svg version="1.1" xmlns="http://www.w3.org/2000/svg" xmlns:xlink="http://www.w3.org/1999/xlink" x="0px" y="0px" width="3600px" height="200px" viewBox="0 0 3600 200" enable-background="new 0 0 3600 200" xml:space="preserve">
<path fill="#fff" d="M3525,114l-9.4-0.9l-30-2.8l-6.5-0.6l-8,4.3l-30.1-3.1l-19-6.9l-20.4,2.2l-0.8,7.7l-5.1-14.2l-5.8-1.8 l-19.4,0.9l-15,0.7l-52.6,2.5l-31.4,9.3l-16.2-2.8l-32.4,4.5l-25.8-1.7l-15,4l-19.6-6.3l-34.9-2.3L3112,99l-13,7l-19.8,6.3 l-16.8-3.9l-26.5,6.8l-6,0.4l-23.6-3.4L2995,113l-15.6-1.1l-35,1.7l5.2,5.2l-26.6-11l-22.5-5l-12.2,3.5l-13.8-5.5l-6.9,16.1 l-1.3-7.6l-23.7,1.7l-28.6-3l-32.5,5.4l-21.5-4.7l-29,5.3l-32-8.9l16.1,0.1l14.8-28.2l-17.4-6.4l-28.5,6.3l-50.9,25.1l-12.5,4.9 l-31.2,6.7l-24.4-3.7l-3.5,2.2l7.9,6.8l-30.4-13l-20.6,0.9l-30.3-3.7l-11.8,5.5l-46.5-2.4l-24.7-8.9l-46.8-2.5l-13.2-7.1l-54.2-3.6 l-113-28h-31.1l7.7,18l3.3,15.2l37.4,25.2l-16.9-6.3L2146,109l-18.6,3.6l-19-6.4l-44,1.6L2054,102l-11,7l-20-2.2l-16,3.2l-43.4-9.8 L1925,96l-3,6l4.8,8.2l14.6,4.5l-17-2.7l-39-5.4l-10.3-0.6l-49.7,2.3L1800,107l-13.8-3.7l-23.2,2.2l-10.7,6L1725,114l-6.3-0.6 l-14.4-1.3L1671,114l-21.9-2.2l-7.6-5.8l-19.5-2l-9.7,1.1l-28.1,3l14.9-5.1l5-8l18-9v-5.8l1.1-3.1l-5.4,1.1l-7.5,1.5l0.1-0.6 l-0.6-0.7l-1.9-0.2l-0.6-1v-1.1l0.4-1.6l0.8-2.2l1.6-3.4l0.4-1.6l1.4-1.7l0.8-2l1.5-2.3l-2.4,0.1l3.5-1.6l2.3-0.8l1.7-0.8l1.3-0.8 l2.6-0.9l2.3-1l1.9-0.5l1.7-0.1l2.1,0.3l0.9-0.1l0.8-0.6l0.4-0.1l0.9-0.8v-0.4l0.8-0.9l-0.2-0.5l-1.2-0.7l-1.5-1l-1.6-0.8l-0.4-0.7 l-0.7-0.3l-1.2-0.5l-1.6-0.5l-0.2-0.7l-0.7-0.3l-1.6,0.6h-1.9h-1.7l-1.8,0.2l-1.3,0.6l-5.8,0.9l-1-0.2l-1.5-0.1l-1.6,0.2l-1.6,0.6 l-0.9,0.8h-3.4h-1.7l-1.1,0.3l-3.5-0.3l-3.6,0.2l-4.2,0.7l-3.8,1.4l-3.1,2l-2.8,2.9l-1.6,1.1l-0.7,2.8l-0.5,3.6l0.2,3.5l0.3,3.3 l0.6,4.3l0.3,2.6l0.8,4.7l-0.5,1l0.4,1.4l0.6,1l-5.2,1.1L1503,102l-53.2,7.3L1423,108l-15.5-1l-43.5,2.1l-26.7-6.8L1317,106l-5-7 l-13,7l-19.8,1.3l-21.5-3.6l-53.3,8.6l-9.4,0.6l-39.2-7.8l-9.5,4.3l-23.3-1.7l-24-1.8l-15,15.8l5-11.9l-15-4.9l-3,4l-57,9l-20.7-4.8 L931,114l-18-5l-64.3,7.4L838,116l-73-6l-8.6,3.3l9.5,5.4l-57.9-8.9l-50.3-4.6l-99.7-4.1l-63.3-10.8l-51.1,0.4l-9.5-0.9L388,80.7 l-26.5,2.7l-3.5,5.9l7.2,24.9l-7-8.8l-17.5,4.4l-6-0.2l-35.3-6.2l-17,4.4L254,102l-11,7l-20-2.2l-37.6,0.9L142.7,98L125,96l-7.5,11 l14.8,9l-23.7-8l-52.3-3l-28-1.5L0,107v94h3600v-94l-14.3,1.3l-34.5,8.2l-13.9-3.7L3525,114z M1629.8,49.5l0.5,0.8l-0.4,0.5h-0.8 l-0.3-0.7L1629.8,49.5z M1592.8,69h1.2l1.4-0.4l1.3-0.6l1.6-0.1l1.8-0.5l1.2-0.8l1.1-4.6v4l-0.7,2.2l-0.3,2.1l0.1,2.1l0.3,2.2 l0.8,2.8l-0.4,0.9l1.2,0.9l0.6,1.2l0.9,0.6l-6.6,1.4l-0.1-1.5l-0.8-0.5l-1,0.3l-1.7-0.3l-1-0.9l-0.9-2.9l-0.7-3.3v-2.8l-0.4-4.6 L1592.8,69z M1585.8,82.3l-0.9,0.3h-1.4l-0.5-0.4l-0.9-0.4l0.2-2.1l0.9-2l0.5-1.8l-2.1-3.4l2.8,2.8l1.4,1.8l1.2,1.8l1.2,2.3l0.7,2.3 l0.6,0.6l-2.7,0.6l0.1-1.7L1585.8,82.3z"/>
</svg>
