<?xml version="1.0" encoding="utf-8"?>
<svg version="1.1" xmlns="http://www.w3.org/2000/svg" xmlns:xlink="http://www.w3.org/1999/xlink" x="0px" y="0px" viewBox="0 0 3600 200" enable-background="new 0 0 3600 200" xml:space="preserve">
<path fill="#334" d="M3579.4,88l-23.7-9.7l-64.2-9.1l-32.2,19.9l-24.1,9.2l-31.5,0.8l-11.8,4.5l-13.1-0.6l-83.8,16.9l-23.5-1.4 l-24.3-8.5l-17.6,0.4l-29.3-4.2h-42.9l-27.4-7.5l-8-1l-32.8-8.1l-17.4,1.8L3029,89l-19.3-5.4l-30.5-8.1l-10.9,5l-24.2,8.4 l-24.2,17.4l-14.1,3l-15.6-1.5l-79.7,10.4l-25.5-1.5l-62-9.5l-23,4.5l-15.1-3.5l-46.6,2.5l-59.2-10.7l-56.4-0.4l-20-7l-27-4.6 l-60.7,1.2l-31-8l-14-1.4l-19.7-8.5l-81.3,29.6l-63,7.6l-7-0.5l-11.5-4.3l-54.4-0.4l-18.3-3.9l-35.4,0.6l-6.7-2.6l-34.7-0.2l-17-6.1 l-55.3,3.2l-31.7-4.1l-68,9.5l-11.5-6.5l-13.6-1.8l-20.8,2l-23.4-1.4l-9.4,1l-12.9-2.5l-49.6,3l-33.3,8.1l-7.1,0.1l-9.4,1.2 l-24.4-4.8l-12.4,2.2l-19.4-0.5l-21.1,3.6l-43.2-11.9l-26-2.4L1522,92l-15.1,1.5l-16.8,7.2l-19.6,2.9l-6.5,4l-15.5-2.7L1429,106 l-13.9-2l-28.9-0.6l-20.2,5.1l-32.8-12.1l-47.1-1.5l-29.1-5.8l-22.2-0.2l-17.1-3l-24.2-8.6L1172,89.6l-8.5,2.8l-13,18.4L1110,124 l-4-0.3l-22.1,0.7l-12.1-2.9l-32.7-4.1l-18.4,1.3l-120.7-7l-25.5-8.6l-38-4l-13-2.6l-27.9-1.7l-10-2.7l-17.3-0.7l-53.6-8.2 l-29.2,4.2l-28-2.7l-19,3.2l-7.2-2.9l-45-0.7l-34.5-13.6l-52.6,20l-21.8,4.7l-8.4,5.5l-14.8,0.4l-35-5.9l-13,2.4L395,96.3l-30-0.5 l-17.7,4.9l-35.8,1.8l-28.3-1.7l-22.1-0.2l-10.8-2.7l-30.6,2.2l-13.6-3.8L173,97.8l-7-3.3l-21.3-0.3l-10.7-4l-20.5,3.2l-14.8,0.9 l-29.7,6l-13-6.9L0,89.1v5.6l47.2,3.1l5.8-1.2l24.8,11.1l36-10.9l20.4-3.1l8.6,3.3l22.2,5l40.8-2l13.6,3.8l30.8-2.3l11.1,2.6l22,0.2 l37.5,6.2l26.4-6l17.6-4.7l30,0.6l11.5,1.6l12.7-2.5l34.7,5.5l16-0.4l8.2-5.3l22.1-4.6l61.1-17L586.6,88l43.7,0.4l7.9,3l19-3.1 l28.5,2.8l16.2-2.4l56.8,7.3l9.5-1.1l17.6,0.7l9.6,2.6l27.8,1.7l13.4,2.5l37.6,3.9l51.8,15.9l72.2-1.2l22,1.3l18.8-1.3l32.7,4.2 l11.8,2.9l22.3-0.7l18.7,1.1l29.5,6.2l47.5-4.9l13.5,3.5l55.3,1.4l29.3-5.2l32.4,1.2l17.7-4l13.6-13.9l23.1-6.3l28.7,0.7l13.8,2.1 l19.6-1l15.9,2.8l6.3-4l19.9-2.9l16.2-7l15.4-1.6l7.1-3l24.3,3l33.7,13.9l31.6-6.1l19.8,0.6l12.3-2.1l24.3,4.8l9.6-1.2l29.1-0.7 l26.4-8.5l34-2.8l12.9,2.6l9.3-1l23.5,1.3l20.7-2l11.7,1.9L1873,108l61.2-14.6l30.9,4.1l55.9-3.2l16.7,6.1l34.7,0.3l7.4,2.6 l35.2-0.5l18.1,3.8l55,0.5l10.7,4.3l42.3,3.8l94.8-33.7l46.8,3.5l33,8.2l59.7-1.3l28.3,5.7l19.3,5.9l54.7,1.2l59.3,9.7l47.6-1.4 l15.6,2.5l22.2-3.7l63,8l49.7,2.5l71.9-8.9l14-3.1l8-4.5l57-4.2l20,3.7l33.2-11.1l32,1.6l17.6-1.9l32.5,7.9l7.2,0.8l46,13.1 l53.2-1.4l19.4-0.2l24.2,8.5l22.5,1.2l19.2,2.8l79.5-19.2l11.7-4.6l31.7-0.8l26.6-9.8L3484,78l51.5,5.9l20-1.8l23.2,9.6l21.3,3v-5.6 L3579.4,88z M1347.7,123.7l-32.7-1.5l-45,8.8l-54.7-1l-29.6-7.8l-41.4,6.9l-14.9-3.3l23.8-13.3l11.6-17l7.8-2.5l12.4-7l32.5,3.1 l17,3l22.5,0.2l28.7,5.9l26.5,1.1l46,12.2L1347.7,123.7z M3005.2,102l-19.8-4l-53,4l12.7-9.2l25.3-9l38.3,4.6l18.2,4.9L3005.2,102z"/>
</svg>
