<?xml version="1.0" encoding="utf-8"?>
<svg version="1.1" xmlns="http://www.w3.org/2000/svg" xmlns:xlink="http://www.w3.org/1999/xlink" x="0px" y="0px" width="3600px" height="200px" viewBox="0 0 3600 200" enable-background="new 0 0 3600 200" xml:space="preserve">
<path fill="#334" d="M3579.8,60.8l-33.4-18.5l-24.7,3.2l-32.4-6.3l-14.7,5.7l-7.7,12.7l-16.1,10.5l-57.2,15.7L3381,96.2l-73.1,15.6 l-12.4-3.2l-37.5-2.3l-61.3-16.7l-33.8,7.7l-24.2-7.7l-22.2-15.3l-45.6-1.6l-28.8-12.3l-43.1-0.2l-29.3-7.9l-38,16.4l-20.4,21.5 l-11.9,5.9l-54.8,8.4l-33.4,11.7l-13.2,0.7l-31.4-11.6l-93.8-8l-32.9-7L2622,80.1l-74.4-7.9l-10.7-6.3l-10.4-2.2l-42.9,1.5 l-54.1-6.3l-13-5.2l-52-6.5l-11.1-3.8l-25.3,8.3L2324,57l-16,5.3l-56.7,31.4l-14.7-4.5l-52.4,8.2l-73.6-12l-45.5-3.7l-16.7,1.2 l-45.6-5.1L1966,68l-12.1-0.5l-59.9,8.9l-25,6.2l-13-16l-33.5-7.8l-4.9,0.6L1787,29.7l-45-25.2l-49.6,16.8l-40.2,2.8l-49.7-3.7 l-48.7,19.8l-32.5,19.7L1490,82.7l-26.2,14l-19.8,4.7l-27-10.5l-31-2.3l-20,7l-8.8,0.5l-14.8-8.5l-16.8-7.8l-28.2-5.1l-45.2-1.9 l-11.4-1.9L1210,60l-8.8-9.8l-11.8,1.2l-10.3,4.8L1166.2,82l-26,27.5l-12.7,1.7l-17.6,13l-23-2.1l-34.5-10.6l-47,4.6l-40.1-5.9 l-23.9-7.2l-49.1,3.9l-7.2-0.7l-16.4-7.8l-50.5-13.2l-33.7-11.7l-11.3,3.7l-7.8-4.5l-43-11.7l-15.3-2.8l-8.7-6.4L676.7,47l-17.9-6 L642,30.3L621.3,36l-12.1,1.5l-41.5,0.2l-11.4,4.6l-12.6,2.9L529.3,52l-17.1,13.3L479,86.6L469,87l-19.8,3.3l-9.7,1.9l-27.8,2.3 l-5.7,1.1l-19.5-7.1l-29.3,1.9l-8.7-0.9l-16.4-5.2l-11.5,2.3l-30.2-5.2l-7,0.8L261,79.8l-21-0.5l-13.5-2.9l-27.2-7.9l-8-0.9h-46.5 L134,66.5l-9.5,2.3L99,70.1l-5.4,1.3L76,80.8l-7,1.7l-13-11l-11.5-1.9l-8.9-1.1L7.4,65.6L0,64.7V201h3600V64.7L3579.8,60.8z M1708.5,19.1l38.4-5.3l4.2,0.5l3.5,2.2l26.4,22.2l0.6,3.4l-2.8,3.2l-24.2,15.5l-3.6,1.7l-4.1-0.5l-24.1-7.5l-18.6-31v-2.8 L1708.5,19.1z M1191.2,57.4l6.5-3.1l1.2,0.1l8.9,9.8v2.1l-10.6,5.4l-1-0.3l-5.2-13L1191.2,57.4z M704.6,63.3l2-1.7l2.6-0.1 l53.9,16.2l1.2,1.7L763,81l-23.5,12.6l-23.8,2.7L698.3,89l-1.8-2l0.1-2.5L704.6,63.3z M133.6,74.2l7-4.5l21.3,3.3l27.7-0.7L239.3,85 l3.2,1.2l1.4,3.2l-1.4,8.2l-0.4,3l-2.3,1.6l-43.1,4.6h-6.2l-30.6-3l-3.7-1.5L134,79.6l-1.5-3L133.6,74.2z M74.8,85.1l3.7-2l21.1-9.6 l13.1,2.1l25.5,13.2l8.9,17.4l-0.2,2.1l-2,0.9l-34.4,5.4l-29,0.6L66.3,117l-2.5-1.2l-0.5-2.8l9.5-25L74.8,85.1z M3.8,74.8l18.5-5.3 l31.2,4.6l14.6,12.2l1.1,2.4l-0.9,2.4l-13.9,17.8l-2.4,1l-2.5-0.7l-36.3-21L2.8,77.9l-0.7-2L3.8,74.8z M3.2,97.8L2.1,96l0.4-1.3 l3.6-2.2l11.6,2.6l21.5,10.5l0.5,1.7l-1.6,2l-12.4,8.1h-2.3l-2.2-1.6l-9.6-4.6L3.2,97.8z M75.2,152.9l-28.3,2.4l-11.2-6l-3.5-1.3 l-2.6-2.7l-14-14.1l-1.1-3L16,126l18.2-10.5h11.3l16,4l3.8,2.5l2.5,4.4l9.6,21.6l0.1,3L75.2,152.9z M247.8,126.9l-1.6,1.5 l-42.5,19.5L168,155l-5.3,0.7h-5.3l-43.7-7.1l-14-0.3l-10.5-3.2l-13.2-22v-2.2l1.7-1.3l35.5-2.5l41.3-6.4l7.4-0.5l18.1,2.2l55.1,0.8 l3.8,0.8l2.4,2.3l6.5,8.1V126.9z M293.4,118.5l-4.4,8.4l-2,0.7l-18.4-0.2l-14.6-9.1l-1.8-1.9l-0.9-3.3l-3.5-25.9l0.4-2.3l2-0.8 L264,94.3l28.3,13.4l1.3,1.7L293.4,118.5z M297,101.4l-0.9,2l-1.9,0.3l-22.1-9.2l-10-8l-1.4-2.8l0.4-1.4l1.6-0.5l18.7,3.6l11.7-0.7 l2.6,1.3l1.9,5.5L297,101.4z M318.7,126l-3.5-0.3l-14.4-8l1.4-8.7l2.1-0.8l6.4,1.6l19.7,2.3l5.8,3.9l0.4,2L318.7,126z M347.8,112.4 l-3.6-0.2l-28.2-4.7l-4.4-1.8l-1.9-2.9l-2.4-12.5l1.9-1.4l3.7-0.4l11.1,0.8l8.6-1.4l8.5,2.6l21.6,1.6l3.3,1.7l-1,2.7l-13.8,14.7 L347.8,112.4z M365.8,127.8h-5.3l-7.3-7.5l3-8.5l3.3-2l6.3,7l1.7,7.4L365.8,127.8z M405.7,112.4l-13.3,11.9l-1.9,1.8l-2.3-0.3 l-19.3-8.4l-5.7-9l-1.1-1.8l1.3-2.1l10.7-8.5l12.1-2.5l21.2,4l1.4,1.5l-0.4,2.4L405.7,112.4z M444.1,131.5l-3.4,0.4l-4.8-2.6 l-16.3-8.1l-10.8-11.4l3.5-8.4l1.7-2.5l3.4-1l18.4-0.3l30.9-7.3L478,95l7.4,20.6l-0.1,2.7l-3.1,2.1l-16.3,2.3L444.1,131.5z M480,148.3h-3.7l-3.7-10.4l1.3-3l13-7.4h4.3l3.7,3.7L480,148.3z M496.7,118.7l-2-1.5l-12.9-18.6l-0.3-2.6l1.4-2.2l10.2-12.3 l33.5-23.2l2.1-0.1l0.6,2L526,83.6l-10.6,24.3l-15.9,10.4L496.7,118.7z M551.4,123.6l-1.3,1.9l-3.3,1.1l-20.5,7.3l-19.6,1.1l-3-0.6 l-0.8-2.6l9-15.6l2.5-2.7l3.8-0.7l15,1.7l14,4.5l2.4,0.5l1.9,1.7L551.4,123.6z M649,113.9l-29.3-1.6l-12.7-5.7l-58.3,1.7l-24.5-1.4 l-2.2-4.6l16-46.9l4.3-5.4l7-2.2l24.5-7.7l36.9,0.9l31.8-3.5l30.1,13.8l21,4.5l2.9,2.6l-0.2,4.5l-31.6,46.5L649,113.9z M688.9,114.4 l-14.1,1.1l-3.8-1.2l-2.8-4.1l0.5-1.6l9.5-9h2.1l8.5,7.6l0.9,1.4L688.9,114.4z M691.7,103l-2.6-1l-6.1-4.2l-1.3-1.7L682,94l4.2-9.6 l1.5-0.8l2.5,1.4l13.3,14l0.8,1.6l-0.8,1.4l-9.3,1H691.7z M718,121.1l-22.5-1.8l-0.7-0.6l-0.1-7.2l0.6-1l12.6-3.9l1.9,0.9l8.9,12.8 L718,121.1z M832.1,135.6l-2.7,0.5l-43.9,1.7l-49.9-8.8l-23.3-23.2l-1.4-2.3l1.3-2l35.2-6.3l35.2-16.3l4.2-0.2l22.5,12.9l29.6,3.5 l2.2,2v3.6l-7,32.1L832.1,135.6z M905.6,150.2h-5.3l-5.3-0.7l-42-10.2l-13-7.4l-1.6-1.5v-2.6l9.2-21.4l2.4-2.3l3.8-0.8l11.9,1 l31.2,7.6l7.2,0.5l42.3-2.1l5,0.9l41.4,8.3l7,0.1l28.8-2.2l1.7,1.3v2.2l-25.5,12.8l-10.7,3.3l-43.2,11.5L905.6,150.2z M1009.4,155.1 l-5.7,2.3l-12.4-7.7v-3.3l11.5-9h3l4.9,12.7L1009.4,155.1z M1117.7,150.5l-1.4,1.1l-45.8,6.9l-38.8-3.3l-2.8-0.7l-2.2-1.6 l-13.6-15.6l-0.5-2.7l1.3-2.2l14.6-4.8l19.5-9.9l2.8-0.6l2.9,0.3l26.4,7.3l27.6,5.3l2.2,1.3l1.6,1.7l6.5,15.5L1117.7,150.5z M1164.9,127.7l-23.8,15.9l-1.5,0.5l-1.7-0.4l-17.6-15.8l-0.5-1.6l0.5-1.6l7.8-8.7l1.4-0.7h1.6l11.4,5.3l21.1,2.8l1.6,1.9 L1164.9,127.7z M1149.3,115.4l-1.3-1.4v-6.6l0.8-2.2l16.4-17l5.7-7.6l12.2-21.4l2-1.3l2.1,0.5l4.6,19.4l14.8,16l0.5,3l-10.4,18.2 l-2.4,1.3l-18.8,4.6L1149.3,115.4z M1235.4,128.1l-26.9,12l-2.9,0.6h-3l-10.9-3.3l-1.4-1.8l0.6-1.8l16.9-25.4l2.6-0.7l2.2,1.2 l22.6,15l1.2,2.2L1235.4,128.1z M1277.3,134.6l-2.5-0.1l-23.7-6.4l-21-15.1l-1.9-1.3l-1.4-1.8l-18-30.6l-0.3-1.2l0.6-1l6.2-4.6 l0.8-0.3l0.8-0.1l21.6,2.2l33.6,8.4l9.9-4l42.6,4.3l1,1l-0.3,1.5l-45.6,48.9L1277.3,134.6z M1389.2,123.3l-19.2,14.2l-3.5,1.7h-4.6 l-28-2l-32.2-7.3l-5.5-3.8l-0.8-2.8l0.3-3.4l29.5-26l8.5-1.4l8.8,1.4l29.1,17.8l16.8,5.5l1.6,2.6L1389.2,123.3z M1381,102.1 l-1.1-1.5l0.4-1.9l5.5-6.1l1.7-1l2.4-0.1l28.1,5.1l2.3,0.9l1.9,1.5l6.4,6.4l0.5,1.8l-1,1.9l-6.2,6.2l-1.8,1.1l-2.2-0.2l-26.1-5 L1381,102.1z M1400.9,140.5l-1.6-0.4l-3.7-8.6l-0.7-2.3l0.2-2.8l2.2-7.1l1.3-1.8l1.9-0.3l10.4,1.1l1.2,1.2l-0.6,2.8l-9.2,16.9 L1400.9,140.5z M1480.6,159.4l-4.1,0.6l-25.2,5l-27.7-5l-3.5-1l-1.9-2.6l-8.6-17.1l-0.6-2.8l1.3-2.4L1440,110l29.2-8.2l22.4-15.2 l3.5-0.4l3,1.5l19.1,28.2l1.4,3.6l-1.4,3.2l-34.1,34.1L1480.6,159.4z M1568.5,141.7l-22,16.2l-21.9,6.1l-3.6,0.9l-2.4-1.2l-7.3-14.3 l-1.2-4.2l1.4-4.2l14.4-21l2.9-2l3.9,1.1l35.9,15.8l2,3.7L1568.5,141.7z M1652.4,136.4l-7.3,0.2l-92.5-15.1l-44.3-31.3l-2.1-3.3 l1.4-4.2l47.7-40.4l48.2-15l90.7,3.8l3.6,1.5l1.8,4.1l7.2,38.2l0.1,5l-3.5,3l-14.8,4.7l-30.6,44.7L1652.4,136.4z M1694.9,107.3 l-6,4.1l-2.4-1.1l-1.1-4.7l3.6-10.4h1.6l4.2,9.6v2.5H1694.9z M1744,125.8l-4.5,0.5l-36.2-7.8l-3.4-1.9l-2.5-16.7l2-4.5L1713,82 l1.5-3.8l-6.4-21.9l1.3-3.5l3.6,0.7l40.6,31.7l2.9,4.2l0.4,5.1l-9.8,28.3L1744,125.8z M1770.8,112.1l-9.8,4.1l-3.9-1.1l-1.8-4.7 l5.9-10.4h2.6l6.9,9.6v2.5H1770.8z M1784.2,107.1l-4.1-2l-11-6l-20.4-25.4l-1.1-3.5l2.8-3.4l25.8-3.6l19-11.3l5.8-1.1l4.7,1.6l16,32 l0.3,4.1l-3.6,3.2l-29.5,14.8L1784.2,107.1z M1840.8,126.1l-15.2,6.3l-4.6,0.2l-4.6-2l-20.6-11.7l-1.9-2.4l0.7-3l23.4-15.6l3.6-1 l3.7,0.6l21.2,7.1l2.7,1.8l0.1,2.8L1840.8,126.1z M1864.4,90.9l-16.8,6.4l-3.7,0.5l-3.3-1.8L1822,72.7l-1.5-1.9l-0.4-2.5l1.6-1.8 l2.2-0.6l3.2,1.2l18.5,4.6l17.9,14.3l1.9,2.3L1864.4,90.9z M2332.4,54l16.6-7l14.7,7.7l0.6,1.7l-1.2,1l-14.4,1.7L2333,60l-1.8-2.9 l-0.3-1.7L2332.4,54z M1958.3,74l1.4-1.8l2.9-0.1l32.4,7.8l1.1,1.7l-1.7,1.9l-13.6,7.6l-2.7,0.8l-3-1l-18-10L1958.3,74z M1902.7,122.3l-4.1,2l-4-1.1l-18.7-14.7l-2-2.5l-0.1-3.5l2.9-13.7l1.6-3.2l3.4-1.5l32.8-8.6l28.5-2.8l3.3,0.2l3,1.9l5,7l0.9,2.5 l-1.1,2.3l-33.1,20.5L1902.7,122.3z M2022,132.9l-2.8,1.3l-36.8,2l-28.8-8.5l-16.3-11.9l-1.7-2.2l0.5-2.5l12.1-15.4l3.1-1.6h4.5 l21.4,3.8l20.6-2.4l3,0.5l2.1,1.9l9.4,13.1l10.1,19.5L2022,132.9z M2086.7,130.5l-3.8,1.8l-33.2,8.7l-22.1-9.7l-3-4.3l-5.3-18.4 l-11.1-23.4l0.3-2.1l2-0.9l43.9,7.8l43.4-2.3l2.5,1.3l0.4,2.9l-11.9,35.8L2086.7,130.5z M2103.5,124.4l-2.2-1.4l-0.6-2.5L2103,98 l1.5-2.1l2.5-0.8l21-3.2l35.2,4.9l1.6,1.3l-0.8,1.9l-18.4,14.6l-23.3,12.4L2103.5,124.4z M2248.5,117l-19.6,20.4l-38.2,19.5 l-3.2,1.2l-53.3-22.1l-2.7-2l-0.1-2.7l4.3-7.2l13-4.1l36.3-16.4l46.1-9.5l3.4-0.3l2.7,2.2l11.9,15.5l1,2.9L2248.5,117z M2268.8,129.7l-15.2-3.1l-1.4-1.9l4.5-9.1l1.9-1.3l2.1,1.3l8.6,10.4l0.8,2.4L2268.8,129.7z M2279.1,121.8l-28.1-17.1l-1.9-1.9 l0.8-2.3l60.6-37l9.7-1.2l51.4,2.2l2.6,1.4l0.9,3.5l0.8,32.9l-1.4,3.2l-2.5,1.2l-24.4,4l-35.1,10.7L2279.1,121.8z M2419.4,125.5 l-19.3,10.8L2371,147l-32.5-3.5l-2.7-1.5l-0.2-2.8l7.3-16.2l10.1-6.9l26.9-5.1l39.7,10.6l1.5,1.9L2419.4,125.5z M2456.8,120.6 l-4-0.2l-34.8-6.9l-29.9-13.1l-2.5-3l-5.4-39.9l0.8-2.6l2.1-1l38,10l58.5,3.9l2.6,2l1.2,3.2l-0.8,25.4l-22.8,20.5L2456.8,120.6z M2472.6,130.8l-2.7-1.3l-0.8-3.5v-6l20-23.8l3.4-24l1.6-2.7l3.2-1.2h29.8l39.3,26.5l1.5,3.9l-1,5.5l-12.8,27.6l-56,4.5 L2472.6,130.8z M2590.4,137.9l-19.4,12.8l-16.5,1.6l-4.5,1.8l-4.3-1.2l-3.7-3.7l-1.9-3.1l0.5-3.1l24.8-16.7l6.3-0.4l20.2,7.1l1,2.3 L2590.4,137.9z M2615.5,124.8l-4.1-0.2l-18.5,0.4l-15.9-9l-3-23l-12.3-12.3l-1.2-2.5l1.9-1.4l62.8,9.5l2.6,2.2l0.5,3.6l-10.2,30.5 L2615.5,124.8z M2672.6,143.6l-1.5,2.8l-3.9,1.1l-25,1.3l-14.7-12.5l-6.3-14.7l14-23.8l2.7-1.8l4.5,1l31.5,12.3l2.8,2.4l0.5,3.8 L2672.6,143.6z M2794.8,139.3l-2.7,1.7l-34.8,13.8L2725,158l-7.4-1.9l-35.6-18l-2.4-2.1l-1.1-2.8l5.4-28.5l2.5-2.4l3.3-0.4l29.7,4.8 l43.7,4.5l26,6.7l3.1,1.7l1.1,2.8l2,13.3L2794.8,139.3z M2863.7,144.4l-23.6,25.4l-3,2l-3.3-0.6l-21.4-8.2l-14.5-13.9V127l1-3.7 l2.5-1.9l26.5-5.7l4.1,0.5l30.7,22.1l2.2,2.6L2863.7,144.4z M2909.1,132.8l-21.5,7.9l-3.3,0.1l-23-5.8l-21.1-20.6l-1.7-2.9l0.7-2 l37-6.7l24.7-2l3,1.1l1.7,3l5,25.7L2909.1,132.8z M2916.6,122.5l-1.6,1.1l-1.4-1l-5.9-20.4l1.3-6.1l11.3-7.2l1.7,0.2l0.5,2.8 l-3.3,23.6L2916.6,122.5z M2966,128.9l-16.6,12.4l-13.8,1.2l-13-4l-2-1.4l0.3-2.1l2.6-11.4l14.3-13.9l2-1.1l2.4,0.9l23.2,15.5 l1.2,2.1L2966,128.9z M2974.8,117.5l-2,1.7l-3.1-0.5l-17.2-7.1l-1.5-1.6l0.3-1.8l5.8-14.3l2.2-2.2l3.5-0.9l14.7-1.2l1.7,1l0.4,1.9 L2974.8,117.5z M2979.5,80.6l-17.7,4.5L2940,96.6l-14.1,13.7l-1.7,0.1l-0.4-1.8l4.2-28.8l28.2-19.5l2.6-0.2l3.1,1.4l12.3,9l4.4,6.2 l1.5,1.8L2979.5,80.6z M2971,63.5l-1.3-1.6l0.1-1.3l3.2-2.8l37.3,6l0.8,1.5l-1.2,2.2l-13.3,11.4l-2.3,0.4l-2.5-1.2l-11.2-6.6 L2971,63.5z M2982.1,102.3v-9.2h0.1l0.6-3l2.8-2.2l21.3-7.9l22.3-12.5h12.2l13.7,10.4l0.9,2.6l-2,3.1l-19.7,11.9l-11.2,13.1l-3,1.7 l-5.4-0.5l-16.9,1.1L2982.1,102.3z M3029.4,123.5l-2.4,1.5h-2.9l-8.3-5.4l-1.3-1.7l0.7-1.8l14.8-7l16.1-12.3l3.1,0.2l1.1,0.9 l-0.4,1.7l-7.2,12.5L3029.4,123.5z M3119.7,124.3l-4.6,0.3l-33.9,0.3l-35.1-6.9l-2.5-1.6l-0.2-2.7l13.4-16.4l6.6-16.2l2.9-1.5 l4.8-0.6l21.9-2.3l27.3,3.9l28.8,20.7l1.2,2.5l-2.4,2.7l-24.2,15.8L3119.7,124.3z M3160.4,138.2l-4.2,1.1h-24.1l-2.8-0.6l-1-1.8V125 l1.8-1.8l8.9-3l10.1-7.4l2.9,0.3l1.7,2.4l7.2,20L3160.4,138.2z M3243.6,139.3l-3.2,2.1l-17.9,10l-13.9,4.3l-4.7,0.5l-4-1.4 l-19.1-22.1l-19.2-13.8l-1.9-2.8l0.5-3.2l11.8-12.8l3.4-2.1l5.4-0.2l12-0.5l31.9,6.3l13.2,1.2l2.6,2.1l-0.3,14l4,15.2L3243.6,139.3z M3314.2,145l-3,1.5l-15.5,4.3l-36,4.9l-3.6-0.4l-8.8-7.3l0.9-15.8l-2-8.1l0.4-6l1.7-2.6l24.1-3.3l25.8,4.7l2.7,1.2l13.9,24.4 L3314.2,145z M3375.4,146.1l-3.2,2.9l-23.9,7l-18.6-1.6l-3.6-0.1l-2.5-2.2l-15.7-28l0.1-2.9l2.1-1.8l24.5-9.9l15-2l22.4-6.8l3.1,2 l6.9,17.9l0.2,3.3L3375.4,146.1z M3400.9,151.7l-3.5-0.3l-14.4-8l1.4-8.7l2.1-0.8l15.4,2l16.6,5.7l0.4,2L3400.9,151.7z M3435.2,144.5l-6.4-0.7l-21.6-10.6l-19.2-5.7l-1.4-3.5l-1.5-19.5l0.2-3.5l2.1-2.2l29.8-16.5l9-3.6l35.1-9.7l5.7-4l9-17.6l5.6-1.9 l35.5,8.6l3.4,2.4l2.3,4.4l7,23.6l-1.7,5.2l-21.3,23.3l-34.4,20.2L3435.2,144.5z M3544.2,129.5l-21.7,14.5l-4.4-0.5l-9.8-6.4 l-6.3-8.1l-0.1-3.5l6.9-8.3l4.4-1l14.8,5.7l16.9,2.2l1.5,2.6L3544.2,129.5z M3549.8,119.9l-13.7-0.7l-10.8-4.1l-3-1.7l-0.6-2.6 l5.6-15.4l3.3-1.8l15,3.1l18.5,0.4l13.9,9.1l-0.4,2.6l-21.1,10.3L3549.8,119.9z M3588.1,135.6l-5.1,8.1l-3.3,1l-12.4-3.8l-0.3-3 l3.2-8.6l7.7-5.3l4,0.2l6.3,9.1L3588.1,135.6z M3597,85.5l-7.9,13.4l-2.7,2.1l-4.2-0.2l-20.4-6.3l-18.4-1.7l-2.7-0.8l-12.4-36.7 l1.3-5.6l6.1-4.1h4.2l27.5,17.8l24.3,5.1l2.8,2.6l2.7,9.3L3597,85.5z"/>
</svg>
