<?xml version="1.0" encoding="utf-8"?>
<svg version="1.1" xmlns="http://www.w3.org/2000/svg" xmlns:xlink="http://www.w3.org/1999/xlink" x="0px" y="0px" viewBox="0 0 3600 200" enable-background="new 0 0 3600 200" xml:space="preserve">
<polygon fill="#fff" points="0,100 38.1,101.5 54.5,92.7 72.1,98.5 85.5,98.5 93.2,94.7 110.2,96.5 129.5,92.7 139.2,97.4 152.3,98.5 164.6,98.5 173.4,94.7 184,98.5 220.6,93.5 246.4,96.2 265.5,94.2 302,101.2 350.5,99.2 360,99.2 382.5,101.2 400.2,101.2 397.3,111.7 410.4,95.6 429.5,92.7 455.3,100.3 480.2,114.4 463.5,100.6 505.8,100.6 503.9,106.7 528.4,85.6 564.6,97.1 577.6,95.3 600.7,105.1 597,99.9 648.5,98 672.7,100 677.6,96.9 685.1,100 720.8,95 729.2,90.6 734.8,93.7 744.9,91.8 748.7,95 776.5,95 788,93 817.7,95 850,98 865.7,98 898.3,100 912.7,95 920.9,90.6 928.1,90.6 936.9,86.2 942,87.7 955.4,95 977.7,93 1009.7,95 1029.3,98 1041,98 1076.7,100 1096,100 1091.5,110 1108.4,92.8 1122.1,94.6 1129.5,87.5 1142.7,87.5 1138.3,97.9 1153.3,79.6 1161.3,78 1180.1,74.1 1192.2,67.9 1209.1,69.5 1224.9,76.1 1212.3,66.2 1221.4,54.7 1232.2,53.3 1250.8,65.8 1261.4,77.4 1279.8,89.6 1279.8,101.3 1293.9,110.8 1282.9,99.8 1282.8,95 1322.5,95 1316.7,104.5 1335.5,88.8 1343.3,88.1 1357.6,101.9 1355.8,95 1372,95 1395,100 1398.1,95.7 1407.5,100 1430.5,98 1454,100 1514,93 1545.6,95 1543,102 1554.2,89.2 1559.7,89.4 1574.6,107.9 1569.3,94.8 1586.5,93 1605,100 1630.2,100 1627.4,106.4 1654.2,83.9 1659.4,84.5 1674.5,115.7 1671.5,99.8 1686,98 1726,100 1747,93 1777.5,95 1800,95 1807,91.9 1827,93.9 1847.2,95.8 1855.6,100 1896.7,100 1902.2,102.9 1906.1,100 1920.3,98 1931,98 1981.7,95 2003.3,93 2025.5,94.8 2017.1,105 2052.8,80.9 2081,95.6 2092.7,95.6 2104.4,107.3 2102.2,100 2113.2,100 2123.1,112.5 2104.4,69.2 2108.5,58.3 2102.1,46.1 2109.1,37.6 2144.8,46.1 2177.9,60.2 2201.1,76.6 2223,85.4 2257.3,108.2 2243.3,94.2 2247,88.3 2258.8,87.1 2276.3,99.2 2276.8,118.9 2284.3,80.7 2296.9,75.1 2308.3,58.1 2311.5,42.6 2320,28.8 2330.9,32.1 2334.7,42.3 2361.6,66 2370.1,70.4 2381.2,111.9 2382.5,99.2 2389.2,90.6 2408.4,100 2419.6,100 2426.2,92.3 2447.5,93 2460.1,100 2492.8,95 2497.2,91.7 2502.7,95 2530.5,93 2570.5,95 2610.5,98 2634.5,95 2659.3,95 2672.8,87.4 2682.1,95 2712,98 2728,100 2755.1,100 2763,96.2 2768.6,91.8 2773.5,85.6 2786.7,95 2819.2,95 2818.1,101.9 2828,88.8 2847.9,85.4 2858.6,89.2 2870.7,83.3 2880.2,83.7 2880.2,91.4 2902.3,104.9 2899,100 2933.5,100 2964.5,93 2980,93 2999.9,95 3008.7,89.1 3016,87.7 3019.5,95 3056.5,95 3083,98 3136.8,95 3146.5,91.7 3159.7,95 3199.4,95 3212.8,93.8 3219.4,100 3248,98 3261.5,100 3285.5,95 3289.9,102.2 3289.9,88.8 3302.3,89.6 3331.5,104.8 3320.8,95 3339.5,95 3391,98 3413.7,99.8 3406.1,109.7 3437,90.3 3457.9,83.2 3464.2,91.9 3475.6,95 3478.7,89.9 3489.3,86.7 3516.3,108.9 3512.5,99.8 3540,93 3564.5,95 3570.4,89.4 3585.1,98.2 3593.1,93.3 3600,100 3600,201 0,201 "/>
</svg>
