<?xml version="1.0" encoding="utf-8"?>
<svg version="1.1" xmlns="http://www.w3.org/2000/svg" xmlns:xlink="http://www.w3.org/1999/xlink" x="0px" y="0px" width="3600px" height="200px" viewBox="0 0 3600 200" enable-background="new 0 0 3600 200" xml:space="preserve">
<path fill="#334" d="M2558.7,68.2l-22-2.2l-16.9,7.2l-18-6l-11.9,1l-14.6,5l-15.9-5l-13.8,5l-19.7-5l-7.3-1l-13.3,6h-11.4l-13.3-5 l-12.8-1l-10.5,1l-21,5l-10.1-5l-17.8,5l-20.1-5l-22.8,5h-9.6l-20.1-5l-14.2-1l-12.3,6l-10.1-5l-29.2,5l-18.7-6l-14.6,1l-12.8,5h-16 l-5-5l-26-1l-16.9,6H2042l-10.1-5l-24.7,5l-18.3-5l-18.7-1l-15.5,6l-18.3-5l-15.1,4.5l-16.9-1.5l-13.3-3l-11.4,4.5l-12.3-4.5 l-22.4-1.5l-10.1,6h-11.4l-13.3-4.5l-27,4.5l-22.8-4.5l-4.6,4.5l-14.6-6l-20.1,1.5l-16,4.5l-11.9-4.5l-19.7-1.5l-10.1,6l-11.9-6 l-22.8,1.5l-12.3,4.5l-15.1-4.5l-22.8,3.5l-12.3,6h-9.1l-11.9-4.5l-17.4,4.5l-11.4-6l-20.1,1.5l-10.5,4.5h-6.9l-26-4.5l-14.2,4.5 l-15.1-4.5l-15.5,4.5l-17.8-4.5l-16-1.5l-11.4,6l-11-3l-25.1-1.5l-15.5,4.5l-13.3-4.5l-16,4.5l-7.8,0.5l-21.5,4.5l-15.1-1.5l-15.5-3 H1203l-16,4.5l-15.1-4.5l-25.1,4.5l-16-4.5h-12.3l-13.7,4.5l-22.8,0.5l-21.9,4.5l-12.3-4.5l-16.5-1.5l-22.8,6l-10.5-4.5l-18.3-1.5 l-20.1,6l-30.6-6l-12.3,1.5l-10.5,4.5l-12.3-4.5L874,87.8l-25.1-6l-11.4,1.5l-12.3,5l-20.6-6.5l-11,1.5l-18.3,10h-8.7l-11.3-5 l-19.8,5l-16.5-5l-15.2-1.5l-16.5,6.5l-18.6-5l-6.4,5l-18.3-5l-8.2-1.5l-23.2,6.5h-11.6l-13.4-5h-17.1l-17.4,7.5l-17.4-6.5l-7.3,1.5 l-8.8,5l-9.7-5l-16.8,5l-12.8,2.5l-10.4-2.5l-15.5-5l-7-1.5l-21,9l-7.3-2.5l-6.1-5l-24.1,7.5l-17.4-7.5l-14.6,1l-18.6,6.5l-20.7-5 l-10.7,5l-13.7-2.5l-23.8,1l-13.7,4l-12.2-4.1l-9.3,2.6l-13.4,2.5l-17.1,0.5l-10.3-4l-16.7,6.5l-21.9-4l-12.1-1l-13.3,7.5l-13.3-7 l-12.1-2l-22.8,6.5l-8-5l-13.5-1l-18.3,3.5L29.9,107l-9.6-7.2L9.1,105l-1.6,2.2l11.4-4.9l8.9,7.9l14.1-6.4l17-2l13.3-0.6L76,107 l21.8-4.1L116,103l14.3,6.4l19.5-5.6l7.2,2.8l11.8,3.2h9.7l8.2-6l13.4,6l18.6-2.5l16.1,3.1l14.9-3.1l7.9,5l14.6-5.6l13.4,2.1l11.9,6 l13.7-2.5l11.9,2.5l13.1-6l14.6,6h11.3l13.7-3.5l7.3-1.5l12.2,7.5l14.9-7.5l15.5,7.5l11.3-6l11.9,3.5l7.3,2.5l17.7-6l16.5,3.5 l11.9,2.5l12.5-7.5h5.5l6.1,7.5l13.4-2.5l17.7-5l9.4,7.5l12.5-6l7.3-1.5l12.5,7.5l11.4-7.5l13.3,7.5l15.1-6l7.3-1.5l20.6,10l6.9-2.5 l11.4-3.5l13.7,6l10.1-2.5l12.8-5l14.2,7.5l11-7.5l6.9,1.5l13.3,6l13.3-5l19.7-1l4.6-1.5l11.4,7.5l15.5-7.5l17.8,7.5l14.8,3.2 l19-5.7l5.5,1.5l15.3,4.2l20.4,1.8l16.9-5l13.7,5l16.5-5l13.3,6.5l14.2-1.5l11-5l19.7,5h28.8l18.7,5l17.4-5l17.4,5l11-5l30.6,5 l15.5-5l8.7,1.5l16.9,3.5l21.5-5l22.4,1.5l18.7,8.5l16.9-3.5l21-1.5l9.1,5h21l25.6-5h16.5l19.7,5l21.9-5l18.7,5l16.9-6.5l6.4,1.5 l10.5,3.5l17.4,1.5l14.2-5l21.5,5l16-5l13.7,5l4.1-1.5l22.4,1.5h21l19.2,5l12.8-5l8.2-1.5l14.2,6.5l17.4-5l22.4,3.5l12.8,1.5l17.8-5 l9.6,3.5l7.8,1.5l6.9-5h18.3l20.6,5l18.3-5l9.1-1.5l26,6.5l21.5-5l15.1,5l27.9-5l20.1,3.5l21.9,1.5l10.5-5l16,5h16.5l21.3-5 l14.6,3.5l13.1,1.5l25.3-5l12.2-1.5l11.6,5l5.8,1.5l28.9-5l17.4,5l20.4-1.5l12.8-5l13.4,1.5l9.4,5l28.9-5l16.5,5l14-5l9.7-1.5 l16.1,6.5l25.3-5l20.1,3.5l6.7,1.5l20.1-5l14.9,2.5l14.3,2.5l9.7-5l9.7,5h10.4l12.2-5l7.9-2.5l15.8,7.5l13.9-5l19,5l11.6-5l11.2,5 l9.8-5l13.4,5l13.2-1.8l17.7,3l15.2-1.2h7.2V68.2H2558.7z M299.8,110.3l-8.8-8l1.5-2.3l14,5L299.8,110.3z M352.5,108.7l1.2-5 l10.7-5.7l4.6,10L352.5,108.7z M394.6,109.7l-1.8-6l5.2-4.7l7.9,6L394.6,109.7z M463.7,106l-9.1,5l-15.8-6l2.4-6.7l6.1,1.7l16.5,1.3 V106z M496,110l-5.2-6.7l3.7-3l9.4,3L496,110z M578.6,105.7h-11l-3.4-6.3l15.2-3.3l4.9,3.7L578.6,105.7z M665.3,112.2l-4.3-8.5 l5.5-3.2l13.3,4l0.2,3.5L665.3,112.2z M701.4,105.8l-8.2-1.2l4.3-9.2l6.6-3l9.4-0.5l7.3,5.2L701.4,105.8z M815.9,101.7l-10.1,2.3 l-14.3-3l-2.1-4.3l4-4.3l22.5,3.7V101.7z M1024.3,97l-4.6-4.5l6.9-3l12.3,0.5l4.6,7H1024.3z M1132.2,112.5l-15.1,1l-14.2-4l2.7-7 l21.5-1.5l8.2,6L1132.2,112.5z M1273.2,125.9l-12,1.6l-8.6-1.2l-3.4-8l5.5-4l16.8,0.4l4.8,6.4L1273.2,125.9z M1513.9,112.3l-20.7-6 l-0.3-7.3l5.2-3.7L1520,97l1.8,4.3L1513.9,112.3z M1699.7,112l-18.3,6l-23.8-11.5l0.5-5.5l19.2-5l22.8,10L1699.7,112z M1925.5,108.5 l-19.7-4.5l0.5-6l15.1-9l11.9,7l1.8,8L1925.5,108.5z M1975.4,88.1l-9.4-3.3l-1.2-5l20.7-3.7l5.2,4l0.3,5.7L1975.4,88.1z M2237.8,124 l-15.2-1.3l-2.7-6l14.3-4l9.4,4.7L2237.8,124z M2310.8,117.1l-2.4-5.7l7-5.3h11.3l0.3,5.3L2310.8,117.1z M2400.5,129.7l-13.4-4.7 l12.8-5.3l7.9-0.7l3,3.7L2400.5,129.7z M2429.4,91l-7.9-3l1.5-5.3l7.3-3l14.3,3l1.5,4.7L2429.4,91z"/>
<g>
	<g>
		<path fill="#fff" d="M2616,137H2571c-67.3,0-123.4-25.3-123.4-33c0-7.7,56.1-33,123.4-33h45.1c74.4,0,141.6,27.5,141.6,33 S2690.5,137,2616,137z"/>
		<path fill="#334" d="M2616.3,68.2h-45.8c-68.3,0-125.2,27.4-125.2,35.8c0,8.3,56.9,35.7,125.2,35.7h45.8 c75.6,0,143.8-29.8,143.8-35.8S2691.8,68.2,2616.3,68.2z M2615.8,134h-44.3c-66.2,0-121.4-23-121.4-30c0-7,55.2-30,121.4-30h44.3 c73.2,0,139.3,25,139.3,30S2689.1,134,2615.8,134z"/>
		<line fill="none" stroke="#334" x1="2533.3" y1="72.8" x2="2533.3" y2="135.2"/>
		<line fill="none" stroke="#334" x1="2572.5" y1="70" x2="2572.5" y2="138"/>
		<line fill="none" stroke="#334" x1="2611.1" y1="70" x2="2611.1" y2="138"/>
		<line fill="none" stroke="#334" x1="2651.5" y1="72.1" x2="2651.5" y2="135.9"/>
		<line fill="none" stroke="#334" x1="2694.2" y1="79.8" x2="2694.2" y2="128.3"/>
		<path fill="none" stroke="#334" d="M2706.5,83l11.5,13c3.9,4.4,3.9,11.6,0,16l-11.5,13"/>
	</g>
	<g>
		<polygon fill="#334" points="2694.2,91.9 2666.9,101.6 2660.2,94.9 2572.5,113.1 2577.2,117.8 2608.3,117.8 2627.5,137.1 2639.1,134.2 2622.7,117.8 2664.5,117.8 2679.5,132.8 2707,125 2707,104.7"/>
		<polygon fill="#334" points="2568.1,96.8 2532.4,105.1 2524.1,96.8 2490.9,111.2 2493.5,113.8 2570.7,113.8 2570.7,99.4"/>
		<polygon fill="#334" points="2526.6,105.8 2526.6,105.8 2508.9,85.1 2505.9,88.2"/>
		<polygon fill="#334" points="2580,102 2580,102 2562.9,80.7 2558.8,84.9"/>
		<polygon fill="#334" points="2656.5,102 2656.5,102 2639.4,80.8 2635.2,84.9"/>
		<polygon fill="#334" points="2519.1,131.5 2509.1,119.8 2506,122.8 2516.2,131.5"/>
		<polygon fill="#334" points="2574.4,137.1 2562.9,122.7 2558.8,126.9 2571.4,137.1"/>
		<polygon fill="#334" points="2649.4,135.2 2639.4,122.8 2635.2,126.9 2645.6,135.2"/>
	</g>
	<g>
		<rect x="2572.5" y="94.9" fill="#fff" stroke="#334" stroke-linejoin="round" width="87.7" height="18.2"/>
		<rect x="2527" y="96.8" fill="#fff" stroke="#334" stroke-linejoin="round" width="41.1" height="14.4"/>
		<rect x="2490.9" y="96.8" fill="#fff" stroke="#334" stroke-linejoin="round" width="33.1" height="14.4"/>
		<rect x="2665.3" y="94.9" fill="#fff" stroke="#334" stroke-linejoin="round" width="7.8" height="18.2"/>
		<rect x="2673" y="91.9" fill="#fff" stroke="#334" stroke-linejoin="round" width="21.2" height="24.1"/>
	</g>
	<g>
		<path fill="#fff" stroke="#334" stroke-linejoin="round" d="M2595.4,98h-5v12h5c3.3,0,6-2.7,6-6S2598.8,98,2595.4,98z"/>
		<polygon fill="#334" points="2600.9,100.9 2595.9,100.9 2591.2,108.2 2598.4,115.4 2615.3,115.4"/>
		<circle fill="#fff" stroke="#334" stroke-linejoin="round" cx="2590.4" cy="104" r="6"/>
		<circle fill="#334" cx="2590.4" cy="104" r="3.5"/>
	</g>
	<g>
		<path fill="#fff" stroke="#334" stroke-linejoin="round" d="M2651.9,98h-5v12h5c3.3,0,6-2.7,6-6S2655.3,98,2651.9,98z"/>
		<polygon fill="#334" points="2657.4,100.9 2652.4,100.9 2647.7,108.2 2654.9,115.4 2671.8,115.4"/>
		<circle fill="#fff" stroke="#334" stroke-linejoin="round" cx="2646.9" cy="104" r="6"/>
		<circle fill="#334" cx="2646.9" cy="104" r="3.5"/>
	</g>
	<g>
		<path fill="#fff" stroke="#334" stroke-linejoin="round" d="M2541.4,82.8c0,0,17.8,2.9,19.4,2.9c1.6,0,2.9-1.3,2.9-2.9s-1.3-2.9-2.9-2.9 C2559.2,79.9,2541.4,82.8,2541.4,82.8z"/>
		<path fill="#fff" stroke="#334" stroke-linejoin="round" d="M2541.4,124.8c0,0,17.8,2.9,19.4,2.9c1.6,0,2.9-1.3,2.9-2.9s-1.3-2.9-2.9-2.9 C2559.2,121.9,2541.4,124.8,2541.4,124.8z"/>
		<path fill="#fff" stroke="#334" stroke-linejoin="round" d="M2617.8,84.5c0,0,18,1.3,19.6,1.2c1.6-0.1,2.8-1.6,2.7-3.2c-0.1-1.6-1.6-2.8-3.2-2.7 C2635.3,80,2617.8,84.5,2617.8,84.5z"/>
		<path fill="#fff" stroke="#334" stroke-linejoin="round" d="M2617.8,126.3c0,0,18,1.6,19.6,1.5c1.6-0.1,2.8-1.5,2.7-3.1c-0.1-1.6-1.5-2.8-3.1-2.7 C2635.3,122,2617.8,126.3,2617.8,126.3z"/>
		<path fill="#fff" stroke="#334" stroke-linejoin="round" d="M2493.6,117.4c0,0,12.1,5.7,13.2,6s2.4-0.3,2.7-1.5c0.3-1.2-0.3-2.4-1.5-2.7 C2506.9,118.9,2493.6,117.4,2493.6,117.4z"/>
		<path fill="#fff" stroke="#334" stroke-linejoin="round" d="M2493.7,90.7c0,0,13.3-1.6,14.4-1.9c1.2-0.3,1.8-1.5,1.5-2.7c-0.3-1.2-1.5-1.8-2.7-1.5 S2493.7,90.7,2493.7,90.7z"/>
	</g>
</g>
</svg>
