<?xml version="1.0" encoding="utf-8"?>
<svg version="1.1" xmlns="http://www.w3.org/2000/svg" xmlns:xlink="http://www.w3.org/1999/xlink" x="0px" y="0px" viewBox="0 0 300 300" enable-background="new 0 0 300 300" xml:space="preserve">
<path fill="#667" d="M86.253,271.832c4.042-0.852,7.367-3.21,9.503-6.34c-3.218-2.001-7.212-2.815-11.254-1.963 c-4.042,0.852-7.367,3.21-9.503,6.34C78.217,271.87,82.211,272.685,86.253,271.832z M91.379,244.736 c3.13,2.136,5.488,5.461,6.34,9.503c0.852,4.042,0.038,8.036-1.963,11.254c-3.13-2.136-5.488-5.461-6.34-9.503 S89.378,247.953,91.379,244.736z M70,261.24c4.042-0.852,7.367-3.21,9.503-6.34c-3.218-2.001-7.212-2.815-11.254-1.963 s-7.367,3.21-9.503,6.34C61.963,261.278,65.958,262.093,70,261.24z M75.125,234.144c3.13,2.136,5.488,5.461,6.34,9.503 c0.852,4.042,0.038,8.036-1.963,11.254c-3.13-2.136-5.488-5.461-6.34-9.503C72.31,241.356,73.125,237.361,75.125,234.144z M52.662,247.458c4.12,0.291,7.966-1.062,10.879-3.485c-2.544-2.808-6.161-4.688-10.281-4.98s-7.966,1.062-10.879,3.485 C44.925,245.286,48.542,247.167,52.662,247.458z M65.036,222.813c2.422,2.913,3.776,6.759,3.485,10.879 c-0.291,4.12-2.172,7.737-4.98,10.281c-2.422-2.913-3.776-6.759-3.485-10.879C60.348,228.974,62.228,225.357,65.036,222.813z M39.945,232.808c4.12,0.291,7.966-1.062,10.879-3.485c-2.544-2.808-6.161-4.688-10.281-4.98s-7.966,1.062-10.879,3.485 C32.208,230.636,35.824,232.517,39.945,232.808z M52.319,208.162c2.422,2.913,3.776,6.759,3.485,10.879 c-0.291,4.12-2.172,7.737-4.98,10.281c-2.422-2.913-3.776-6.759-3.485-10.879S49.511,210.706,52.319,208.162z M27.684,214.364 c3.879,1.421,7.948,1.185,11.419-0.336c-1.667-3.403-4.621-6.211-8.5-7.632c-3.879-1.421-7.948-1.185-11.419,0.336 C20.85,210.134,23.805,212.943,27.684,214.364z M46.399,194.109c1.521,3.47,1.756,7.54,0.336,11.419 c-1.421,3.879-4.229,6.833-7.632,8.5c-1.521-3.47-1.756-7.54-0.336-11.419C40.188,198.731,42.996,195.776,46.399,194.109z M19.521,196.764c3.879,1.421,7.948,1.185,11.419-0.336c-1.667-3.403-4.621-6.211-8.5-7.632c-3.879-1.421-7.948-1.185-11.419,0.336 C12.688,192.535,15.643,195.343,19.521,196.764z M38.236,176.51c1.521,3.47,1.756,7.54,0.336,11.419 c-1.421,3.879-4.229,6.833-7.632,8.5c-1.521-3.47-1.756-7.54-0.336-11.419S34.834,178.177,38.236,176.51z M13.514,175.368 c3.313,2.467,7.281,3.401,11.041,2.932c-0.628-3.736-2.66-7.27-5.974-9.737s-7.281-3.401-11.041-2.932 C8.169,169.367,10.201,172.901,13.514,175.368z M37.224,161.285c0.469,3.76-0.465,7.728-2.932,11.041s-6.001,5.345-9.737,5.974 c-0.469-3.76,0.465-7.728,2.932-11.041S33.488,161.913,37.224,161.285z M10.704,156.172c3.313,2.467,7.281,3.401,11.041,2.932 c-0.628-3.736-2.66-7.27-5.974-9.737c-3.313-2.467-7.281-3.401-11.041-2.932C5.359,150.171,7.391,153.705,10.704,156.172z M34.414,142.089c0.469,3.76-0.465,7.728-2.932,11.041s-6.001,5.345-9.737,5.974c-0.469-3.76,0.465-7.728,2.932-11.041 S30.678,142.718,34.414,142.089z M11.01,134.148c2.546,3.253,6.128,5.199,9.879,5.737c0.378-3.77-0.651-7.715-3.197-10.967 c-2.546-3.253-6.128-5.199-9.879-5.737C7.435,126.951,8.464,130.896,11.01,134.148z M37.593,126.809 c-0.538,3.751-2.484,7.333-5.737,9.879c-3.253,2.546-7.197,3.575-10.967,3.197c0.538-3.751,2.484-7.333,5.737-9.879 C29.878,127.46,33.823,126.431,37.593,126.809z M13.869,112.413c1.695,3.767,4.708,6.513,8.221,7.932 c1.268-3.57,1.212-7.646-0.483-11.413c-1.695-3.767-4.708-6.513-8.221-7.932C12.118,104.57,12.174,108.646,13.869,112.413z M41.435,111.641c-1.419,3.513-4.165,6.526-7.932,8.221c-3.767,1.695-7.843,1.751-11.413,0.483c1.419-3.513,4.165-6.526,7.932-8.221 S37.865,110.372,41.435,111.641z M20.75,94.274c1.695,3.767,4.708,6.513,8.221,7.932c1.268-3.57,1.212-7.646-0.483-11.413 c-1.695-3.767-4.708-6.513-8.221-7.932C18.999,86.431,19.055,90.507,20.75,94.274z M48.317,93.502 c-1.419,3.513-4.165,6.526-7.932,8.221c-3.767,1.695-7.843,1.751-11.413,0.483c1.419-3.513,4.165-6.526,7.932-8.221 C40.67,92.29,44.746,92.234,48.317,93.502z M30.385,74.794c0.771,4.058,3.062,7.43,6.148,9.628 c2.065-3.177,2.959-7.154,2.188-11.212c-0.771-4.058-3.062-7.43-6.148-9.628C30.508,66.759,29.614,70.736,30.385,74.794z M57.373,80.462c-2.198,3.086-5.57,5.377-9.628,6.148s-8.035-0.123-11.212-2.188c2.198-3.086,5.57-5.377,9.628-6.148 C50.219,77.503,54.197,78.397,57.373,80.462z M41.301,58.756c0.771,4.058,3.062,7.43,6.148,9.628 c2.065-3.177,2.959-7.154,2.188-11.212s-3.062-7.43-6.148-9.628C41.424,50.721,40.53,54.698,41.301,58.756z M68.289,64.424 c-2.198,3.086-5.57,5.377-9.628,6.148s-8.035-0.123-11.212-2.188c2.198-3.086,5.57-5.377,9.628-6.148 C61.135,61.465,65.112,62.359,68.289,64.424z M72.678,40c-0.095,4.464-1.861,8.932-5.303,12.374 c-3.442,3.442-7.91,5.208-12.374,5.303c0.095-4.464,1.861-8.932,5.303-12.374C63.746,41.861,68.213,40.095,72.678,40z"/>
<path fill="#667" d="M202.282,254.239c-0.852,4.042-0.038,8.036,1.963,11.254c3.13-2.136,5.488-5.461,6.34-9.503 s0.038-8.036-1.963-11.254C205.492,246.872,203.134,250.197,202.282,254.239z M225.001,269.87 c-3.218,2.001-7.212,2.815-11.254,1.963c-4.042-0.852-7.367-3.21-9.503-6.34c3.218-2.001,7.212-2.815,11.254-1.963 C219.54,264.382,222.865,266.74,225.001,269.87z M218.535,243.647c-0.852,4.042-0.038,8.036,1.963,11.254 c3.13-2.136,5.488-5.461,6.34-9.503c0.852-4.042,0.038-8.036-1.963-11.254C221.745,236.279,219.387,239.605,218.535,243.647z M241.254,259.278c-3.218,2.001-7.212,2.815-11.254,1.963c-4.042-0.852-7.367-3.21-9.503-6.34c3.218-2.001,7.212-2.815,11.254-1.963 C235.793,253.79,239.118,256.148,241.254,259.278z M231.479,233.692c0.291,4.12,2.172,7.737,4.98,10.281 c2.422-2.913,3.776-6.759,3.485-10.879c-0.291-4.12-2.172-7.737-4.98-10.281C232.542,225.726,231.188,229.572,231.479,233.692z M257.619,242.479c-2.544,2.808-6.161,4.688-10.281,4.98c-4.12,0.291-7.966-1.062-10.879-3.485c2.544-2.808,6.161-4.688,10.281-4.98 S254.706,240.056,257.619,242.479z M244.196,219.042c0.291,4.12,2.172,7.737,4.98,10.281c2.422-2.913,3.776-6.759,3.485-10.879 s-2.172-7.737-4.98-10.281C245.259,211.076,243.905,214.921,244.196,219.042z M270.336,227.828 c-2.544,2.808-6.161,4.688-10.281,4.98c-4.12,0.291-7.966-1.062-10.879-3.485c2.544-2.808,6.161-4.688,10.281-4.98 C263.578,224.052,267.423,225.406,270.336,227.828z M253.266,205.528c1.421,3.879,4.229,6.833,7.632,8.5 c1.521-3.47,1.756-7.54,0.336-11.419c-1.421-3.879-4.229-6.833-7.632-8.5C252.08,197.579,251.845,201.649,253.266,205.528z M280.816,206.731c-1.667,3.403-4.621,6.211-8.5,7.632c-3.879,1.421-7.948,1.185-11.419-0.336c1.667-3.403,4.622-6.211,8.5-7.632 C273.276,204.975,277.346,205.211,280.816,206.731z M261.428,187.929c1.421,3.879,4.229,6.833,7.632,8.5 c1.521-3.47,1.756-7.54,0.336-11.419c-1.421-3.879-4.229-6.833-7.632-8.5C260.243,179.98,260.007,184.05,261.428,187.929z M288.979,189.132c-1.667,3.403-4.621,6.211-8.5,7.632c-3.879,1.421-7.948,1.185-11.419-0.336c1.667-3.403,4.621-6.211,8.5-7.632 C281.439,187.376,285.509,187.611,288.979,189.132z M265.707,172.326c2.467,3.313,6.001,5.345,9.737,5.974 c0.469-3.76-0.465-7.728-2.932-11.041s-6.001-5.345-9.737-5.974C262.307,165.044,263.24,169.013,265.707,172.326z M292.459,165.63 c-0.628,3.736-2.66,7.27-5.974,9.737c-3.313,2.467-7.281,3.401-11.041,2.932c0.628-3.736,2.66-7.27,5.974-9.737 C284.731,166.095,288.7,165.161,292.459,165.63z M268.518,153.13c2.467,3.313,6.001,5.345,9.737,5.974 c0.469-3.76-0.465-7.728-2.932-11.041c-2.467-3.313-6.001-5.345-9.737-5.974C265.117,145.849,266.051,149.817,268.518,153.13z M295.27,146.435c-0.628,3.736-2.66,7.27-5.974,9.737c-3.313,2.467-7.281,3.401-11.041,2.932c0.628-3.736,2.66-7.27,5.974-9.737 C287.542,146.9,291.51,145.966,295.27,146.435z M268.144,136.688c3.253,2.546,7.197,3.575,10.967,3.197 c-0.538-3.751-2.484-7.333-5.737-9.879c-3.253-2.546-7.197-3.575-10.967-3.197C262.945,130.559,264.891,134.141,268.144,136.688z M292.187,123.181c0.378,3.77-0.651,7.715-3.197,10.967c-2.546,3.253-6.128,5.199-9.879,5.737c-0.378-3.77,0.651-7.715,3.197-10.967 C284.854,125.665,288.436,123.719,292.187,123.181z M266.497,119.862c3.767,1.695,7.843,1.751,11.413,0.483 c-1.419-3.513-4.165-6.526-7.932-8.221s-7.843-1.751-11.413-0.483C259.984,115.154,262.73,118.167,266.497,119.862z M286.614,100.999c1.268,3.57,1.212,7.646-0.483,11.413c-1.695,3.767-4.708,6.513-8.221,7.932c-1.268-3.57-1.212-7.646,0.483-11.413 C280.088,105.164,283.101,102.418,286.614,100.999z M259.615,101.723c3.767,1.695,7.843,1.751,11.413,0.483 c-1.419-3.513-4.165-6.526-7.932-8.221c-3.767-1.695-7.843-1.751-11.413-0.483C253.102,97.016,255.848,100.029,259.615,101.723z M279.733,82.861c1.268,3.57,1.212,7.646-0.483,11.413c-1.695,3.767-4.708,6.513-8.221,7.932c-1.268-3.57-1.212-7.646,0.483-11.413 C273.206,87.026,276.219,84.28,279.733,82.861z M252.255,86.61c4.058,0.771,8.035-0.123,11.212-2.188 c-2.198-3.086-5.57-5.377-9.628-6.148c-4.058-0.771-8.035,0.123-11.212,2.188C244.825,83.548,248.197,85.839,252.255,86.61z M267.427,63.582c2.065,3.177,2.959,7.154,2.188,11.212c-0.771,4.058-3.062,7.43-6.148,9.628c-2.065-3.177-2.959-7.154-2.188-11.212 C262.05,69.152,264.341,65.78,267.427,63.582z M241.339,70.572c4.058,0.771,8.035-0.123,11.212-2.188 c-2.198-3.086-5.57-5.377-9.628-6.148c-4.058-0.771-8.035,0.123-11.212,2.188C233.909,67.51,237.281,69.801,241.339,70.572z M256.511,47.544c2.065,3.177,2.959,7.154,2.188,11.212c-0.771,4.058-3.062,7.43-6.148,9.628c-2.065-3.177-2.959-7.154-2.188-11.212 S253.425,49.742,256.511,47.544z M239.697,45.303c3.442,3.442,5.208,7.91,5.303,12.374c-4.464-0.095-8.932-1.861-12.374-5.303 c-3.442-3.442-5.208-7.91-5.303-12.374C231.787,40.095,236.254,41.861,239.697,45.303z"/>
<g>
 <path fill="#667" d="M92.752,39.158h-3.901v-2.5h10.643v2.5h-3.881V50h-2.86V39.158z M110.452,44.399h-6.301V50h-2.841V36.657 h2.841v5.241h6.301v-5.241h2.861V50h-2.861V44.399z M115.931,36.657h9.442v2.44h-6.602v2.9h6.461v2.441h-6.461v3.101h6.602V50 h-9.442V36.657z M132.71,36.657h7.021c2.54,0,3.841,1.62,3.841,3.401c0,1.68-1.04,2.8-2.301,3.061 c1.421,0.22,2.561,1.6,2.561,3.281c0,2-1.34,3.601-3.881,3.601h-7.241V36.657z M139.111,42.018c0.96,0,1.561-0.62,1.561-1.48 c0-0.82-0.601-1.46-1.561-1.46h-3.561v2.94H139.111z M139.211,47.58c1.081,0,1.721-0.62,1.721-1.581c0-0.84-0.6-1.56-1.721-1.56 h-3.66v3.141H139.211z M145.97,36.657h9.442v2.44h-6.602v2.9h6.461v2.441h-6.461v3.101h6.602V50h-9.442V36.657z M158.27,45.959 c0.94,0.98,2.401,1.801,4.241,1.801c1.561,0,2.32-0.74,2.32-1.5c0-1-1.16-1.34-2.7-1.701c-2.181-0.5-4.981-1.1-4.981-4.081 c0-2.221,1.921-4.021,5.062-4.021c2.12,0,3.881,0.64,5.201,1.86l-1.58,2.081c-1.081-1-2.521-1.46-3.821-1.46 c-1.28,0-1.96,0.56-1.96,1.36c0,0.9,1.12,1.18,2.66,1.541c2.2,0.5,5.001,1.16,5.001,4.121c0,2.44-1.74,4.281-5.341,4.281 c-2.561,0-4.401-0.86-5.661-2.121L158.27,45.959z M172.571,39.158h-3.901v-2.5h10.643v2.5h-3.881V50h-2.86V39.158z M192.571,36.437 c4.041,0,6.981,2.881,6.981,6.901c0,4.021-2.94,6.902-6.981,6.902c-4.021,0-6.962-2.881-6.962-6.902 C185.609,39.318,188.551,36.437,192.571,36.437z M192.571,38.958c-2.461,0-4.041,1.88-4.041,4.381c0,2.481,1.58,4.381,4.041,4.381 s4.061-1.9,4.061-4.381C196.632,40.838,195.032,38.958,192.571,38.958z M201.55,36.657h9.442v2.44h-6.602v2.9h6.461v2.441h-6.461 V50h-2.841V36.657z"/>
 <path fill="#667" d="M72.631,122.631h-6.209v-2.64h15.389v2.64h-6.18V140h-3V122.631z M94.65,130.67c0-2.4-1.229-3.12-3.09-3.12 c-1.68,0-3.21,1.02-3.99,2.1V140h-2.699v-20.009h2.699v7.56c0.96-1.17,2.91-2.4,5.13-2.4c3.09,0,4.65,1.56,4.65,4.62V140h-2.7 V130.67z M108.031,125.15c4.35,0,7.05,3.39,7.05,7.83v0.66h-11.46c0.211,2.46,2.011,4.5,4.92,4.5c1.53,0,3.21-0.6,4.29-1.71 l1.26,1.77c-1.439,1.41-3.479,2.16-5.819,2.16c-4.32,0-7.5-3.06-7.5-7.62C100.771,128.541,103.802,125.15,108.031,125.15z  M103.592,131.69h8.85c-0.061-1.92-1.351-4.32-4.41-4.32C105.121,127.371,103.741,129.71,103.592,131.69z M126.271,119.991h8.43 c4.11,0,6.39,2.82,6.39,6.15c0,3.33-2.31,6.15-6.39,6.15h-5.43V140h-3V119.991z M134.311,122.631h-5.04v7.02h5.04 c2.16,0,3.689-1.41,3.689-3.51C138,124.041,136.471,122.631,134.311,122.631z M153.9,138.02c-1.11,1.2-2.939,2.34-5.16,2.34 c-3.09,0-4.619-1.56-4.619-4.62v-10.229h2.699v9.33c0,2.4,1.2,3.12,3.061,3.12c1.68,0,3.21-0.96,4.02-2.04v-10.409h2.7V140h-2.7 V138.02z M171.21,137.93c-1.08,1.44-2.82,2.43-4.74,2.43c-3.779,0-6.479-2.85-6.479-7.589c0-4.65,2.7-7.62,6.479-7.62 c1.86,0,3.57,0.9,4.74,2.46v-7.62h2.7V140h-2.7V137.93z M171.21,129.681c-0.75-1.17-2.37-2.13-4.02-2.13 c-2.7,0-4.38,2.19-4.38,5.22c0,3,1.68,5.189,4.38,5.189c1.649,0,3.27-0.93,4.02-2.1V129.681z M188.55,137.93 c-1.08,1.44-2.82,2.43-4.74,2.43c-3.779,0-6.479-2.85-6.479-7.589c0-4.65,2.7-7.62,6.479-7.62c1.86,0,3.57,0.9,4.74,2.46v-7.62h2.7 V140h-2.7V137.93z M188.55,129.681c-0.75-1.17-2.37-2.13-4.02-2.13c-2.7,0-4.38,2.19-4.38,5.22c0,3,1.68,5.189,4.38,5.189 c1.649,0,3.27-0.93,4.02-2.1V129.681z M195.15,121.491c0-0.96,0.81-1.71,1.739-1.71c0.96,0,1.74,0.75,1.74,1.71 s-0.78,1.74-1.74,1.74C195.96,123.23,195.15,122.451,195.15,121.491z M195.57,125.511h2.699V140h-2.699V125.511z M212.339,130.73 c0-2.4-1.229-3.18-3.09-3.18c-1.68,0-3.21,1.02-3.99,2.1V140h-2.699v-14.489h2.699v2.04c0.96-1.17,2.88-2.4,5.13-2.4 c3.061,0,4.65,1.62,4.65,4.68V140h-2.7V130.73z M220.499,141.74c1.2,1.38,2.67,1.92,4.649,1.92c2.25,0,4.5-1.08,4.5-4.14v-1.89 c-1.11,1.44-2.82,2.49-4.77,2.49c-3.75,0-6.45-2.76-6.45-7.5c0-4.649,2.7-7.47,6.45-7.47c1.89,0,3.6,0.9,4.77,2.46v-2.1h2.7v13.919 c0,4.979-3.63,6.45-7.2,6.45c-2.43,0-4.199-0.51-5.939-2.16L220.499,141.74z M229.648,129.681c-0.75-1.17-2.4-2.13-4.02-2.13 c-2.7,0-4.38,2.1-4.38,5.07c0,3,1.68,5.1,4.38,5.1c1.619,0,3.27-0.99,4.02-2.16V129.681z M124.155,165.01 c0-6.149,4.56-10.35,10.26-10.35c3.93,0,6.39,1.89,7.949,4.23l-2.55,1.35c-1.05-1.68-3.029-2.91-5.399-2.91 c-4.05,0-7.17,3.18-7.17,7.68c0,4.47,3.12,7.68,7.17,7.68c2.37,0,4.35-1.23,5.399-2.91l2.55,1.35 c-1.59,2.34-4.02,4.229-7.949,4.229C128.715,175.36,124.155,171.16,124.155,165.01z M155.084,173.02 c-1.11,1.2-2.939,2.34-5.16,2.34c-3.09,0-4.619-1.56-4.619-4.62v-10.229h2.699v9.33c0,2.4,1.2,3.12,3.061,3.12 c1.68,0,3.21-0.96,4.02-2.04v-10.409h2.7V175h-2.7V173.02z M162.075,180.52v-20.009h2.699v2.07c1.051-1.44,2.79-2.43,4.74-2.43 c3.78,0,6.45,2.85,6.45,7.59s-2.67,7.62-6.45,7.62c-1.89,0-3.57-0.87-4.74-2.46v7.62H162.075z M168.795,162.55 c-1.65,0-3.3,0.96-4.021,2.13v6.149c0.721,1.14,2.37,2.13,4.021,2.13c2.699,0,4.35-2.19,4.35-5.22 C173.145,164.74,171.494,162.55,168.795,162.55z"/>
 <path fill="#667" d="M114.545,272.2c8.716-3.396,12.321-6.966,12.321-10.011c0-2.205-1.96-3.745-4.41-3.745 c-2.626,0-4.936,1.085-6.44,2.87l-2.065-2.275c1.925-2.415,5.32-3.71,8.575-3.71c4.586,0,7.876,2.45,7.876,6.335 c0,4.061-4.235,8.016-9.485,10.256h9.101V275h-15.472V272.2z M134.425,265.374c0-5.11,2.8-10.046,9.136-10.046 s9.136,4.936,9.136,10.046c0,5.076-2.8,10.046-9.136,10.046S134.425,270.45,134.425,265.374z M137.995,265.374 c0,3.57,1.68,6.931,5.565,6.931s5.565-3.36,5.565-6.931s-1.68-6.931-5.565-6.931S137.995,261.804,137.995,265.374z M160.78,260.333 l-3.78,3.956l-2.065-2.135l6.266-6.406h3.08V275h-3.5V260.333z M173.905,262.959c-2.661-0.805-5.006-2.556-5.006-5.566 c0-4.235,4.235-6.09,8.296-6.09c3.955,0,8.261,1.855,8.261,6.09c0,3.01-2.38,4.761-5.04,5.566c2.87,0.91,5.39,3.045,5.39,6.09 c0,4.061-3.955,6.371-8.61,6.371c-4.726,0-8.681-2.275-8.681-6.371C168.515,266.004,171.034,263.869,173.905,262.959z  M177.195,264.534c-1.471,0.175-5.146,1.365-5.146,4.096c0,2.275,2.345,3.675,5.146,3.675c2.695,0,5.11-1.4,5.11-3.675 C182.306,265.899,178.596,264.709,177.195,264.534z M177.195,254.418c-2.73,0-4.761,1.295-4.761,3.5 c0,2.485,3.325,3.396,4.761,3.641c1.436-0.245,4.726-1.155,4.726-3.641C181.921,255.713,179.82,254.418,177.195,254.418z"/>
</g>
</svg>