<?xml version="1.0" encoding="utf-8"?>
<svg version="1.1" xmlns="http://www.w3.org/2000/svg" xmlns:xlink="http://www.w3.org/1999/xlink" x="0px" y="0px" width="3600px" height="200px" viewBox="0 0 3600 200" enable-background="new 0 0 3600 200" xml:space="preserve">
<path fill="#fff" d="M3580,100l-3.1-4.3l-9.3-0.7l-23-2l-23.5,2l-60,3l-31.6,2l2.5,7l-11.2-12.8l-5.5,0.2l-14.8,18.5l5.2-13.1 l-17.2-1.8l-18.5,2h-25.2l2.8,6.4l-26.9-22.6l-5.1,0.6l-15.1,31.2l3-15.9L3289,98l-40-3l-21-2l-30.5,2l-22.5,5l-7-3.1l-20,2 l-20.2-3.1l-8.3,4.2l-41.1-5l-5.6,2.9L3069,95l-14.3-2H3044l-50.7,7l-21.7-2l-22.2,1.8l8.4,10.2l-35.7-24l-28.1,9.7h-11.7 l-11.7,11.7l2.2-7.3h-11l-10,12.5l18.7-43.3l-4.1-11l-92.6,18.3l-22,8.8l-34.3,22.9l14-14l-3.7-5.8l-11.8-1.2l-25.5-6.4l-12.6-5.6 l-85.6,24.1l-6.6-8.6l-19.3,9.4h-11.2l-6.6-7.7l-21.3,0.7l-12.5,7l-32.7-5l-4.4-3.3l-5.5,3.3l-27.8-2l-40,7l-40-2l-24-3h-24.8 l-13.5-7.6l-9.4,7.6l-29.9-2l-16,2l-27.1,5l-7.9-3.8l-5.6,0.6l-5-6.2l-13.2,9.4h-32.4l1.1,6.9l-10-13.1l-19.9-8.5l-10.7,3.9 l-12.1-5.9l-9.4,0.4v7.7l-22.1,13.5l3.3-4.9l-34.5-5l-31-2H1995l-19.9,2l-8.8-0.9L1959,93l-3.5,7.3h-37l-26.5-2l-53.8-3l-9.7-3.3 l-13.2,3.3h-39.8l-13.4-6.2l-6.6,6.2l-28.6,3l-13.5,2h-24l-4.4,7.2V93.8l-12.5,0.7l-29.2,15.2l10.7-9.8h-18.8l-51.5-2l-22.7,1.8 l7.7,9.9L1538,90.3l-20.9-7.2l-6.3,8.8l-11.4,3.1l-3.1-5.1l-10.5-3.2l-27.1,22.2l3.8-9L1430,98l-24.5-3l-5.9-5.6l-9.7,3.8l-8.1-5 L1375,95l-38.1,6.5l-16.4-8.8l-17.6,5.9h-13.5l-7.6-3.8l-17,1.8l-19.3-3.8l-9.7,4.7l-13.2,1.2l-12.3-5l-8.8-3.8l-10.5,3.8h-36.6 l-25.8,2.6l-19.1-2l-36.5,2l-48.5,3h-9.5l-22.5,2h-17.8l3,10.5l-13.2-16.1l-19-2.9l-25.8,7.6l-24.9,14.1l16.7-13.8h-42.3l1.9,6.2 l-24.5-21.1l-36.2,11.4l-13-1.8l-23.1,9.7l3.7-5.2L726.5,98l-24.2,2l-5-3.1l-7.5,3.1l-35.7-5l-8.3-4.4l-5.6,3.1l-10.1-1.9l-3.8,3.2 l-27.8,5L587,98l-29.7,2L525,98h-15.7l-32.7-3h-14.4l-8.1-4.4h-7.3l-8.8-4.4l-5.1,1.5L419.6,95l-22.3-2l-32,2l-19.7-2H334l-35.7,7 H279l4.5,10l-17-17.1l-13.6,1.8l-7.5-7h-13.1l4.3,10.4l-14.9-18.3l-8.1-1.6l-18.8,1L182.6,73l-16.8,1.6L150,81.2l-36.5,1.3 L95.2,94.6v11.8l-3-6.3H52.5l5.8,9.5L39.5,93.8l-7.8-0.7l-14.4,13.8l1.8-6.9H0v101h3600V100H3580z M2049.5,153.3h-3.1l-0.9-1.7 l0.9,9.4l-1.6,2.1l-0.3,2.5l-0.7,1.7l-0.3,3.9l-3.4,4.7l0.5,2.4l-2.2,1.8h-3.6l-0.9-1.9l0.9-4.3l-0.2-3.4l-1.9-8.4l-1.2-1.7 l1.3-10.6l-1,1.2l-2,0.9l-2.1,2.4v2.2l0.9,1l-0.4,1.2h-2.4l-1.7-3.6l0.6-3.6l2.3-2.9v-1.4l3.6-4.9l0.7-1.6l3-3.6l1.9-1l1.1-2.1 l0.6-2.7l2.3-1.1l2,0.9l1.3,1.7l0.3,1.9l0.8,1.2l-0.5,1.3l2.7,1.7l1.4,2.1l0.1,2.8l2.5,7.2L2049.5,153.3z M2078.7,136.7l-1.4,0.7 v1.9l-0.6,0.2l-0.5,0.9l-1.3,0.2l-0.7,2.5l-0.6,1.7l-0.1,4.4l1,1v0.6l-2.2,1.2l-1.5-0.2l-0.4-1.1l-2-1.4l0.4-1l0.6-3.5l0.3-0.1 l0.6-1.6l-0.2-2.8l-1.8-1.2l0.4,2.1l-0.2,2l-0.8,1l-0.8-0.3l0.1-1.4l-2-2.6l-0.1,5.6l-0.7,0.5l-0.3,4.1l0.4,1.2l-1.8,6.1l0.8,1.3 v0.7l-2.3,0.7l-1.9-0.7l1.2-7.3l0.4-0.9l-1.1-2.2l-1.1,2.3l0.1,0.9l-0.7,5.2l0.1,0.9l-1.8,0.7l-1.1-0.7V157l0.3-5.3l-0.4-1.2 l0.5-5.2l-0.6-0.6l0.3-2.5h-0.7l-2.8-2.4v-3.3l3.9-5.3l1.8-0.4l0.6-1.2l1.2-0.4l1.1-3.1l1.8-0.9l2.1,1.4v1.9l-0.4,1.1l1.6,1.4l0.5,4 l0.8,1.5l0.1-2.6l0.7-0.9v-0.6l1.1-1.2l0.2-1.4l0.9-0.5l0.6-0.9l0.7-0.2l0.4-1.4c0,0,1.2-0.9,1.3-1s0.8-2.1,0.8-2.1l1.2-0.6h0.5 l1.3,0.6l0.6,1.7l0.4,2.3l-0.3,0.5l-0.7-0.1v0.4l1,0.4l0.8,1.1l0.9,4.6L2078.7,136.7z"/>
</svg>
