<?xml version="1.0" encoding="utf-8"?>
<svg version="1.1" xmlns="http://www.w3.org/2000/svg" xmlns:xlink="http://www.w3.org/1999/xlink" x="0px" y="0px" viewBox="0 0 100 100" enable-background="new 0 0 100 100;" xml:space="preserve">
<path fill="#334" d="M51,22l2,13l-2,11h-2l-2-11l2-13v-6L48,6l1-2h2l1,2l-1,10V22z"/>
<path fill="#334" d="M49,78l-2-13l2-11h2l2,11l-2,13v6l1,10l-1,2h-2l-1-2l1-10V78z"/>
<path fill="#334" d="M74.7,36.9l-10.3,8.2L54,48.9l-1-1.7l8.5-7.2l12.3-4.8l5.2-3l8.2-5.9l2.2-0.1l1,1.7l-1.2,1.9l-9.2,4.1L74.7,36.9z"/>
<path fill="#334" d="M25.3,63.1l10.3-8.2L46,51.1l1,1.7l-8.5,7.2l-12.3,4.8l-5.2,3l-8.2,5.9l-2.2,0.1l-1-1.7l1.2-1.9l9.2-4.1L25.3,63.1z"/>
<path fill="#334" d="M26.3,35.1l12.3,4.8l8.5,7.2l-1,1.7l-10.5-3.8l-10.3-8.2l-5.2-3l-9.2-4.1l-1.2-1.9l1-1.7l2.2,0.1l8.2,5.9L26.3,35.1z"/>
<path fill="#334" d="M73.7,64.9l-12.3-4.8L53,52.9l1-1.7l10.5,3.8l10.3,8.2l5.2,3l9.2,4.1l1.2,1.9l-1,1.7l-2.2-0.1l-8.2-5.9L73.7,64.9z"/>
<path fill="#334" d="M50,16c-18.8,0-34,15.2-34,34s15.2,34,34,34s34-15.2,34-34S68.8,16,50,16z M50,78c-15.4,0-28-12.6-28-28s12.6-28,28-28s28,12.6,28,28S65.4,78,50,78z"/>
<path fill="#334" d="M50,43.1l-6,3.5l0,6.9l6,3.5l6-3.5l0-6.9L50,43.1z M53,51.7l-3,1.7l-3-1.7l0-3.5l3-1.7l3,1.7L53,51.7z"/>
</svg>
