<?xml version="1.0" encoding="utf-8"?>
<!-- Generator: Adobe Illustrator 21.0.0, SVG Export Plug-In . SVG Version: 6.00 Build 0)  -->
<svg version="1.1" xmlns="http://www.w3.org/2000/svg" xmlns:xlink="http://www.w3.org/1999/xlink" x="0px" y="0px"
	 viewBox="0 0 638.5 685.7" style="enable-background:new 0 0 638.5 685.7;" xml:space="preserve">
<style type="text/css">
	.st0{fill:none;}
	.st1{fill:none;stroke:#231F20;stroke-width:2.88;}
	.st2{display:none;}
	.st3{display:inline;fill:#93A9D1;}
	.st4{opacity:0.75;}
	.st5{opacity:0.66;fill:#B73DB7;enable-background:new    ;}
	.st6{opacity:0.66;fill:#EC1111;enable-background:new    ;}
	.st7{opacity:0.66;fill:#0E38B4;enable-background:new    ;}
	.st8{opacity:0.66;fill:#F88C19;enable-background:new    ;}
	.st9{opacity:0.66;fill:#049E62;enable-background:new    ;}
	.st10{opacity:0.66;fill:#45BFE2;enable-background:new    ;}
	.st11{opacity:0.66;fill:#FFD200;enable-background:new    ;}
	.st12{opacity:0.5;fill:#FCF5E3;stroke:#27AAEA;stroke-width:2;enable-background:new    ;}
	.st13{clip-path:url(#SVGID_2_);}
	.st14{opacity:0.5;fill:#038099;enable-background:new    ;}
	.st15{clip-path:url(#SVGID_4_);}
	.st16{opacity:0.5;}
	.st17{fill:#038099;}
	.st18{fill:#FCF5E3;stroke:#27AAEA;}
	.st19{fill:#F4E2BA;stroke:#27AAEA;}
	.st20{opacity:0.5;fill:#B73DB7;enable-background:new    ;}
	.st21{opacity:0.5;fill:#EC1111;enable-background:new    ;}
	.st22{opacity:0.5;fill:#0E38B4;enable-background:new    ;}
	.st23{opacity:0.5;fill:#F88C19;enable-background:new    ;}
	.st24{opacity:0.5;fill:#049E62;enable-background:new    ;}
	.st25{opacity:0.5;fill:#45BFE2;enable-background:new    ;}
	.st26{opacity:0.5;fill:#FFD200;enable-background:new    ;}
	.st27{fill:none;stroke:#27AAEA;stroke-opacity:0.75;stroke-dasharray:4,4;}
	.st28{fill:none;stroke:#27AAEA;stroke-opacity:0.75;}
	.st29{opacity:0.75;fill:none;stroke:#9B9B9B;stroke-width:1.42;stroke-linecap:round;enable-background:new    ;}
	.st30{fill:none;stroke:#038099;stroke-width:4.25;stroke-linecap:round;stroke-miterlimit:10;}
	.st31{fill:none;stroke:#049E62;stroke-width:4.25;stroke-linecap:round;stroke-miterlimit:10;}
	.st32{fill:none;stroke:#0E38B4;stroke-width:4.25;stroke-linecap:round;stroke-miterlimit:10;}
	.st33{fill:none;stroke:#F88C19;stroke-width:4.25;stroke-linecap:round;stroke-miterlimit:10;}
	.st34{fill:none;stroke:#B73DB7;stroke-width:4.25;stroke-linecap:round;stroke-miterlimit:10;}
	.st35{fill:none;stroke:#FFD200;stroke-width:4.25;stroke-miterlimit:10;}
	.st36{fill:none;stroke:#EC1111;stroke-width:4.25;stroke-linecap:round;stroke-miterlimit:10;}
	.st37{fill:none;stroke:#45BFE2;stroke-width:4.25;stroke-linecap:round;stroke-miterlimit:10;}
	
		.st38{opacity:0.75;fill:none;stroke:#45BFE2;stroke-width:4.25;stroke-linecap:round;stroke-miterlimit:10;enable-background:new    ;}
	.st39{fill:#FFFFFF;}
	.st40{font-family:'AdobeSongStd-Light-GBpc-EUC-H';}
	.st41{font-size:18px;}
	
		.st42{opacity:0.75;fill:none;stroke:#EC1111;stroke-width:4.25;stroke-linecap:round;stroke-miterlimit:10;enable-background:new    ;}
	
		.st43{opacity:0.75;fill:none;stroke:#FFD200;stroke-width:4.25;stroke-linecap:round;stroke-miterlimit:10;enable-background:new    ;}
	
		.st44{opacity:0.75;fill:none;stroke:#B73DB7;stroke-width:4.25;stroke-linecap:round;stroke-miterlimit:10;enable-background:new    ;}
	
		.st45{opacity:0.75;fill:none;stroke:#F88C19;stroke-width:4.25;stroke-linecap:round;stroke-miterlimit:10;enable-background:new    ;}
	
		.st46{opacity:0.75;fill:none;stroke:#0E38B4;stroke-width:4.25;stroke-linecap:round;stroke-miterlimit:10;enable-background:new    ;}
	
		.st47{opacity:0.75;fill:none;stroke:#049E62;stroke-width:4.25;stroke-linecap:round;stroke-miterlimit:10;enable-background:new    ;}
	
		.st48{opacity:0.75;fill:none;stroke:#038099;stroke-width:4.25;stroke-linecap:round;stroke-miterlimit:10;enable-background:new    ;}
	.st49{font-family:'SimHei';}
	.st50{fill:none;stroke:#B73DB7;stroke-width:2.83;stroke-linecap:round;stroke-miterlimit:10;}
	.st51{fill:#B73DB7;}
	.st52{opacity:0.75;fill:#B73DB7;enable-background:new    ;}
	.st53{clip-path:url(#SVGID_6_);}
	.st54{opacity:0.74;}
	.st55{fill:#231F20;}
	.st56{opacity:0.44;fill:url(#SVGID_9_);enable-background:new    ;}
	.st57{opacity:0.47;fill:url(#SVGID_10_);enable-background:new    ;}
	.st58{opacity:0.49;fill:#231F20;enable-background:new    ;}
</style>
<pattern  y="685.7" width="72" height="72" patternUnits="userSpaceOnUse" id="SVGID_7_" viewBox="72.3 -72 72 72" style="overflow:visible;">
	<g>
		<rect x="72.3" y="-72" class="st0" width="72" height="72"/>
		<g>
			<rect x="72.3" y="-72" class="st0" width="72" height="72"/>
			<rect x="72.3" y="-72" class="st0" width="72" height="72"/>
			<rect x="72.3" y="-72" class="st0" width="72" height="72"/>
			<polygon class="st0" points="72.3,-72 144.3,-72 144.3,0 72.3,0 			"/>
			<line class="st1" x1="144" y1="-3.6" x2="216.5" y2="-3.6"/>
			<line class="st1" x1="144" y1="-18" x2="216.5" y2="-18"/>
			<line class="st1" x1="144" y1="-32.4" x2="216.5" y2="-32.4"/>
			<line class="st1" x1="144" y1="-46.8" x2="216.5" y2="-46.8"/>
			<line class="st1" x1="144" y1="-61.2" x2="216.5" y2="-61.2"/>
			<line class="st1" x1="144" y1="-10.8" x2="216.5" y2="-10.8"/>
			<line class="st1" x1="144" y1="-25.2" x2="216.5" y2="-25.2"/>
			<line class="st1" x1="144" y1="-39.6" x2="216.5" y2="-39.6"/>
			<line class="st1" x1="144" y1="-54" x2="216.5" y2="-54"/>
			<line class="st1" x1="144" y1="-68.4" x2="216.5" y2="-68.4"/>
			<line class="st1" x1="72" y1="-3.6" x2="144.5" y2="-3.6"/>
			<line class="st1" x1="72" y1="-18" x2="144.5" y2="-18"/>
			<line class="st1" x1="72" y1="-32.4" x2="144.5" y2="-32.4"/>
			<line class="st1" x1="72" y1="-46.8" x2="144.5" y2="-46.8"/>
			<line class="st1" x1="72" y1="-61.2" x2="144.5" y2="-61.2"/>
			<line class="st1" x1="72" y1="-10.8" x2="144.5" y2="-10.8"/>
			<line class="st1" x1="72" y1="-25.2" x2="144.5" y2="-25.2"/>
			<line class="st1" x1="72" y1="-39.6" x2="144.5" y2="-39.6"/>
			<line class="st1" x1="72" y1="-54" x2="144.5" y2="-54"/>
			<line class="st1" x1="72" y1="-68.4" x2="144.5" y2="-68.4"/>
			<line class="st1" x1="0" y1="-3.6" x2="72.5" y2="-3.6"/>
			<line class="st1" x1="0" y1="-18" x2="72.5" y2="-18"/>
			<line class="st1" x1="0" y1="-32.4" x2="72.5" y2="-32.4"/>
			<line class="st1" x1="0" y1="-46.8" x2="72.5" y2="-46.8"/>
			<line class="st1" x1="0" y1="-61.2" x2="72.5" y2="-61.2"/>
			<line class="st1" x1="0" y1="-10.8" x2="72.5" y2="-10.8"/>
			<line class="st1" x1="0" y1="-25.2" x2="72.5" y2="-25.2"/>
			<line class="st1" x1="0" y1="-39.6" x2="72.5" y2="-39.6"/>
			<line class="st1" x1="0" y1="-54" x2="72.5" y2="-54"/>
			<line class="st1" x1="0" y1="-68.4" x2="72.5" y2="-68.4"/>
		</g>
	</g>
</pattern>
<pattern  y="685.7" width="72" height="72" patternUnits="userSpaceOnUse" id="SVGID_8_" viewBox="72.3 -72 72 72" style="overflow:visible;">
	<g>
		<rect x="72.3" y="-72" class="st0" width="72" height="72"/>
		<g>
			<rect x="72.3" y="-72" class="st0" width="72" height="72"/>
			<rect x="72.3" y="-72" class="st0" width="72" height="72"/>
			<rect x="72.3" y="-72" class="st0" width="72" height="72"/>
			<polygon class="st0" points="72.3,-72 144.3,-72 144.3,0 72.3,0 			"/>
			<line class="st1" x1="144" y1="-3.6" x2="216.5" y2="-3.6"/>
			<line class="st1" x1="144" y1="-18" x2="216.5" y2="-18"/>
			<line class="st1" x1="144" y1="-32.4" x2="216.5" y2="-32.4"/>
			<line class="st1" x1="144" y1="-46.8" x2="216.5" y2="-46.8"/>
			<line class="st1" x1="144" y1="-61.2" x2="216.5" y2="-61.2"/>
			<line class="st1" x1="144" y1="-10.8" x2="216.5" y2="-10.8"/>
			<line class="st1" x1="144" y1="-25.2" x2="216.5" y2="-25.2"/>
			<line class="st1" x1="144" y1="-39.6" x2="216.5" y2="-39.6"/>
			<line class="st1" x1="144" y1="-54" x2="216.5" y2="-54"/>
			<line class="st1" x1="144" y1="-68.4" x2="216.5" y2="-68.4"/>
			<line class="st1" x1="72" y1="-3.6" x2="144.5" y2="-3.6"/>
			<line class="st1" x1="72" y1="-18" x2="144.5" y2="-18"/>
			<line class="st1" x1="72" y1="-32.4" x2="144.5" y2="-32.4"/>
			<line class="st1" x1="72" y1="-46.8" x2="144.5" y2="-46.8"/>
			<line class="st1" x1="72" y1="-61.2" x2="144.5" y2="-61.2"/>
			<line class="st1" x1="72" y1="-10.8" x2="144.5" y2="-10.8"/>
			<line class="st1" x1="72" y1="-25.2" x2="144.5" y2="-25.2"/>
			<line class="st1" x1="72" y1="-39.6" x2="144.5" y2="-39.6"/>
			<line class="st1" x1="72" y1="-54" x2="144.5" y2="-54"/>
			<line class="st1" x1="72" y1="-68.4" x2="144.5" y2="-68.4"/>
			<line class="st1" x1="0" y1="-3.6" x2="72.5" y2="-3.6"/>
			<line class="st1" x1="0" y1="-18" x2="72.5" y2="-18"/>
			<line class="st1" x1="0" y1="-32.4" x2="72.5" y2="-32.4"/>
			<line class="st1" x1="0" y1="-46.8" x2="72.5" y2="-46.8"/>
			<line class="st1" x1="0" y1="-61.2" x2="72.5" y2="-61.2"/>
			<line class="st1" x1="0" y1="-10.8" x2="72.5" y2="-10.8"/>
			<line class="st1" x1="0" y1="-25.2" x2="72.5" y2="-25.2"/>
			<line class="st1" x1="0" y1="-39.6" x2="72.5" y2="-39.6"/>
			<line class="st1" x1="0" y1="-54" x2="72.5" y2="-54"/>
			<line class="st1" x1="0" y1="-68.4" x2="72.5" y2="-68.4"/>
		</g>
	</g>
</pattern>
<g id="图层_2" class="st2">
	<rect class="st3" width="644" height="690"/>
</g>
<g id="svg1896">
	<title>separated_chart03</title>
	<g id="layer15" class="st4">
		<path id="path4740-4" class="st5" d="M246.1,144.5l-2.5,0.9l63.3,173.9l2.5-0.9L246.1,144.5z M464.4,191.8L335.5,323.5l1.4,1.4
			c0.1,0.1,0.2,0.1,0.3,0.2l0.3,0.3l128.8-131.7L464.4,191.8z"/>
		<path id="path4648-0" class="st6" d="M241,146.4L312.7,343l-206.1-36.3l-0.5-0.1H106c-0.2,0.9-0.4,1.9-0.5,2.8l0,0
			c0.2-0.1,0.4-0.1,0.6-0.1l210.6,37.1l-73.2-201L241,146.4z"/>
		<path id="path4644-7" class="st7" d="M316.7,346.5l131,169c0.7-0.5,1.4-1.1,2.1-1.6L349.5,384.3l113.6,118.1
			c0.6-0.6,1.3-1.2,1.9-1.9L316.7,346.5z"/>
		<path id="path4656-6" class="st8" d="M466.3,193.7L316.7,346.5l148.2,154.1l1.9-1.9L320.5,346.5l147.7-151L466.3,193.7z
			 M316.7,346.5l73.2,201c0.9-0.3,1.7-0.6,2.5-1l-67.4-185L445.7,517c0.7-0.5,1.4-1.1,2.1-1.6L316.7,346.5z"/>
		<path id="path4660-6" class="st9" d="M316.7,346.5L209.8,531.7l2.3,1.3l104.1-180.3l71.2,195.7c0.9-0.3,1.6-0.6,2.5-0.9
			L316.7,346.5z"/>
		<path id="path4668-1" class="st10" d="M146,217.8l-1.6,2.1l164.5,123.9h-206v2.7h213.9L146,217.8z"/>
		<path id="path4672-5" class="st11" d="M226.3,152.6l-2.4,1.1l87.9,188.6l-200-57.4c-0.3,0.9-0.5,1.7-0.7,2.6l205.6,58.9
			L226.3,152.6z"/>
		<path id="path4444-3-4" class="st5" d="M167.3,345.6c-1.6,0-2.9,1.3-2.9,2.9s1.3,2.9,2.9,2.9c1.6,0,2.9-1.3,2.9-2.9l0,0l0,0
			C170.2,346.9,169,345.6,167.3,345.6L167.3,345.6L167.3,345.6z"/>
	</g>
	<g id="layer13" class="st4">
		<g id="g3752">
			<path id="Antarctica" class="st12" d="M162.9,285c-0.7-0.3-1.3-0.8-1.9-1.3l-1.6-1.3h2.4l0.7,1.4
				C162.9,284.4,163.1,285,162.9,285z M372.9,485.8h-2.7l-1.4-0.9c-0.8-0.5-2.3-1.4-3.4-2.2l-1.9-1.3l-8.2,0.2l-8.2,0.2l-1.3-1.2
				c-1.3-1-2.7-1.8-4.1-2.6l-2.8-1.4l0.3-1c0.2-1.2,0.3-2.4,0.2-3.6l-0.1-2.6l0.7-1.3l0.7-1.3h2l2.1-4.5l2.1-4.5l0.2-2l0.2-2
				l1.6-1.7l1.6-1.7l-0.9-1.9c-0.9-2.2-1.7-4.5-2.4-6.8l-1.6-4.9l-3.5-4.5l-3.5-4.5l1.4-2.3c0.7-1.2,1.5-2.2,2.5-3.2l1.1-0.9
				l-0.5-2.7l-0.5-2.7l-1.3-2.1c-0.6-1-1-2-1.3-3.1c-0.2-1.2-0.7-2.4-1.3-3.5c-1.3-2-2.7-3.8-4.3-5.5c-1.6-1.6-4.5-4.7-6.4-6.8
				l-3.5-3.7l-5.4-2.7l-5.4-2.7l-3.2-3.4c-1.7-1.8-3.5-3.4-5.4-4.9l-2.2-1.6H299l-0.4,1.2l-0.4,1.2l1.3,0.7c1.1,0.8,2.2,1.6,3.2,2.6
				l2,1.9l-0.9,1l-0.9,1l0.9,2.1l0.9,2.1l-0.4,0.4l-0.4,0.4l-1.7-0.5l-1.5-0.8l-1,0.8l-1,0.8v4.6h-0.5c-0.3,0-0.9-0.6-1.4-1.4
				l-0.9-1.4l-1.9,0.2l-1.8,0.2l-1.6,3.1l-1.6,3.1l0.4,2.7l0.4,2.7l-1.2-0.5c-0.8-0.3-1.7-0.5-2.6-0.6l-1.4-0.1l-0.2,1.9l-0.2,1.9
				h-2.4l-1.8,1.9l-1.8,1.9l0.4,2.5l0.4,2.5l1,0.8l1,0.8v3.8l-1,0.4l-1,0.4v2.2l1.7,0.6l1.7,0.6v1c0,0.7-0.2,1.4-0.4,2.1l-0.4,1.1
				h-4.4l-2.1-2.2c-1.1-1.1-2.1-2.4-2.9-3.8l-0.8-1.5l-2.2,0.2l-2.4-0.2l-0.7-0.5l-0.7-0.5l-1.8,1.4l-1.8,1.4v2l-1.5,1.6l-1.5,1.6
				l-2.7-0.1c-1.7-0.1-3.3-0.4-4.9-0.9c-1.2-0.4-3.2-1.1-4.5-1.5l-2.2-0.8l-2.1,0.1c-1.2,0.1-2.4,0-3.6-0.3l-1.5-0.3v-2.8l-2.4-2.8
				c-1.3-1.5-2.8-3.2-3.2-3.7s-1.6-1.5-2.4-2.4s-3.8-4.3-6.4-7.7c-1.8-2.4-3.7-4.6-5.7-6.7l-0.9-0.5v-2.9l-0.9-1.2l-0.9-1.2
				l-1.3-0.3c-0.5-0.1-1.1-0.3-1.6-0.3c0.3-0.7,0.7-1.2,1.3-1.7l1.5-1.6l-0.3-1.3l-0.3-1.3l-1.9,0.2l-1.9,0.2l0.2-1.2l0.2-1.2
				l2.6-0.2l2.6-0.2v-6l-2.1-3.9l-2.1-3.9l0.4-2.3l0.4-2.3h-0.6c-0.6,0.1-1.1,0.5-1.5,0.9l-0.9,0.9l-0.7-1.2l-0.7-1.2h-2.6v2
				l-1.9,1.4l-0.9,3.2l-0.9-2.3l-0.9-2.3h-2l-0.4,1.4c-0.3,1.2-0.4,2.4-0.3,3.6l0.2,2.2l-0.5,0.9c-0.3-0.3-0.7,0.9-1,0.9h-0.4
				l-0.1-3.6c-0.1-2-0.1-4.8-0.1-6.3s0-3.8-0.1-5.1s-0.2-4.7-0.3-7.6l-0.4-6.1l-1.1-1.2l-1.1-1.2l1.3-1.6l1.3-1.6v-2.6l2-6.2
				l3.1-4.4l-0.4-0.9c-0.6-0.9-1.5-1.6-2.4-2.1l-2-1.2v-2l1.7-0.4l1.7-0.4v-0.6c0.3-0.8,0.7-1.4,1.4-1.9l1.4-1.3l-0.3-9.3l-0.3-9.2
				l-0.7-1.4c-0.8-1.2-1.8-2.2-2.9-3.1l-2.1-1.8h-2.9l-2.1-0.5l-0.7-0.7l-0.7-0.7l-5.2-0.6c-2-0.1-4.1-0.5-6-1.1l-0.7-0.5v-3.8
				l-0.8-0.8l-0.8-0.8h-3l-0.4-0.6c-1.1-0.9-2.3-1.6-3.6-2.1l-3.2-1.5l-1.2,0.8l-1.2,0.8l-0.4-0.7l-0.4-0.7l0.7-0.9l0.7-0.9
				l-1.7-1.1l-1.7-1.1l1.1-0.8c-0.2-0.9-0.7-1.7-1.4-2.3c-0.7-0.7-1.2-1.5-1.5-2.4c-0.2-1.1-0.6-2.1-1.1-3.1l-0.9-2.2l-1.4-0.4
				l-1.4-0.4l0.3-1.3l1.6-1.1l-1-4.3c-0.5-2.3,1-4.5,0.7-5l-0.5-1l1.3-4.9c-0.1-1.6,0-3.3,0.1-4.9c0.7,0.9,1.3,1.9,1.8,2.9l1.6,2.9
				l-0.6,1.4l-0.6,1.4l-0.2,3.2c0.6,1.8-0.5,2.7-1,4.2v1.2l2,1.7c1.1,1,1.2,1.9,1.9,2.4l1.3,1l-1,1.9l-1,1.9l1.7,1.5l0.6,1.5l1.5,3
				l1.5,3l2.4,1.3l2.4,1.3l2.6,0.1l2.6,0.1l0.6-1.4l0.6-1.4l4.3,0.1l4.3,0.1l2.2,1.1l2.2,1.1l2.4,1c1.7,0.3,3.4,0.7,5.1,1.2l1.9,0.7
				l0.3,1.2l0.3,1.2l1.7-0.4l1.7-0.4l0.7,1.4l0.7,1.4l-0.4,1.1l-0.4,1.1h1.2l0.8-1.7l0.8-1.7h1.4v3.2l1.1,0.4l1.1,0.4l0.7-0.4
				l0.7-0.4l0.7,1c0.6,0.7,1.4,1.4,2.3,1.8l1.5,0.8v4l1.1,1.7l1.1,1.7h2.4l0.4,2.1c0.3,2.1,0.4,4.3,0.4,6.4v4.3l1.5,1l1.5,1
				l-1.2,3.1l-1.2,3.1l-2.6,1c-1.1,0.4-2.1,0.9-3,1.7l-0.4,0.6l1.2,1.2l1.2,1.2l2.4-0.4c1.3-0.2,3.6-0.7,5.1-1.1l2.6-0.7l0.6-1.6
				l0.6-1.6h2l0.4,1.2l0.4,1.2l-1.2,2.3c-0.7,1.3-1.8,3.2-2.4,4.2l-1.2,1.9l0.4,0.7c0.3,0.4,0.8,0.7,1.3,0.7h0.9l2-2l2-2h2.4v3
				l-2.4,1.9l-2.4,1.9v2h2.8l3.6-1.8c1.3-0.6,2.6-1.3,3.9-2.1c0.2-0.1-0.1-0.6-0.5-1.1c-0.5-0.6-0.8-1.3-0.8-2V330l1-0.8l1-0.8
				l1.1,0.4l1.1,0.4v4h2l0.7-1.4l0.7-1.4h7.4l1.9,0.7l1.9,0.7l0.7-0.7l0.7-0.7l-2.3-1.9l-2.3-1.9l0.3-1.2l0.3-1.2l1.9-0.6l1.9-0.6
				l2.7,0.9l2.7,0.9l2.9-0.7l2.9-0.7l1.1,1l1.1,1h2.4l0.4-0.9l0.4-0.9l-2.4-3.6l-2.4-3.6l-0.4-2.3l-0.4-2.3l0.4-1.7l0.4-1.7h4.8
				v-1.9c-0.1-1.4-0.3-2.8-0.7-4.2l-0.7-2.3l1-3.6l1-3.6l1.4-1.8l1.4-1.8v-4.5l-1.4-2.4l-1.4-2.4h-0.6c-1.4,0.3-2.8,0.6-4.1,1.1
				l-3.5,1.1l-1.3-1.3l-1.3-1.3l-0.1-2.3l-0.1-2.3l1.1-4.4c0.6-2.4,1.4-5.4,1.8-6.5s1.1-3.2,1.5-4.8l0.9-2.7l2.1-2.9l2.1-2.9
				l2.3-1.3c1-0.5,1.9-1.3,2.6-2.2c0.3-1.1,0.6-2.2,0.7-3.4l0.4-2.6l1.1-0.9c1.1-0.9,2.1-1.8,3-2.8l2-2v-2h-1.2
				c-0.7,0-1.4,0.2-2,0.7l-0.7,0.7l-0.7-0.5l-0.7-0.5v-3.2l2.1-1.1l2.1-1.1v-2.4l2-3c0.8-1.1,1.5-2.4,2-3.7
				c-0.1-0.6-0.3-1.1-0.6-1.6l-0.6-0.9l1.4-2.7c0.8-1.4,1.6-2.7,2-2.7s1,1,1.6,2.1l1.1,2.1l1.1-0.2l1.1-0.2l0.4-2
				c0.3-1.2,0.7-2.4,1.2-3.6c0.5-0.9,1.1-1.5,1.4-1.5h0.6l-0.3,1.7l-0.3,1.7l1,0.4l1,0.4l3.3-0.6l3.3-0.6l1.8,1
				c1.1,0.6,2.2,0.9,3.4,1h1.5l0.7-1.4l0.7-1.4l2.9-1.4l2.9-1.4l4.5-0.3l4.5-0.3l1-0.9l1-0.9l3,0.1l3,0.1l1.7,2.2l0.9,1.5h0.9
				c0.7-0.1,1.3-0.5,1.7-1l0.8-1l1.9-0.4l1.9-0.4l2,1l2,1l3.6-0.4l3.6-0.4l2.3,2.3c1.6,1.5,3.2,3,5,4.3l2.7,2l5.9,1
				c2.6,0.5,5.2,0.8,7.8,0.9l2-0.1l2.1,1.1l2.1,1.1l3.8-0.3l3.8-0.3l2.2-1.6l2.2-1.6l0.4,0.4l0.4,0.4l0.1,5.3l0.1,5.3l1.7,2.4
				l1.7,2.3l2-0.4l2-0.4l2.1-1.8l2.1-1.8l1.4,0.4c1.7,0.4,3.5,0.6,5.2,0.8l3.8,0.5l0.9,0.6c1,0.6,2.2,1.1,3.4,1.3
				c1.4,0.4,3.5,0.7,4.6,0.9l2.1,0.2l0.2,1.6c0.1,0.9,0.4,1.8,1,2.5l0.7,0.9h3l0.4-1.4l0.4-1.4l0.8,0.5l0.8,0.5l-0.3,1.2l-0.3,1.2
				l0.6,1.1l0.6,1.1h2l1.1-2c0.6-1.1,1.3-2,1.6-2c1,0.2,2,0.5,2.9,0.8l2.3,0.8l2,1.8c1.1,1.1,2.2,2.3,3,3.7l1,2l-0.5,3.4l-0.5,3.4
				h-3.4l0.5,1.9c0.3,1-0.5,1.8-0.5,3.2l-0.2,4.6l1.3,1.6c0.4,0.7,1.8,2,2.1,3.6l0.5,3.1l1,1.6l1,1.6l-0.2,8.7
				c0.8,2.6,2.4,4.9,4.5,6.7l0.4,0.7l-1.1,0.9l-1.1,0.9l-5.2,0.1c-2.9,0.1-6.3,0.2-7.6,0.3l-2.4,0.2l-0.3,1.3l-0.3,1.3l-1.6,1.3
				l-1.6,1.3v3.2h-6.8v0.6c0,0.4,0.6,1,1.4,1.4l1.4,0.8l6.9,0.2l6.9,0.2l1.3,1.5l1.3,1.5v2.6h0.6c0.4,0,2.1,1.2,3.8,2.7l3.1,2.7h3.4
				l2,1l2,1l1.3,2.6c0.6,1.2,1.4,2.4,2.3,3.4c0.4,0.4,1,0.7,1.6,0.7c0.5-0.1,1-0.1,1.5,0l0.9,0.1l-0.4,2l-0.4,2l1.4,1.8l1.4,1.8
				l-0.4,1l-0.4,1l1.8,3.8l1.8,3.8l-0.4,2.6l-0.4,2.6l1.1,3.3l1.1,3.3l-0.4,2.1l-0.4,2.1l0.6,3l0.6,3l-0.9,1.2l-0.9,1.2l0.3,3.6
				c0.1,1.6,0.4,3.2,1,4.7l0.6,1.2h1c0.6,0,1.1,0.3,1.4,0.7l0.5,0.7l-1.9,1.5l-1.9,1.5l0.8,1.4l0.8,1.4v4.6l-6.1,2.2
				c-2.4,3.4-4.4,8.4-4.6,8.1c-2.4-3.2,0,2.1-0.6,2.7L477,401l0.7,1.3c0.4,0.8,0.7,1.7,0.7,2.6v1.4l1.1,1.1l1.1,1.1l0.3,3.2l0.3,3.2
				l-1,0.8c-1.1,0.7-2.4,1.2-3.7,1.4l-2.7,0.5l-0.3,1.3c-0.2,0.8-0.5,1.5-1,2.2l-0.7,0.9h-3l-2.9,2.5L463,427l-1.3,2.9l-1.3,2.9
				l-0.5,4.3l-0.5,4.3l-1,1.5l-1,1.5l0.2,1.5l0.2,1.5l-1.7,0.5c-1.4,0.3-2.9,0.5-4.3,0.6l-2.6,0.1l-1,1.9l-1,1.9l1,1.9
				c0.5,0.9,0.8,2,1,3v1.2l-2.6,3.4c-1.4,1.9-3.6,4.5-4.9,5.9l-2.3,2.6h-3l-0.4,0.7c-0.2,0.4-2.2,1.4-4.3,2.4s-5.3,2.5-7.1,3.4
				c-1.3,0.7-2.6,1.2-4,1.6c-0.7,0.1-1.4,0.4-2,0.9c-1.2,0.8-2.4,1.4-3.8,1.7l-2.7,0.8l-0.8-1.1l-0.8-1.1l-4,0.2l-4,0.2l-1.1-0.5
				l-1.1-0.5l-2.9,1.5l-2.9,1.5l-1.6-0.9l-1.6-0.9l-2.1,0.9l-2.1,0.9l-1,1.3l-1,1.3l-1.4-0.7c-0.8-0.4-1.8-0.7-2.7-0.7
				c-1.1,0.2-2.3,0.5-3.3,1l-2,1L372.9,485.8L372.9,485.8z M188.1,310.4c-0.6,0.2-1.1,0.3-1.2,0.2c-0.2-0.9-0.2-1.8-0.2-2.7
				l-0.2-2.5l-1.2-1.2l-1.2-1.2l0.2-1.8l0.2-1.8l-2.2-0.2l-2.2-0.2v-2.6h-0.6c-0.6,0.2-1.1,0.6-1.5,1.1l-0.9,1.1l-2.7-0.4l-2.7-0.4
				l-1.1-1.1l-1.1-1.1l0.8-1l0.8-1l6.7,0.3l6.7,0.3l3.9,1.1l3.9,1.1l2.1,2.1l2.1,2.1v1.6c0,1-0.3,2.1-0.7,3c-0.4,0.8-1,1.3-1.4,1.3
				h-0.6l0.2-1.9l0.2-1.9l-1.9-0.2l-1.9-0.2l-0.9,0.7l-0.9,0.7l-0.3,1.8l-0.3,1.8l1,0.4l1,0.4v1c0,0.5-0.1,1-0.3,1
				C189.1,310.1,188.6,310.2,188.1,310.4L188.1,310.4z M264.3,306.2h-1.1l-1.1-3.8l-2.4-4.1l-3.4-3.3l-3.4-3.3l-0.7-2.1l-0.7-2.1
				l1.6-1.1l1.6-1.1l1.6,0.2l1.6,0.2l0.2,1.5l0.2,1.5h2.6l0.4,0.7c0.6,0.6,1.3,1,2.1,1.3l1.6,0.6l1.1,2.3l1.1,2.3L267,301l-1.5,4.8
				L264.3,306.2L264.3,306.2z M161.5,243.9h-0.9l0.5-0.5l0.5-0.5l0.5,0.5l0.5,0.5H161.5z M335.9,434.7l-1.3,0.1l0.4-0.4l0.4-0.4
				l0.9,0.4l0.9,0.4L335.9,434.7z M157.1,240.5c-0.2,0-0.3-0.1-0.3-0.3s0.1-0.3,0.3-0.3s0.3,0.1,0.3,0.3
				C157.4,240.3,157.2,240.5,157.1,240.5L157.1,240.5z M292.4,422.3c-0.6,0.1-1.3,0-1.5-0.3l-0.5-0.5v-6.2l1.7,2l1.7,2l-0.2,1.3
				l-0.2,1.3L292.4,422.3L292.4,422.3z M219.4,418c-0.4-0.1-0.8-0.4-1.1-0.8l-0.5-0.8l1.3-0.9c0.7-0.5,1.3-0.9,1.4-0.7
				c0.1,0.6,0,1.2-0.2,1.7l-0.4,1.5L219.4,418z M220.8,412.5h-0.9l0.5-0.5l0.5-0.5l0.5,0.5l0.5,0.5H220.8z M217.4,408.4
				c-0.4,0-0.7-0.2-0.9-0.5c-0.3-0.8-0.6-1.6-0.7-2.4l-0.4-1.9h2.6l1.1,1.1c0.6,0.5,1,1.2,1.1,2v0.9l-1.1,0.4
				C218.5,408.2,218,408.3,217.4,408.4L217.4,408.4z M188.8,370.7l-0.5,0.9l-0.5-0.5l-0.5-0.5v-8l0.7-1.3l0.7-1.3l0.7,0.4l2.9,0.4
				l-2.6,4.5C191.7,368.3,189.1,370.2,188.8,370.7L188.8,370.7z M245.1,321.3c-0.2,0.2-1.1-0.3-2.1-1.1l-1.8-1.4v-2h0.6
				c0.4,0,1.3,1,2.1,2.1C244.5,319.6,244.9,320.4,245.1,321.3L245.1,321.3z M197.7,315.5c-0.6,0-1.1-0.3-1.4-0.7l-0.4-0.7l0.4-0.4
				l0.4-0.4l1.1,0.4l1.1,0.4v1.4L197.7,315.5z M256.8,314.8c-0.4,0-0.7-0.3-0.7-0.7s0.3-0.7,0.7-0.7s0.7,0.3,0.7,0.7
				S257.2,314.8,256.8,314.8L256.8,314.8L256.8,314.8z M173.4,308.3l-0.7,0.4v-1.1c0-0.6,0.2-1.1,0.3-1.1c0.3,0.1,0.5,0.3,0.7,0.6
				l0.4,0.6L173.4,308.3z M144.9,252l0.3-1.9l1.9-3.7l1.1,2.1L144.9,252z M147.6,239.3l-1.6,2.1l1.3,4.3v-3.5l1.1-1.6L147.6,239.3z
				 M159,282.1l7.2,7.4l2.7-0.5h-0.3l-0.8-2.1l-4.3-3.5l-1.9-1.9L159,282.1z M159,241.1l-3.2-1.6l1.9-2.7l2.9,2.4L159,241.1z
				 M148.1,229.7l0.5-2.4l-2.4,1.8L148.1,229.7z M172,195.9c-2.7,3.2-1.6,4.5-1.6,4.5l3.2-3.7L172,195.9z M194.1,319.6l2.9,0.3
				l1.1-2.9l-4.3,0.3L194.1,319.6z M496,373.1l0.5-5.3l3.7,1.1h-5.3L496,373.1z M165.6,262.4l3.2,6.4l2.1-4.3L165.6,262.4z
				 M309.8,203.3l-0.5,3.2l2.7-0.5L309.8,203.3z M178.9,304.4l-3.7,0.5l1.6,5.3L178.9,304.4z"/>
			<g>
				<g>
					<defs>
						<polygon id="SVGID_1_" points="234.6,487.7 106.9,460.1 102.9,346.7 315.9,346.7 						"/>
					</defs>
					<clipPath id="SVGID_2_">
						<use xlink:href="#SVGID_1_"  style="overflow:visible;"/>
					</clipPath>
					<g class="st13">
						<path id="Antarctica-2" class="st14" d="M162.9,285c-0.7-0.3-1.3-0.8-1.9-1.3l-1.6-1.3h2.4l0.7,1.4
							C162.9,284.4,163.1,285,162.9,285z M372.9,485.8h-2.7l-1.4-0.9c-0.8-0.5-2.3-1.4-3.4-2.2l-1.9-1.3l-8.2,0.2l-8.2,0.2l-1.3-1.2
							c-1.3-1-2.7-1.8-4.1-2.6l-2.8-1.4l0.3-1c0.2-1.2,0.3-2.4,0.2-3.6l-0.1-2.6l0.7-1.3l0.7-1.3h2l2.1-4.5l2.1-4.5l0.2-2l0.2-2
							l1.6-1.7l1.6-1.7l-0.9-1.9c-0.9-2.2-1.7-4.5-2.4-6.8l-1.6-4.9l-3.5-4.5l-3.5-4.5l1.4-2.3c0.7-1.2,1.5-2.2,2.5-3.2l1.1-0.9
							l-0.5-2.7l-0.5-2.7l-1.3-2.1c-0.6-1-1-2-1.3-3.1c-0.2-1.2-0.7-2.4-1.3-3.5c-1.3-2-2.7-3.8-4.3-5.5c-1.6-1.6-4.5-4.7-6.4-6.8
							l-3.5-3.7l-5.4-2.7l-5.4-2.7l-3.2-3.4c-1.7-1.8-3.5-3.4-5.4-4.9l-2.2-1.6H299l-0.4,1.2l-0.4,1.2l1.3,0.7
							c1.1,0.8,2.2,1.6,3.2,2.6l2,1.9l-0.9,1l-0.9,1l0.9,2.1l0.9,2.1l-0.4,0.4l-0.4,0.4l-1.7-0.5l-1.5-0.8l-1,0.8l-1,0.8v4.6h-0.5
							c-0.3,0-0.9-0.6-1.4-1.4l-0.9-1.4l-1.9,0.2l-1.8,0.2l-1.6,3.1l-1.6,3.1l0.4,2.7l0.4,2.7l-1.2-0.5c-0.8-0.3-1.7-0.5-2.6-0.6
							l-1.4-0.1l-0.2,1.9l-0.2,1.9h-2.4l-1.8,1.9l-1.8,1.9l0.4,2.5l0.4,2.5l1,0.8l1,0.8v3.8l-1,0.4l-1,0.4v2.2l1.7,0.6l1.7,0.6v1
							c0,0.7-0.2,1.4-0.4,2.1l-0.4,1.1h-4.4l-2.1-2.2c-1.1-1.1-2.1-2.4-2.9-3.8l-0.8-1.5l-2.2,0.2l-2.4-0.2l-0.7-0.5l-0.7-0.5
							l-1.8,1.4l-1.8,1.4v2l-1.5,1.6l-1.5,1.6l-2.7-0.1c-1.7-0.1-3.3-0.4-4.9-0.9c-1.2-0.4-3.2-1.1-4.5-1.5l-2.2-0.8l-2.1,0.1
							c-1.2,0.1-2.4,0-3.6-0.3l-1.5-0.3v-2.8l-2.4-2.8c-1.3-1.5-2.8-3.2-3.2-3.7s-1.6-1.5-2.4-2.4s-3.8-4.3-6.4-7.7
							c-1.8-2.4-3.7-4.6-5.7-6.7l-0.9-0.5v-2.9l-0.9-1.2l-0.9-1.2l-1.3-0.3c-0.5-0.1-1.1-0.3-1.6-0.3c0.3-0.7,0.7-1.2,1.3-1.7
							l1.5-1.6l-0.3-1.3l-0.3-1.3l-1.9,0.2l-1.9,0.2l0.2-1.2l0.2-1.2l2.6-0.2l2.6-0.2v-6l-2.1-3.9l-2.1-3.9l0.4-2.3l0.4-2.3h-0.6
							c-0.6,0.1-1.1,0.5-1.5,0.9l-0.9,0.9l-0.7-1.2l-0.7-1.2h-2.6v2l-1.9,1.4l-0.9,3.2l-0.9-2.3l-0.9-2.3h-2l-0.4,1.4
							c-0.3,1.2-0.4,2.4-0.3,3.6l0.2,2.2l-0.5,0.9c-0.3-0.3-0.7,0.9-1,0.9h-0.4l-0.1-3.6c-0.1-2-0.1-4.8-0.1-6.3s0-3.8-0.1-5.1
							s-0.2-4.7-0.3-7.6l-0.4-6.1l-1.1-1.2l-1.1-1.2l1.3-1.6l1.3-1.6v-2.6l2-6.2l3.1-4.4l-0.4-0.9c-0.6-0.9-1.5-1.6-2.4-2.1l-2-1.2
							v-2l1.7-0.4l1.7-0.4v-0.6c0.3-0.8,0.7-1.4,1.4-1.9l1.4-1.3l-0.3-9.3l-0.3-9.2l-0.7-1.4c-0.8-1.2-1.8-2.2-2.9-3.1l-2.1-1.8
							h-2.9l-2.1-0.5l-0.7-0.7l-0.7-0.7l-5.2-0.6c-2-0.1-4.1-0.5-6-1.1l-0.7-0.5v-3.8l-0.8-0.8l-0.8-0.8h-3l-0.4-0.6
							c-1.1-0.9-2.3-1.6-3.6-2.1l-3.2-1.5l-1.2,0.8l-1.2,0.8l-0.4-0.7l-0.4-0.7l0.7-0.9l0.7-0.9l-1.7-1.1l-1.7-1.1l1.1-0.8
							c-0.2-0.9-0.7-1.7-1.4-2.3c-0.7-0.7-1.2-1.5-1.5-2.4c-0.2-1.1-0.6-2.1-1.1-3.1l-0.9-2.2l-1.4-0.4l-1.4-0.4l0.3-1.3l1.6-1.1
							l-1-4.3c-0.5-2.3,1-4.5,0.7-5l-0.5-1l1.3-4.9c-0.1-1.6,0-3.3,0.1-4.9c0.7,0.9,1.3,1.9,1.8,2.9l1.6,2.9l-0.6,1.4l-0.6,1.4
							l-0.2,3.2c0.6,1.8-0.5,2.7-1,4.2v1.2l2,1.7c1.1,1,1.2,1.9,1.9,2.4l1.3,1l-1,1.9l-1,1.9l1.7,1.5l0.6,1.5l1.5,3l1.5,3l2.4,1.3
							l2.4,1.3l2.6,0.1l2.6,0.1l0.6-1.4l0.6-1.4l4.3,0.1l4.3,0.1l2.2,1.1l2.2,1.1l2.4,1c1.7,0.3,3.4,0.7,5.1,1.2l1.9,0.7l0.3,1.2
							l0.3,1.2l1.7-0.4l1.7-0.4l0.7,1.4l0.7,1.4l-0.4,1.1l-0.4,1.1h1.2l0.8-1.7l0.8-1.7h1.4v3.2l1.1,0.4l1.1,0.4l0.7-0.4l0.7-0.4
							l0.7,1c0.6,0.7,1.4,1.4,2.3,1.8l1.5,0.8v4l1.1,1.7l1.1,1.7h2.4l0.4,2.1c0.3,2.1,0.4,4.3,0.4,6.4v4.3l1.5,1l1.5,1l-1.2,3.1
							l-1.2,3.1l-2.6,1c-1.1,0.4-2.1,0.9-3,1.7l-0.4,0.6l1.2,1.2l1.2,1.2l2.4-0.4c1.3-0.2,3.6-0.7,5.1-1.1l2.6-0.7l0.6-1.6l0.6-1.6
							h2l0.4,1.2l0.4,1.2l-1.2,2.3c-0.7,1.3-1.8,3.2-2.4,4.2l-1.2,1.9l0.4,0.7c0.3,0.4,0.8,0.7,1.3,0.7h0.9l2-2l2-2h2.4v3l-2.4,1.9
							l-2.4,1.9v2h2.8l3.6-1.8c1.3-0.6,2.6-1.3,3.9-2.1c0.2-0.1-0.1-0.6-0.5-1.1c-0.5-0.6-0.8-1.3-0.8-2V330l1-0.8l1-0.8l1.1,0.4
							l1.1,0.4v4h2l0.7-1.4l0.7-1.4h7.4l1.9,0.7l1.9,0.7l0.7-0.7l0.7-0.7l-2.3-1.9l-2.3-1.9l0.3-1.2l0.3-1.2l1.9-0.6l1.9-0.6
							l2.7,0.9l2.7,0.9l2.9-0.7l2.9-0.7l1.1,1l1.1,1h2.4l0.4-0.9l0.4-0.9l-2.4-3.6l-2.4-3.6l-0.4-2.3l-0.4-2.3l0.4-1.7l0.4-1.7h4.8
							v-1.9c-0.1-1.4-0.3-2.8-0.7-4.2l-0.7-2.3l1-3.6l1-3.6l1.4-1.8l1.4-1.8v-4.5l-1.4-2.4l-1.4-2.4h-0.6c-1.4,0.3-2.8,0.6-4.1,1.1
							l-3.5,1.1l-1.3-1.3l-1.3-1.3l-0.1-2.3l-0.1-2.3l1.1-4.4c0.6-2.4,1.4-5.4,1.8-6.5s1.1-3.2,1.5-4.8l0.9-2.7l2.1-2.9l2.1-2.9
							l2.3-1.3c1-0.5,1.9-1.3,2.6-2.2c0.3-1.1,0.6-2.2,0.7-3.4l0.4-2.6l1.1-0.9c1.1-0.9,2.1-1.8,3-2.8l2-2v-2h-1.2
							c-0.7,0-1.4,0.2-2,0.7l-0.7,0.7l-0.7-0.5l-0.7-0.5v-3.2l2.1-1.1l2.1-1.1v-2.4l2-3c0.8-1.1,1.5-2.4,2-3.7
							c-0.1-0.6-0.3-1.1-0.6-1.6l-0.6-0.9l1.4-2.7c0.8-1.4,1.6-2.7,2-2.7s1,1,1.6,2.1l1.1,2.1l1.1-0.2l1.1-0.2l0.4-2
							c0.3-1.2,0.7-2.4,1.2-3.6c0.5-0.9,1.1-1.5,1.4-1.5h0.6l-0.3,1.7l-0.3,1.7l1,0.4l1,0.4l3.3-0.6l3.3-0.6l1.8,1
							c1.1,0.6,2.2,0.9,3.4,1h1.5l0.7-1.4l0.7-1.4l2.9-1.4l2.9-1.4l4.5-0.3l4.5-0.3l1-0.9l1-0.9l3,0.1l3,0.1l1.7,2.2l0.9,1.5h0.9
							c0.7-0.1,1.3-0.5,1.7-1l0.8-1l1.9-0.4l1.9-0.4l2,1l2,1l3.6-0.4l3.6-0.4l2.3,2.3c1.6,1.5,3.2,3,5,4.3l2.7,2l5.9,1
							c2.6,0.5,5.2,0.8,7.8,0.9l2-0.1l2.1,1.1l2.1,1.1l3.8-0.3l3.8-0.3l2.2-1.6l2.2-1.6l0.4,0.4l0.4,0.4l0.1,5.3l0.1,5.3l1.7,2.4
							l1.7,2.3l2-0.4l2-0.4l2.1-1.8l2.1-1.8l1.4,0.4c1.7,0.4,3.5,0.6,5.2,0.8l3.8,0.5l0.9,0.6c1,0.6,2.2,1.1,3.4,1.3
							c1.4,0.4,3.5,0.7,4.6,0.9l2.1,0.2l0.2,1.6c0.1,0.9,0.4,1.8,1,2.5l0.7,0.9h3l0.4-1.4l0.4-1.4l0.8,0.5l0.8,0.5l-0.3,1.2
							l-0.3,1.2l0.6,1.1l0.6,1.1h2l1.1-2c0.6-1.1,1.3-2,1.6-2c1,0.2,2,0.5,2.9,0.8l2.3,0.8l2,1.8c1.1,1.1,2.2,2.3,3,3.7l1,2
							l-0.5,3.4l-0.5,3.4h-3.4l0.5,1.9c0.3,1-0.5,1.8-0.5,3.2l-0.2,4.6l1.3,1.6c0.4,0.7,1.8,2,2.1,3.6l0.5,3.1l1,1.6l1,1.6l-0.2,8.7
							c0.8,2.6,2.4,4.9,4.5,6.7l0.4,0.7l-1.1,0.9l-1.1,0.9l-5.2,0.1c-2.9,0.1-6.3,0.2-7.6,0.3l-2.4,0.2l-0.3,1.3l-0.3,1.3l-1.6,1.3
							l-1.6,1.3v3.2h-6.8v0.6c0,0.4,0.6,1,1.4,1.4l1.4,0.8l6.9,0.2l6.9,0.2l1.3,1.5l1.3,1.5v2.6h0.6c0.4,0,2.1,1.2,3.8,2.7l3.1,2.7
							h3.4l2,1l2,1l1.3,2.6c0.6,1.2,1.4,2.4,2.3,3.4c0.4,0.4,1,0.7,1.6,0.7c0.5-0.1,1-0.1,1.5,0l0.9,0.1l-0.4,2l-0.4,2l1.4,1.8
							l1.4,1.8l-0.4,1l-0.4,1l1.8,3.8l1.8,3.8l-0.4,2.6l-0.4,2.6l1.1,3.3l1.1,3.3l-0.4,2.1l-0.4,2.1l0.6,3l0.6,3l-0.9,1.2l-0.9,1.2
							l0.3,3.6c0.1,1.6,0.4,3.2,1,4.7l0.6,1.2h1c0.6,0,1.1,0.3,1.4,0.7l0.5,0.7l-1.9,1.5l-1.9,1.5l0.8,1.4l0.8,1.4v4.6l-6.1,2.2
							c-2.4,3.4-4.4,8.4-4.6,8.1c-2.4-3.2,0,2.1-0.6,2.7L477,401l0.7,1.3c0.4,0.8,0.7,1.7,0.7,2.6v1.4l1.1,1.1l1.1,1.1l0.3,3.2
							l0.3,3.2l-1,0.8c-1.1,0.7-2.4,1.2-3.7,1.4l-2.7,0.5l-0.3,1.3c-0.2,0.8-0.5,1.5-1,2.2l-0.7,0.9h-3l-2.9,2.5L463,427l-1.3,2.9
							l-1.3,2.9l-0.5,4.3l-0.5,4.3l-1,1.5l-1,1.5l0.2,1.5l0.2,1.5l-1.7,0.5c-1.4,0.3-2.9,0.5-4.3,0.6l-2.6,0.1l-1,1.9l-1,1.9l1,1.9
							c0.5,0.9,0.8,2,1,3v1.2l-2.6,3.4c-1.4,1.9-3.6,4.5-4.9,5.9l-2.3,2.6h-3l-0.4,0.7c-0.2,0.4-2.2,1.4-4.3,2.4s-5.3,2.5-7.1,3.4
							c-1.3,0.7-2.6,1.2-4,1.6c-0.7,0.1-1.4,0.4-2,0.9c-1.2,0.8-2.4,1.4-3.8,1.7l-2.7,0.8l-0.8-1.1l-0.8-1.1l-4,0.2l-4,0.2l-1.1-0.5
							l-1.1-0.5l-2.9,1.5l-2.9,1.5l-1.6-0.9l-1.6-0.9l-2.1,0.9l-2.1,0.9l-1,1.3l-1,1.3l-1.4-0.7c-0.8-0.4-1.8-0.7-2.7-0.7
							c-1.1,0.2-2.3,0.5-3.3,1l-2,1L372.9,485.8L372.9,485.8z M188.1,310.4c-0.6,0.2-1.1,0.3-1.2,0.2c-0.2-0.9-0.2-1.8-0.2-2.7
							l-0.2-2.5l-1.2-1.2l-1.2-1.2l0.2-1.8l0.2-1.8l-2.2-0.2l-2.2-0.2v-2.6h-0.6c-0.6,0.2-1.1,0.6-1.5,1.1l-0.9,1.1l-2.7-0.4
							l-2.7-0.4l-1.1-1.1l-1.1-1.1l0.8-1l0.8-1l6.7,0.3l6.7,0.3l3.9,1.1l3.9,1.1l2.1,2.1l2.1,2.1v1.6c0,1-0.3,2.1-0.7,3
							c-0.4,0.8-1,1.3-1.4,1.3h-0.6l0.2-1.9l0.2-1.9l-1.9-0.2l-1.9-0.2l-0.9,0.7l-0.9,0.7l-0.3,1.8l-0.3,1.8l1,0.4l1,0.4v1
							c0,0.5-0.1,1-0.3,1C189.1,310.1,188.6,310.2,188.1,310.4L188.1,310.4z M264.3,306.2h-1.1l-1.1-3.8l-2.4-4.1l-3.4-3.3l-3.4-3.3
							l-0.7-2.1l-0.7-2.1l1.6-1.1l1.6-1.1l1.6,0.2l1.6,0.2l0.2,1.5l0.2,1.5h2.6l0.4,0.7c0.6,0.6,1.3,1,2.1,1.3l1.6,0.6l1.1,2.3
							l1.1,2.3L267,301l-1.5,4.8L264.3,306.2L264.3,306.2z M161.5,243.9h-0.9l0.5-0.5l0.5-0.5l0.5,0.5l0.5,0.5H161.5z M335.9,434.7
							l-1.3,0.1l0.4-0.4l0.4-0.4l0.9,0.4l0.9,0.4L335.9,434.7z M157.1,240.5c-0.2,0-0.3-0.1-0.3-0.3s0.1-0.3,0.3-0.3
							s0.3,0.1,0.3,0.3C157.4,240.3,157.2,240.5,157.1,240.5L157.1,240.5z M292.4,422.3c-0.6,0.1-1.3,0-1.5-0.3l-0.5-0.5v-6.2l1.7,2
							l1.7,2l-0.2,1.3l-0.2,1.3L292.4,422.3L292.4,422.3z M219.4,418c-0.4-0.1-0.8-0.4-1.1-0.8l-0.5-0.8l1.3-0.9
							c0.7-0.5,1.3-0.9,1.4-0.7c0.1,0.6,0,1.2-0.2,1.7l-0.4,1.5L219.4,418z M220.8,412.5h-0.9l0.5-0.5l0.5-0.5l0.5,0.5l0.5,0.5
							H220.8z M217.4,408.4c-0.4,0-0.7-0.2-0.9-0.5c-0.3-0.8-0.6-1.6-0.7-2.4l-0.4-1.9h2.6l1.1,1.1c0.6,0.5,1,1.2,1.1,2v0.9
							l-1.1,0.4C218.5,408.2,218,408.3,217.4,408.4L217.4,408.4z M188.8,370.7l-0.5,0.9l-0.5-0.5l-0.5-0.5v-8l0.7-1.3l0.7-1.3
							l0.7,0.4l2.9,0.4l-2.6,4.5C191.7,368.3,189.1,370.2,188.8,370.7L188.8,370.7z M245.1,321.3c-0.2,0.2-1.1-0.3-2.1-1.1l-1.8-1.4
							v-2h0.6c0.4,0,1.3,1,2.1,2.1C244.5,319.6,244.9,320.4,245.1,321.3L245.1,321.3z M197.7,315.5c-0.6,0-1.1-0.3-1.4-0.7l-0.4-0.7
							l0.4-0.4l0.4-0.4l1.1,0.4l1.1,0.4v1.4L197.7,315.5z M256.8,314.8c-0.4,0-0.7-0.3-0.7-0.7s0.3-0.7,0.7-0.7s0.7,0.3,0.7,0.7
							S257.2,314.8,256.8,314.8L256.8,314.8L256.8,314.8z M173.4,308.3l-0.7,0.4v-1.1c0-0.6,0.2-1.1,0.3-1.1
							c0.3,0.1,0.5,0.3,0.7,0.6l0.4,0.6L173.4,308.3z M144.9,252l0.3-1.9l1.9-3.7l1.1,2.1L144.9,252z M147.6,239.3l-1.6,2.1l1.3,4.3
							v-3.5l1.1-1.6L147.6,239.3z M159,282.1l7.2,7.4l2.7-0.5h-0.3l-0.8-2.1l-4.3-3.5l-1.9-1.9L159,282.1z M159,241.1l-3.2-1.6
							l1.9-2.7l2.9,2.4L159,241.1z M148.1,229.7l0.5-2.4l-2.4,1.8L148.1,229.7z M172,195.9c-2.7,3.2-1.6,4.5-1.6,4.5l3.2-3.7
							L172,195.9z M194.1,319.6l2.9,0.3l1.1-2.9l-4.3,0.3L194.1,319.6z M496,373.1l0.5-5.3l3.7,1.1h-5.3L496,373.1z M165.6,262.4
							l3.2,6.4l2.1-4.3L165.6,262.4z M309.8,203.3l-0.5,3.2l2.7-0.5L309.8,203.3z M178.9,304.4l-3.7,0.5l1.6,5.3L178.9,304.4z"/>
					</g>
				</g>
			</g>
			<g>
				<g>
					<defs>
						<polygon id="SVGID_3_" points="208.9,531.8 208.9,531.8 101.8,346.7 103.4,346.7 315.9,346.7 						"/>
					</defs>
					<clipPath id="SVGID_4_">
						<use xlink:href="#SVGID_3_"  style="overflow:visible;"/>
					</clipPath>
					<g class="st15">
						<g class="st16">
							<path class="st17" d="M310.7,349.8L206.3,530.3l-12.6,22.1L61.1,350l42.3-0.2H310.7 M315.9,346.7H103.4L55.5,347l138.3,211.2
								l15.1-26.4L315.9,346.7L315.9,346.7z"/>
						</g>
					</g>
				</g>
			</g>
			<polygon class="st0" points="234.6,487.7 106.9,460.1 102.9,346.7 315.9,346.7 			"/>
			<path id="Peter-I-Island" class="st18" d="M168.2,348.4c0,0.3-0.2,0.6-0.4,0.8c-0.3,0.2-0.6,0.2-0.9,0c-0.3-0.2-0.4-0.5-0.4-0.8
				s0.2-0.6,0.4-0.8c0.3-0.2,0.6-0.2,0.9,0C168,347.8,168.2,348.1,168.2,348.4z"/>
			<path id="Americas" class="st19" d="M159,144.8l4.8-2.9h5.3l1.1,0.8v2.4l-3-1.3H164L159,144.8z M206.6,132.3l-1.6,0.3v0.8
				L206.6,132.3z M210.9,136v1.3l1.9-0.5L210.9,136z M215.1,140.3h-1.9l0.5,0.8L215.1,140.3z M216.5,144.6l1.6-1.3l0.3,1.6
				L216.5,144.6z M217.5,150.7l-2.1,1.6l2.4-0.3L217.5,150.7z M218.3,147.7l1.3,1.1L218.3,147.7z M208.5,133.9l-0.8,1.6h1.3
				L208.5,133.9z"/>
		</g>
	</g>
	<g id="layer11" class="st4">
		<path id="path4740-0" class="st20" d="M309.8,203.3l-0.5,3.2l2.7-0.5L309.8,203.3z M334.6,204.6l-1,0.9l-1,0.9l-4.5,0.3l-4.5,0.4
			l-2.9,1.4l-2.9,1.5l-0.7,1.4l-0.7,1.3h-1.5c-1.2-0.1-2.4-0.4-3.4-1l-1.8-1l-3.3,0.6l-3.3,0.6l-1-0.4l-1-0.4l0.3-1.7l0.3-1.7h-0.5
			c-0.3,0-1,0.7-1.4,1.5c-0.6,1.1-1,2.3-1.2,3.6l-0.4,2l-1.1,0.2l-1.1,0.2l-1.1-2.1c-0.6-1.2-1.3-2.1-1.6-2.1s-1.2,1.2-2,2.7
			l-1.4,2.7l0.6,0.9c0.3,0.5,0.5,1,0.6,1.6c-0.5,1.3-1.1,2.6-2,3.7l-2,3v2.4l-2,1.1l-2.1,1.1v3.2l0.7,0.4l0.7,0.5l0.7-0.7
			c0.6-0.5,1.3-0.7,2-0.7h1.2v2l-2,2c-1.1,1.1-2.4,2.3-3,2.8l-1.1,0.9l-0.4,2.6c-0.1,1.2-0.4,2.3-0.7,3.4c-0.1,0.2-0.3,0.4-0.5,0.7
			l26.2,72.1c1.2,0.5,2,2,4.1,1.5c3-0.7,1.9-3.8,5.1-3.9s2.1,3.1,5.2,3.6s3.2-2.8,6.1-1.6s0.8,3.7,3.4,5.4s4-1.3,6.3,0.8l0.3,0.3
			l92.1-94.1c-0.6-0.2-1.2-0.5-1.7-0.8l-0.9-0.6l-3.8-0.5c-1.8-0.2-3.5-0.5-5.2-0.9l-1.4-0.4l-2.1,1.8l-2.1,1.8l-2,0.4l-2,0.4
			l-1.7-2.3l-1.7-2.3l-0.1-5.3l-0.1-5.3l-0.4-0.4l-0.4-0.4l-2.2,1.6l-2.2,1.6l-3.8,0.3l-3.8,0.3l-2.1-1.1l-2.1-1.1l-2,0.1
			c-2.6-0.1-5.2-0.4-7.8-0.9l-5.9-1l-2.7-2c-1.8-1.3-3.4-2.8-5-4.3l-2.3-2.3l-3.6,0.4l-3.6,0.4l-2-1l-2-1l-1.9,0.4l-1.9,0.4l-0.8,1
			c-0.4,0.5-1,0.9-1.7,1h-0.7l-1.7-2.2l-1.7-2.2l-3-0.1L334.6,204.6L334.6,204.6z"/>
		<path id="path4648-2" class="st21" d="M172,195.9c-2.7,3.2-1.6,4.5-1.6,4.5l3.2-3.7L172,195.9z M148.6,227.3l-2.4,1.8l1.9,0.5
			L148.6,227.3z M157.7,236.9l-1.9,2.7l1,0.5c-0.1,0.1-0.1,0.1-0.1,0.2c0,0.2,0.1,0.3,0.3,0.4c0.1,0,0.3-0.1,0.3-0.2l1.6,0.8
			l1.6-1.9L157.7,236.9L157.7,236.9z M147.6,239.3l-1.6,2.1l1.3,4.3v-3.5l1.1-1.6L147.6,239.3z M156.5,241.9
			c-0.1,1.6-0.2,3.3-0.1,4.9l-1.3,4.9l0.5,1c0.3,0.6-1.2,2.7-0.7,5l1,4.3l-1.7,1l-0.3,1.3l1.3,0.4l1.4,0.4l0.9,2.2
			c0.4,1,0.8,2,1.1,3.1c0.3,0.9,0.9,1.7,1.5,2.4c0.6,0.6,1.1,1.4,1.4,2.3l-1.1,0.8l1.8,1.1l1.7,1.1l-0.7,0.9l-0.7,0.9l0.4,0.7
			l0.4,0.7l1.2-0.8l1.2-0.7l3.2,1.5c1.8,0.9,3.4,1.8,3.6,2.2l0.4,0.6h3l0.9,0.8l0.8,0.9v3.8l0.7,0.5c0.4,0.3,3.1,0.7,6,1.1l5.2,0.6
			l0.7,0.7l0.7,0.7l2.1,0.5h2.9l2.1,1.8c1.1,0.9,2.1,2,2.9,3.1l0.7,1.4l0.3,9.3l0.3,9.2l-1.4,1.3c-0.7,0.7-1.4,1.5-1.4,1.9v0.6
			l-1.7,0.4l-1.7,0.4v2l0.2,0.1l32.4,5.7l0.7-1c0.9-1.3,1.7-2.7,2.4-4.2l1.2-2.3l-0.4-1.2l-0.4-1.2h-2l-0.6,1.6l-0.6,1.6l-2.6,0.7
			c-1.7,0.5-3.4,0.8-5.1,1.1l-2.4,0.4l-1.2-1.2l-1.2-1.2l0.4-0.6c0.9-0.8,1.9-1.3,3-1.7l2.6-1l1.2-3.1l1.2-3.1l-1.5-1l-1.5-1v-4.3
			c0-2.1-0.1-4.3-0.4-6.4l-0.4-2.1h-2.4l-1.1-1.7l-1.1-1.7v-4l-1.5-0.8c-0.9-0.4-1.7-1.1-2.3-1.8l-0.7-1l-0.7,0.4l-0.7,0.4l-1.1-0.4
			l-1.1-0.4v-3.2h-1.4l-0.8,1.7l-0.8,1.7h-1.2l0.4-1.1l0.4-1.1l-0.7-1.4l-0.7-1.4l-1.7,0.4l-1.7,0.4l-0.3-1.2l-0.3-1.2l-1.9-0.7
			c-1.6-0.6-3.4-1-5.1-1.2l-2.4-1l-2.2-1.1l-2.2-1.1l-4.3-0.1l-4.3-0.1l-0.6,1.4l-0.6,1.4l-2.6-0.1l-2.6-0.1l-2.4-1.3l-2.4-1.3
			l-1.5-3.1l-1.5-3.1l-0.6-1.5l-1.7-1.5l1-1.9l1-1.8l-1.3-1c-0.7-0.5-0.9-1.4-1.9-2.4l-1.9-1.8v-1.2c0.5-1.5,1.6-2.4,1-4.2l0.2-3.2
			l0.6-1.4l0.6-1.4l-1.6-2.9C157.3,243.2,156.5,241.9,156.5,241.9L156.5,241.9z M161.5,243l-0.5,0.4l-0.4,0.4h1.8l-0.5-0.4
			L161.5,243z M147,246.4l-1.8,3.8l-0.3,1.9l3.2-3.5L147,246.4z M280.6,247.2c-0.6,0.6-1.3,1.1-2,1.5l-2.3,1.3l-2.1,2.9l-2.1,2.9
			l-0.9,2.7c-0.5,1.5-1.2,3.7-1.5,4.8s-1.2,4-1.8,6.5l-1.1,4.4l0.1,2.3l0.1,2.3l1.4,1.3l1.3,1.3l3.5-1.1c1.3-0.5,2.7-0.8,4.1-1.1
			h0.7l1.4,2.4l1.4,2.4v4.5l-1.4,1.8l-1.4,1.8l-1,3.6l-1,3.6l0.7,2.3c0.4,1.4,0.6,2.8,0.7,4.2v1.9h-4.8l-0.4,1.7l-0.4,1.7l0.4,2.3
			l0.4,2.3l2.4,3.6l2.4,3.6l-0.4,0.9l-0.4,0.9h-2.4l-1.1-1l-1.1-1l-2.9,0.7l-2.9,0.7l-2.7-0.9l-2.7-0.9l-1.9,0.6l-1.7,1.2l-0.2,1.2
			l-0.3,1.2l2.3,1.9l2.3,1.9l-0.7,0.7l-0.7,0.7L258,331l-1.9-0.7h-7.4l-0.7,1.4l-0.7,1.4h-2v-4l-1.1-0.4l-1.1-0.4l-1,0.8l-1,0.8v1.2
			c0.1,0.7,0.3,1.4,0.8,2c0.1,0.1,0.2,0.2,0.2,0.3l74.7,13L280.6,247.2z M165.6,262.4l3.2,6.4l2.1-4.3L165.6,262.4z M161.7,281.5
			L159,282l7.2,7.4l2.7-0.5h-0.3l-0.8-2.1l-4.3-3.5L161.7,281.5z M161.8,282.2l0.7,1.4c0.4,0.7,0.6,1.4,0.4,1.4
			c-0.7-0.3-1.3-0.8-1.9-1.3l-1.6-1.3h1.2L161.8,282.2L161.8,282.2z M254.7,285.4l-1.6,1.1l-1.6,1.1l0.7,2.1l0.7,2.1l3.4,3.3
			l3.4,3.3l2.4,4.1l1.1,3.8h2.4l1.5-4.8l0.2-5.1l-1.1-2.3l-1.1-2.3l-1.6-0.6c-0.8-0.3-1.5-0.7-2.1-1.3l-0.4-0.7h-2.6l-0.2-1.5
			l-0.2-1.5l-1.6-0.2L254.7,285.4z M171.3,293.8l-0.8,1l-0.8,1l1.1,1.1l1.1,1l2.7,0.4l2.7,0.4l0.9-1.1c0.4-0.5,0.9-0.9,1.5-1.1h0.6
			v2.6l2.2,0.2l2.2,0.2l-0.2,1.8l-0.2,1.8l1.2,1.2l1.2,1.2l0.2,2.5c0.1,1.4,0.2,2.6,0.2,2.8s0.6,0.1,1.2-0.2
			c0.5-0.2,0.9-0.3,1.4-0.4c0.2,0,0.3-0.4,0.3-1v-1l-1-0.4l-1-0.4l0.3-1.8l0.3-1.8l0.9-0.7l0.9-0.7l1.9,0.2l1.9,0.2l-0.2,1.9
			l-0.2,1.9h0.7c0.4,0,1-0.6,1.4-1.3c0.4-0.9,0.7-2,0.7-3v-1.7l-2.1-2l-2.1-2l-3.9-1.1l-3.9-1.1l-6.7-0.3L171.3,293.8z M178.9,304.4
			l-3.7,0.5l1.6,5.3L178.9,304.4z M173,306.6c-0.2,0-0.3,0.5-0.3,1.1v1.1l0.7-0.4l0.7-0.4l-0.4-0.6C173.6,307,173.3,306.7,173,306.6
			L173,306.6z M196.6,313.3l-0.4,0.4l-0.4,0.4l0.4,0.7c0.3,0.4,0.9,0.7,1.4,0.7h1v-1.4l-1.1-0.4L196.6,313.3z M256.8,313.4
			c-0.4,0-0.7,0.3-0.7,0.7s0.3,0.7,0.7,0.7s0.7-0.3,0.7-0.7C257.5,313.7,257.2,313.4,256.8,313.4
			C256.9,313.4,256.8,313.4,256.8,313.4L256.8,313.4z M241.1,316.8v2l1.8,1.4c1,0.8,2,1.3,2.1,1.1c-0.2-0.9-0.6-1.7-1.2-2.4
			c-0.8-1.2-1.8-2.1-2.1-2.1H241.1z M198.1,316.9l-4.3,0.3l0.3,2.4l2.9,0.3L198.1,316.9z M234.5,329.1l-2,2l-0.4,0.4l4.6,0.8
			l0.3-0.2v-3L234.5,329.1z"/>
		<path id="path4644-8" class="st22" d="M316.7,346.5l103,132.6c0.2-0.1,0.5-0.2,0.7-0.2c1.4-0.3,2.7-0.9,4-1.6
			c1.8-0.9,4.9-2.4,7.1-3.4s4.1-2,4.3-2.4l0.4-0.7h0.1L316.7,346.5z"/>
		<path id="path4654-0" class="st23" d="M316.7,346.5l25.1,69l0.4,0.7l0.2,0.9l24.3,66.8c0.7,0.5,1.5,1,2,1.3l1.4,0.9h5.6l2-1
			c1-0.6,2.1-0.9,3.3-1c0.9,0,1.9,0.3,2.7,0.7l1.4,0.7l1-1.3l1-1.3l2.1-0.9l2.1-0.9l1.6,0.9l1.6,0.9l2.9-1.5l2.9-1.5l1.1,0.5
			l1.1,0.5l4-0.2l4-0.2l0.8,1.1l0.8,1.1l2.7-0.8c1.4-0.3,2.6-0.9,3.8-1.7c0.4-0.3,0.9-0.5,1.2-0.7L316.7,346.5z M429.5,231.3
			L316.7,346.5l119.7,124.4h2.9l2.3-2.6c1.3-1.4,3.5-4.1,4.9-5.9l2.6-3.4v-1.2c-0.1-1.1-0.5-2.1-1-3l-1-1.9l1-1.9l1-2l2.6-0.1
			c1.4-0.1,2.9-0.3,4.3-0.5l1.7-0.5l-0.2-1.5l-0.2-1.5l1-1.5l1-1.5l0.4-4.3l0.5-4.3l1.2-2.9l1.3-2.9l2.9-2.5l2.9-2.5h3l0.7-0.9
			c0.5-0.7,0.8-1.4,1-2.2l0.3-1.3l2.7-0.5c1.3-0.2,2.6-0.7,3.7-1.4l1-0.8l-0.3-3.2l-0.4-3.1l-1.1-1.1l-1.2-1.1v-1.4
			c0-0.9-0.3-1.8-0.7-2.6l-0.7-1.3l1.1-1.6c0.6-0.6-1.9-5.9,0.6-2.7c0.2,0.3,2.1-4.7,4.5-8.1l6.1-2.3v-4.6l-0.8-1.4l-0.7-1.4
			l1.9-1.5l1.9-1.5l-0.5-0.7c-0.3-0.4-0.9-0.7-1.4-0.7h-1l-0.6-1.2c-0.5-1.6-0.8-3.2-1-4.8l-0.3-3.6l0.9-1.2l0.9-1.2l-0.6-3l-0.6-3
			l0.4-2.1l0.4-2.1l-1.1-3.3l-1.1-3.3l0.4-2.6l0.4-2.6l-1.8-3.8l-1.8-3.8l0.4-1l0.4-1l-1.4-1.8l-1.4-1.8l0.4-2l0.4-2l-0.9-0.1
			c-0.5-0.1-1,0-1.5,0.1c-0.3,0.1-1.1-0.3-1.6-0.7c-0.9-1-1.7-2.2-2.3-3.4l-1.3-2.6l-2-1l-2-1.1h-3.7l-3.2-2.7
			c-1.1-1.1-2.4-2-3.8-2.7h-0.4v-2.6l-1.3-1.5l-1.3-1.5l-6.9-0.2l-6.9-0.2l-1.4-0.8c-0.8-0.4-1.4-1.1-1.4-1.4v-0.6h6.8v-3.2l1.6-1.3
			l1.6-1.3l0.3-1.3l0.3-1.3l2.4-0.2c1.3-0.1,4.7-0.3,7.6-0.3l5.2-0.2l1.1-0.9l1.1-1l-0.4-0.7c-0.2-0.4-3.4-2.7-4.5-6.7l0.2-8.7
			l-1-1.6l-1-1.6l-0.5-3.1c-0.3-1.7-1.6-2.9-2.1-3.6l-1.3-1.6l0.2-4.6c-0.1-1.5,0.7-2.2,0.5-3.2l-0.5-1.9h3.5l0.5-3.5l0.5-3.4l-1-2
			c-0.8-1.4-1.8-2.6-3-3.7l-2-1.8l-2.3-0.8c-0.9-0.3-1.9-0.5-2.9-0.7c-0.3,0-1.1,0.9-1.6,2l-1.1,2h-2l-0.6-1.1l-0.6-1.1l0.3-1.2
			l0.3-1.2l-0.8-0.5l-0.8-0.5l-0.4,1.4l-0.4,1.4h-3l-0.7-0.9c-0.5-0.8-0.8-1.6-1-2.5l-0.2-1.6l-2-0.2c-1.6-0.2-3.2-0.5-4.7-0.9
			C430.6,231.6,430.1,231.4,429.5,231.3z M496.6,367.7l-0.1,1.1h3.8L496.6,367.7z M496.5,368.8H495l1.1,4.3L496.5,368.8z"/>
		<path id="path4660-2" class="st24" d="M316.7,346.5l-17.1,29.6h2.9l2.2,1.6c1.9,1.5,3.7,3.1,5.4,4.9l3.2,3.4l5.4,2.7l5.4,2.7
			l3.5,3.7c1.9,2,4.8,5.1,6.4,6.8c1.7,1.6,3.1,3.5,4.3,5.5c0.6,1.1,1.1,2.3,1.3,3.5c0.2,1.1,0.7,2.2,1.3,3.1l0.9,1.4L316.7,346.5z
			 M298.1,378.7l-16.2,28.1h2.2l0.2-1.9l0.2-1.9l1.4,0.1c0.9,0.1,1.8,0.3,2.6,0.6l1.2,0.5l-0.4-2.6l-0.4-2.7l1.6-3.1l1.6-3.1
			l1.9-0.2l1.9-0.2l0.9,1.4c0.5,0.8,1.1,1.4,1.4,1.4h0.5v-4.6l1-0.8l1-0.8l1.5,0.8l1.5,0.8l0.4-0.4l0.4-0.4l-0.9-2.1l-0.9-2.1l0.9-1
			l0.9-1l-2-1.9c-1-1-2.1-1.9-3.3-2.6L298.1,378.7z M278.5,412.7l-6.3,10.9c0.8,1.2,1.7,2.4,2.7,3.4l2.1,2.2h4.4l0.4-1.1
			c0.2-0.7,0.4-1.4,0.4-2.1v-1l-1.7-0.6l-1.7-0.6v-2.2l1-0.4l1-0.4v-3.6l-1-0.7l-1-0.8l-0.4-2.6v-0.4L278.5,412.7z M290.5,415.3v3.1
			l-0.1,3.1l0.5,0.5c0.4,0.3,1,0.4,1.5,0.3l1.1-0.2l0.2-1.4l0.2-1.3l-1.7-2L290.5,415.3z M342.4,416.9l0.3,1.9l0.5,2.7l-1.1,0.9
			c-1,1-1.8,2-2.5,3.2l-1.4,2.3l3.5,4.5l3.5,4.5l1.6,4.9c0.9,2.7,2,5.7,2.4,6.8l0.9,1.9l-1.6,1.7l-1.6,1.7l-0.2,2l-0.2,2l-2.1,4.5
			l-2.1,4.5h-2l-0.7,1.3l-0.7,1.3l0.2,2.6c0.1,1.2,0,2.4-0.2,3.6l-0.3,1l2.8,1.4c1.5,0.7,2.9,1.5,4.1,2.6l1.3,1.2l8.2-0.2l8.2-0.2
			l1.9,1.3c0.4,0.3,0.9,0.6,1.4,0.9L342.4,416.9z M335.5,433.9l-0.4,0.4l-0.4,0.4l1.3-0.1l1.3-0.1l-0.9-0.4L335.5,433.9L335.5,433.9
			z"/>
		<path id="path4668-4" class="st25" d="M148.6,227.3l-2.4,1.8l1.9,0.5L148.6,227.3z M157.7,236.9l-1.9,2.7l1,0.5
			c-0.1,0.1-0.1,0.1-0.1,0.2c0,0.2,0.1,0.3,0.3,0.4c0.1,0,0.3-0.1,0.3-0.2l1.6,0.8l1.6-1.9L157.7,236.9L157.7,236.9z M147.6,239.3
			l-1.6,2.1l1.3,4.3v-3.5l1.1-1.6L147.6,239.3z M156.5,241.9c-0.1,1.6-0.2,3.3-0.1,4.9l-1.3,4.9l0.5,1c0.3,0.6-1.2,2.7-0.7,5l1,4.3
			l-1.7,1l-0.3,1.3l1.3,0.4l1.4,0.4l0.9,2.2c0.4,1,0.8,2,1.1,3.1c0.3,0.9,0.9,1.7,1.5,2.4c0.6,0.6,1.1,1.4,1.4,2.3l-1.1,0.8l1.8,1.1
			l1.7,1.1l-0.7,0.9l-0.7,0.9l0.4,0.7l0.4,0.7l1.2-0.8l1.2-0.7l3.2,1.5c1.8,0.9,3.4,1.8,3.6,2.2l0.4,0.6h3l0.9,0.8l0.8,0.9v3.8
			l0.7,0.5c0.4,0.3,3.1,0.7,6,1.1l5.2,0.6l0.7,0.7l0.7,0.7l2.1,0.5h2.9l2.1,1.8c1.1,0.9,2.1,2,2.9,3.1l0.7,1.4l0.3,9.3l0.3,9.2
			l-1.4,1.3c-0.7,0.7-1.4,1.5-1.4,1.9v0.6l-1.7,0.4l-1.7,0.4v2l2,1.2c1,0.5,1.8,1.1,2.4,2l0.4,0.9l-3.1,4.4l-2,6.2v2.6l-1.3,1.6
			l-1.3,1.6l0.7,0.9h123.1l-44.7-33.7l0.2,1l0.4,2.3l2.4,3.6l2.4,3.6l-0.4,0.9l-0.4,0.9h-2.4l-1.1-1l-1.1-1l-2.9,0.7l-2.9,0.7
			l-2.7-0.9l-2.7-0.9l-1.9,0.6l-1.9,0.6l-0.2,1.2l-0.3,1.2l2.3,1.9l2.3,1.9l-0.7,0.7l-0.7,0.7l-1.9-0.7l-1.9-0.7h-7.3l-0.7,1.4
			l-0.9,1.6h-2v-4l-1.1-0.4l-1.1-0.4l-1,0.8l-1,0.8v1.2c0.1,0.7,0.3,1.4,0.8,2c0.4,0.4,0.7,0.9,0.5,1s-1.9,1.1-3.9,2.1l-3.6,1.8H232
			v-2l2.4-1.9l2.4-1.9v-3h-2.4l-2,2l-2,2h-0.9c-0.5,0-1-0.3-1.3-0.7l-0.4-0.7l1.2-1.9c0.9-1.3,1.7-2.7,2.4-4.2l1.2-2.3l-0.4-1.2
			l-0.4-1.2h-2l-0.6,1.6l-0.6,1.6l-2.6,0.7c-1.7,0.5-3.4,0.8-5.1,1.1l-2.4,0.4l-1.2-1.2l-1.2-1.2l0.4-0.6c0.9-0.8,1.9-1.3,3-1.7
			l2.6-1l1.2-3.1l1.2-3.1l-1.5-1l-1.5-1v-4.3c0-2.1-0.1-4.3-0.4-6.4l-0.4-2.1h-2.4l-1.1-1.7l-1.1-1.7v-4l-1.5-0.8
			c-0.9-0.4-1.7-1.1-2.3-1.8l-0.7-1l-0.7,0.4l-0.7,0.4l-1-0.4l-1.1-0.4v-3.2h-1.4l-0.8,1.7l-0.8,1.7h-1.2l0.4-1.1l0.4-1.1l-0.7-1.4
			l-0.7-1.4l-1.7,0.4l-1.7,0.4l-0.3-1.2l-0.3-1.2l-1.9-0.7c-1.6-0.6-3.4-1-5.1-1.2l-2.4-1l-2.2-1.1l-2.2-1.1l-4.3-0.1l-4.3-0.1
			l-0.6,1.4l-0.6,1.4l-2.6-0.1l-2.6-0.1l-2.4-1.3l-2.4-1.3l-1.5-3.1l-1.5-3.1l-0.6-1.5l-1.7-1.5l1-1.9l1-1.8l-1.3-1
			c-0.7-0.5-0.9-1.4-1.9-2.4l-1.9-1.8v-1.2c0.5-1.5,1.6-2.4,1-4.2l0.2-3.2l0.6-1.4l0.6-1.4l-1.6-2.9
			C157.3,243.2,156.5,241.9,156.5,241.9L156.5,241.9z M161.5,243l-0.5,0.4l-0.4,0.4h1.8l-0.5-0.4L161.5,243z M147,246.4l-1.8,3.8
			l-0.3,1.9l3.2-3.5L147,246.4z M165.6,262.4l3.2,6.4l2.1-4.3L165.6,262.4z M161.7,281.5L159,282l7.2,7.4l2.7-0.5h-0.3l-0.8-2.1
			l-4.3-3.5L161.7,281.5z M161.8,282.2l0.7,1.4c0.4,0.7,0.6,1.4,0.4,1.4c-0.7-0.3-1.3-0.8-1.9-1.3l-1.6-1.3h1.2L161.8,282.2
			L161.8,282.2z M171.3,293.8l-0.8,1l-0.8,1l1.1,1.1l1.1,1l2.7,0.4l2.7,0.4l0.9-1.1c0.4-0.5,0.9-0.9,1.5-1.1h0.6v2.6l2.2,0.2
			l2.2,0.2l-0.2,1.8l-0.2,1.8l1.2,1.2l1.2,1.2l0.2,2.5c0.1,1.4,0.2,2.6,0.2,2.8s0.6,0.1,1.2-0.2c0.5-0.2,0.9-0.3,1.4-0.4
			c0.2,0,0.3-0.4,0.3-1v-1l-1-0.4l-1-0.4l0.3-1.8l0.3-1.8l0.9-0.7l0.9-0.7l1.9,0.2l1.9,0.2l-0.2,1.9l-0.2,1.9h0.7
			c0.4,0,1-0.6,1.4-1.3c0.4-0.9,0.7-2,0.7-3v-1.7l-2.1-2l-2.1-2l-3.9-1.1l-3.9-1.1l-6.7-0.3L171.3,293.8z M178.9,304.4l-3.7,0.5
			l1.6,5.3L178.9,304.4z M263.1,306.1l0.1,0.2h0.2L263.1,306.1z M173,306.6c-0.2,0-0.3,0.5-0.3,1.1v1.1l0.7-0.4l0.7-0.4l-0.4-0.6
			C173.6,307,173.3,306.7,173,306.6L173,306.6z M196.6,313.3l-0.4,0.4l-0.4,0.4l0.4,0.7c0.3,0.4,0.9,0.7,1.4,0.7h1v-1.4l-1.1-0.4
			L196.6,313.3z M256.8,313.4c-0.4,0-0.7,0.3-0.7,0.7s0.3,0.7,0.7,0.7s0.7-0.3,0.7-0.7C257.5,313.7,257.2,313.4,256.8,313.4
			L256.8,313.4L256.8,313.4z M241.1,316.8v2l1.8,1.4c1,0.8,2,1.3,2.1,1.1c-0.2-0.9-0.6-1.7-1.2-2.4c-0.8-1.2-1.8-2.1-2.1-2.1H241.1z
			 M198.1,316.9l-4.3,0.3l0.3,2.4l2.9,0.3L198.1,316.9z"/>
		<path id="path4672-8" class="st26" d="M172,195.9c-2.7,3.2-1.6,4.5-1.6,4.5l3.2-3.7L172,195.9z M148.6,227.3l-2.4,1.8l1.9,0.5
			L148.6,227.3z M157.7,236.9l-1.9,2.7l1,0.5c-0.1,0.1-0.1,0.1-0.1,0.2c0,0.2,0.1,0.3,0.3,0.4c0.1,0,0.3-0.1,0.3-0.2l1.6,0.8
			l1.6-1.9L157.7,236.9L157.7,236.9z M147.6,239.3l-1.6,2.1l1.3,4.3v-3.5l1.1-1.6L147.6,239.3z M156.5,241.9
			c-0.1,1.6-0.2,3.3-0.1,4.9l-1.3,4.9l0.5,1c0.3,0.6-1.2,2.7-0.7,5l1,4.3l-1.7,1l-0.3,1.3l1.3,0.4l1.4,0.4l0.9,2.2
			c0.4,1,0.8,2,1.1,3.1c0.3,0.9,0.9,1.7,1.5,2.4c0.6,0.6,1.1,1.4,1.4,2.3l-1.1,0.8l1.8,1.1l1.7,1.1l-0.7,0.9l-0.7,0.9l0.4,0.7
			l0.4,0.7l1.2-0.8l1.2-0.7l3.2,1.5c1.8,0.9,3.4,1.8,3.6,2.2l0.4,0.6h3l0.9,0.8l0.8,0.9v3.8l0.7,0.5c0.4,0.3,3.1,0.7,6,1.1l5.2,0.6
			l0.7,0.7l0.7,0.7l2.1,0.5h2.9l2.1,1.8c1.1,0.9,2.1,2,2.9,3.1l0.7,1.4l0.3,9.3l0.1,4.3l21,6l0.7-1.9l1.2-3.1l-1.5-1l-1.5-1v-4.3
			c0-2.1-0.1-4.3-0.4-6.4l-0.4-2.1h-2.4l-1.1-1.7l-1.1-1.7v-4l-1.5-0.8c-0.9-0.4-1.7-1.1-2.3-1.8l-0.7-1l-0.7,0.4l-0.7,0.4l-1.1-0.4
			l-1.1-0.4v-3.3H207l-0.8,1.7l-0.8,1.7h-1.2l0.4-1.1l0.4-1.1l-0.7-1.4l-0.7-1.4l-1.7,0.4l-1.7,0.4l-0.3-1.2l-0.3-1.2l-1.9-0.7
			c-1.7-0.6-3.4-1-5.1-1.2l-2.4-1l-2.2-1.1l-2.2-1.1l-4.3-0.1l-4.3-0.1l-0.6,1.4l-0.6,1.4l-2.6-0.1l-2.6-0.1l-2.4-1.3L166,277
			l-1.5-3.1l-1.5-3.1l-0.6-1.5l-1.7-1.5l1-1.9l1-1.8l-1.3-1c-0.7-0.5-0.9-1.4-1.9-2.4l-1.9-1.8v-1.2c0.5-1.5,1.6-2.4,1-4.2l0.2-3.2
			l0.4-1.2l0.6-1.4l-1.6-2.9C157.3,243.2,156.5,241.9,156.5,241.9L156.5,241.9z M161.5,243l-0.5,0.4l-0.4,0.4h1.8l-0.5-0.4
			L161.5,243z M147,246.4l-1.8,3.8l-0.3,1.9l3.2-3.5L147,246.4z M273.5,253.8l-1.4,2l-0.9,2.7c-0.5,1.5-1.2,3.7-1.5,4.8
			s-1.2,4-1.8,6.5l-1.1,4.4l0.1,2.3l0.1,2.3l1.4,1.3l1.3,1.3l3.5-1.1c1.3-0.5,2.7-0.8,4.1-1.1h0.7l1.4,2.4l1.4,2.4v4.5l-1.4,1.8
			l-1.4,1.8l-1,3.6l-1,3.6l0.7,2.3c0.4,1.4,0.6,2.8,0.7,4.2v1.9h-4.8l-0.4,1.7l-0.4,1.7l0.4,2.3l0.4,2.3l2.4,3.6l2.4,3.6l-0.4,0.9
			l-0.4,0.9h-2.4l-1.1-1l-1.1-1l-2.9,0.7l-2.9,0.7l-2.7-0.9l-2.7-0.9l-1.9,0.6l-1.7,1.2l-0.2,1.2l-0.3,1.2l2.3,1.9l2.3,1.9l-0.2,0.2
			l55.7,16L273.5,253.8z M165.6,262.4l3.2,6.4l2.1-4.3L165.6,262.4z M161.7,281.5L159,282l7.2,7.4l2.7-0.5h-0.3l-0.8-2.1l-4.3-3.5
			L161.7,281.5z M161.8,282.2l0.7,1.4c0.4,0.7,0.6,1.4,0.4,1.4c-0.7-0.3-1.3-0.8-1.9-1.3l-1.6-1.3h1.2L161.8,282.2L161.8,282.2z
			 M254.7,285.4l-1.6,1.1l-1.6,1.1l0.7,2.1l0.7,2.1l3.4,3.3l3.4,3.3l2.4,4.1l1.1,3.8h2.4l1.5-4.8l0.2-5.1l-1.1-2.3l-1.1-2.3
			l-1.6-0.6c-0.8-0.3-1.5-0.7-2.1-1.3l-0.4-0.7h-2.6l-0.2-1.5l-0.2-1.5l-1.6-0.2L254.7,285.4z M171.3,293.8l-0.8,1l-0.8,1l1.1,1.1
			l1.1,1l2.7,0.4l2.7,0.4l0.9-1.1c0.4-0.5,0.9-0.9,1.5-1.1h0.6v2.6l2.2,0.2l2.2,0.2l-0.2,1.8l-0.2,1.8l1.2,1.2l1.2,1.2l0.2,2.5
			c0.1,0.4,0.1,0.9,0.1,1.3l2.7,0.8c0.1-0.3,0.2-0.6,0.2-0.9v-1l-1-0.4l-1-0.4l0.3-1.8l0.3-1.8l0.9-0.7l0.9-0.7l1.9,0.2l1.9,0.2
			l-0.2,1.9l-0.2,1.9h0.7c0.4,0,1-0.6,1.4-1.3c0.4-0.9,0.7-2,0.7-3v-1.7l-2.1-2l-2.1-2l-3.9-1.1l-3.9-1.1l-6.7-0.3L171.3,293.8z
			 M178.9,304.4l-3.7,0.5l0.3,1l2.6,0.7L178.9,304.4z M256.8,313.4c-0.4,0-0.7,0.3-0.7,0.7s0.3,0.7,0.7,0.7s0.7-0.3,0.7-0.7
			C257.5,313.7,257.2,313.4,256.8,313.4C256.9,313.4,256.8,313.4,256.8,313.4L256.8,313.4z M241.1,316.8v2l1.8,1.4
			c1,0.8,2,1.3,2.1,1.1c-0.2-0.9-0.6-1.7-1.2-2.4c-0.8-1.2-1.8-2.1-2.1-2.1H241.1z M230.1,320.9l-0.2,0.6l2.7,0.7l-0.1-0.2l-0.4-1.2
			h-1L230.1,320.9z"/>
	</g>
	<g id="layer1" class="st4">
		<path id="Antarctiq-circle" class="st27" d="M485.4,346.5c0,93.1-75.5,168.7-168.6,168.7h-0.1c-93.2,0-168.6-75.6-168.6-168.7
			s75.5-168.7,168.6-168.7C409.9,177.8,485.4,253.3,485.4,346.5z"/>
		<path id="latitude-80" class="st28" d="M389.1,346.5c0,40-32.4,72.4-72.4,72.4s-72.4-32.4-72.4-72.4s32.4-72.4,72.4-72.4l0,0l0,0
			C356.7,274.1,389.1,306.5,389.1,346.5L389.1,346.5z"/>
		<path id="latitude-70" class="st28" d="M460.9,346.5c0,79.6-64.6,144.1-144.2,144.1S172.6,426,172.6,346.4s64.5-144.1,144.1-144.1
			s144.2,64.5,144.2,144.1C460.9,346.4,460.9,346.4,460.9,346.5z"/>
		<path id="latitude-60" class="st28" d="M530.6,346.5c0,118.1-95.8,213.9-213.9,213.9s-213.8-95.8-213.8-213.9
			s95.7-213.9,213.8-213.9S530.6,228.3,530.6,346.5z"/>
		<path id="latitude-60-2" class="st29" d="M59.6,152.9c31.1-41.3,71.7-74.5,118.3-96.9c0.4-0.2,0.9-0.4,1.3-0.6"/>
		<path id="latitude-60-3" class="st28" d="M181.7,577.3C102.5,530.8,49.4,444.8,49.4,346.5"/>
		<path class="st30" d="M181,576.8c-9.8-5.7-19.8-11.7-29.8-19.7c-14-12-27-23-39-38c-40-49-63-108-62.8-170"/>
		<path class="st31" d="M399.3,578.2c-66.1,23.9-143.1,16.9-204.5-18"/>
		<path id="latitude-60-4" class="st32" d="M502.2,523.9c-8.5,8.8-17.5,17-27.1,24.6"/>
		<path id="latitude-60-5" class="st33" d="M481.5,178.5c45.2,44.2,70.6,104.8,70.5,168l0,0c0.1,61.4-23.9,120.3-66.8,164.2"/>
		<path id="latitude-60-6" class="st33" d="M459.2,533.7c-17.9,13.6-37.6,24.6-58.6,32.7"/>
		<path class="st34" d="M232.7,103.9c89.8-31.2,189.5-10.1,258.9,54.8"/>
		<path id="latitude-60-7" class="st35" d="M62.4,263.8c23-70.5,74.1-128.3,141.3-159.7"/>
		<path id="latitude-60-8" class="st36" d="M75.3,299.1c16.6-84.9,76.8-154.1,156.4-183.5"/>
		<path id="latitude-60-9" class="st28" d="M70.8,346.5"/>
		<path id="latitude-60-10" class="st28" d="M70.8,346.5"/>
		<path class="st37" d="M85.7,344.6c-0.5-48.5,16.5-96.5,45.8-136.3"/>
		<path id="latitude-50" class="st28" d="M599.8,346.5c0,156.3-126.7,283-283,283s-283-126.7-283-283s126.7-283,283-283
			S599.8,190.1,599.8,346.5z"/>
		<path id="Greenwitch" class="st28" d="M316.7,1.7v679.9"/>
		<path id="longitude-90" class="st28" d="M18.3,346.5h603.3"/>
		<path id="path3315" class="st28" d="M625.1,167.8C8.3,524.6,8.3,525.5,8.3,525.5"/>
		<path id="path3325" class="st28" d="M8.1,167.6c616.7,356.8,616.7,357.7,616.7,357.7"/>
		<path id="path3327" class="st28" d="M495,654.3C138.2,37.6,137.4,37.6,137.4,37.6"/>
		<path id="path3329" class="st28" d="M138.2,654.6C495,37.9,495.8,37.9,495.8,37.9"/>
	</g>
	<line class="st38" x1="131.5" y1="208.3" x2="139" y2="214.1"/>
	<line class="st38" x1="85.8" y1="344.9" x2="97.2" y2="344.9"/>
	<rect x="36.3" y="311.2" class="st0" width="35.5" height="12.1"/>
	<text transform="matrix(1 0 0 1 24.59 321.31)" class="st39 st40 st41">智利</text>
	<line class="st42" x1="231.7" y1="115.6" x2="236.4" y2="127.8"/>
	<line class="st42" x1="75.3" y1="299.1" x2="85.8" y2="301.2"/>
	<line class="st42" x1="181.1" y1="141.3" x2="153.5" y2="105"/>
	<rect x="136.7" y="87.4" class="st0" width="20.7" height="14.4"/>
	<text transform="matrix(1 0 0 1 131.69 96.46)" class="st39 st40 st41">英国</text>
	<line class="st43" x1="62.4" y1="263.8" x2="74.5" y2="267"/>
	<line class="st43" x1="203.7" y1="104.1" x2="209" y2="116.1"/>
	<line class="st43" x1="116.7" y1="169.1" x2="95.2" y2="150.5"/>
	<rect x="48.9" y="124.1" class="st0" width="94.2" height="20"/>
	<text transform="matrix(1 0 0 1 63.29 142.67)" class="st39 st40 st41">阿根廷</text>
	<line class="st38" x1="86.6" y1="318.7" x2="69.6" y2="316.3"/>
	<line class="st44" x1="231.8" y1="104.3" x2="236.6" y2="117.1"/>
	<line class="st44" x1="491.6" y1="158.6" x2="481.5" y2="171.2"/>
	<line class="st44" x1="374.5" y1="96.3" x2="387.3" y2="66.7"/>
	<rect x="385.2" y="49.6" class="st0" width="93.4" height="24.7"/>
	<text transform="matrix(1 0 0 1 385.14 58.69)" class="st39 st40 st41">挪威</text>
	<line class="st45" x1="399.7" y1="566" x2="396.5" y2="557.5"/>
	<line class="st45" x1="459.7" y1="532.7" x2="455.1" y2="527"/>
	<line class="st45" x1="485.2" y1="510.7" x2="479" y2="506.1"/>
	<line class="st45" x1="481.5" y1="178.5" x2="475.3" y2="185.3"/>
	<line class="st45" x1="505.1" y1="487.4" x2="554" y2="519.9"/>
	<line class="st45" x1="413.6" y1="560.9" x2="426.9" y2="586.9"/>
	<rect x="545.5" y="526.8" class="st0" width="57.5" height="14.4"/>
	<text transform="matrix(1 0 0 1 548.51 539.86)" class="st39 st40 st41">澳大利亚</text>
	<text transform="matrix(1 0 0 1 420.95 610.96)" class="st39 st40 st41">澳大利亚</text>
	<line class="st46" x1="475.1" y1="548.5" x2="467.8" y2="540.1"/>
	<line class="st46" x1="502.2" y1="523.9" x2="493.9" y2="517.8"/>
	<line class="st46" x1="486.1" y1="539.3" x2="498.2" y2="549.7"/>
	<rect x="494.4" y="558.7" class="st0" width="57.5" height="19.2"/>
	<text transform="matrix(1 0 0 1 497.43 569.78)" class="st39 st40 st41">法国</text>
	<line class="st47" x1="194.5" y1="559.9" x2="201.4" y2="548.6"/>
	<line class="st47" x1="399.3" y1="578.2" x2="396.1" y2="569.4"/>
	<line class="st47" x1="273.9" y1="588.7" x2="266.8" y2="617.3"/>
	<rect x="221.3" y="631.7" class="st0" width="86.2" height="15.2"/>
	<text transform="matrix(1 0 0 1 221.28 640.7)" class="st39 st40 st41">新西兰</text>
	<line class="st48" x1="49.4" y1="348.3" x2="62.8" y2="348.3"/>
	<line class="st48" x1="181.8" y1="576.6" x2="188.2" y2="566.3"/>
	<line class="st48" x1="132.4" y1="540.2" x2="114.4" y2="562.3"/>
	<rect x="79.2" y="575.8" class="st0" width="99.8" height="28.7"/>
	<g>
		<text transform="matrix(1 0 0 1 72.24 584.84)" class="st39 st49 st41">玛丽</text>
		<text transform="matrix(1 0 0 1 102.24 584.84)" class="st39 st49 st41">·</text>
		<text transform="matrix(1 0 0 1 113.9 584.84)" class="st39 st49 st41">伯德地</text>
	</g>
	<rect x="114.2" y="379.8" class="st0" width="63.2" height="17.4"/>
	<text transform="matrix(1 0 0 1 114.2 401.84)" class="st39 st40 st41">挪威</text>
	<g class="st4">
		<line class="st50" x1="146.5" y1="380.1" x2="160.5" y2="358.9"/>
		<path class="st51" d="M159.3,360.7l-5-0.2v-0.2l6.2-4.3c1.8-1.7,3.6-3.5,5.4-5.2c-0.9,2.3-1.8,4.7-2.7,7l-1.5,7.4l-0.1,0.1
			L159.3,360.7z"/>
	</g>
	<path class="st52" d="M167.3,345.5c-1.6,0-2.9,1.3-2.9,2.9s1.3,2.9,2.9,2.9c1.6,0,2.9-1.3,2.9-2.9l0,0l0,0
		C170.2,346.8,168.9,345.5,167.3,345.5z M167.3,349.4c-0.6,0-1-0.4-1-1s0.4-1,1-1s1,0.4,1,1S167.8,349.4,167.3,349.4z"/>
	<g class="st4">
		<g>
			<g>
				<defs>
					<polygon id="SVGID_5_" points="142.9,215.8 236.2,146.1 336.2,362.1 55.2,362.1 					"/>
				</defs>
				<clipPath id="SVGID_6_">
					<use xlink:href="#SVGID_5_"  style="overflow:visible;"/>
				</clipPath>
				<g class="st53">
					<g class="st54">
						<path class="st55" d="M177.5,56.6L177.5,56.6c-0.2,0.1-0.3,0.2-0.4,0.3l0,0L177,57l0,0c0,0-0.1,0-0.1,0.1l0,0h-0.1l-7.6,6.2
							l0.6,0.8l8.6-7L177.5,56.6z M164.3,67.3l-8.8,7.2l0.6,0.8l8.8-7.2L164.3,67.3z M151.1,78.1l-8.8,7.2l0.6,0.8l8.8-7.2
							L151.1,78.1z M138,88.9l-8.8,7.1l0.6,0.8l8.8-7.2L138,88.9z M124.8,99.6l-1.6,1.3l0,0c-2.6,2.1-7.1,5.8-7.1,5.8l0.6,0.8
							l8.8-7.2L124.8,99.6L124.8,99.6z M111.6,110.4c0,0-0.9,0.7-2,1.7l0,0c-0.1,0.1-0.2,0.2-0.4,0.3l0,0c-0.1,0-0.1,0.1-0.2,0.1
							l0,0c0,0-0.1,0-0.1,0.1l0,0l0,0l-0.1,0.1l0,0l-0.1,0.1l0,0l-5.7,4.6l0.6,0.8l8.8-7.2L111.6,110.4z M98.5,121.2l-8.8,7.2
							l0.6,0.8l8.8-7.2L98.5,121.2z M85.3,131.9l-4.1,3.3l0,0l-4.7,3.9l0.6,0.8l8.8-7.2L85.3,131.9z M72.1,142.7l-8.8,7.2l0.6,0.8
							l8.8-7.2L72.1,142.7z M60.5,152.6l-0.6,0.8l9.1,6.8l0.6-0.8L60.5,152.6z M74.1,162.9l-0.6,0.8l9.1,6.8l0.6-0.8L74.1,162.9z
							 M87.7,173.1l-0.6,0.8c0,0,0.6,0.4,1.5,1.1h0.1l7.5,5.6l0.6-0.8L87.7,173.1z M101.3,183.3l-0.6,0.8l9.1,6.8l0.6-0.8
							L101.3,183.3z M114.9,193.5l-0.6,0.8l7.4,5.6c1,0.7,1.6,1.2,1.6,1.2l0.6-0.8L114.9,193.5z M128.4,203.7l-0.6,0.8l6.3,4.7l0,0
							c1.5,1.1,2.7,2,2.7,2l0.6-0.8L128.4,203.7z M142,213.9l-0.6,0.8l9.1,6.8l0.6-0.8L142,213.9z M155.6,224.2L155,225l9.1,6.8
							l0.6-0.8L155.6,224.2z M169.2,234.4l-0.6,0.8l9.1,6.8l0.6-0.8L169.2,234.4z M182.8,244.6l-0.6,0.8l0,0l9,6.8l0.6-0.8
							L182.8,244.6z M196.4,254.8l-0.6,0.8c0.4,0.3,0.8,0.6,1.1,0.9h0.1l0.1,0.1l0,0l7.7,5.8l0.6-0.8L196.4,254.8L196.4,254.8z
							 M210,265l-0.6,0.8l9.1,6.8l0.6-0.8L210,265z M223.6,275.2L223,276l9.1,6.8l0.6-0.8L223.6,275.2z M237.2,285.5l-0.6,0.8
							l6.8,5.1l0,0c1.3,1,2.3,1.7,2.3,1.7l0.6-0.8L237.2,285.5L237.2,285.5z M250.8,295.7l-0.6,0.8l6,4.5l0,0l0.1,0.1l0,0
							c1.7,1.2,3,2.2,3,2.2l0.6-0.8L250.8,295.7L250.8,295.7z M264.4,305.9l-0.6,0.8l9.1,6.8l0.6-0.8L264.4,305.9z M278,316.1
							l-0.6,0.8c0,0,3.1,2.3,5.7,4.3l3.4,2.6l0.6-0.8L278,316.1z M291.6,326.3l-0.6,0.8l9.1,6.8l0.6-0.8L291.6,326.3z M311,334.6
							l-0.9,0.4l3.9,8.2l-8.9-6.7l-0.6,0.8c0.2,0.2,0.4,0.3,0.6,0.4h0.1l8.2,6.2l0.5-0.7l0.8,1.7l0.1,0.1l0.9-0.4l0,0v-0.1l0,0v-0.1
							l0,0C314.7,342.3,311,334.6,311,334.6L311,334.6z M303.7,319.3l-0.9,0.4l4.9,10.2l0.9-0.4L303.7,319.3z M296.3,303.9l-0.9,0.4
							l4.9,10.2l0.9-0.4L296.3,303.9z M288.9,288.6L288,289l4.9,10.2l0.9-0.4c0,0-1.8-3.7-3.2-6.6l0,0v-0.1l0,0L288.9,288.6
							L288.9,288.6z M281.6,273.3l-0.9,0.4l4.9,10.2l0.9-0.4L281.6,273.3z M274.2,257.9l-0.9,0.4l4.9,10.2l0.9-0.4L274.2,257.9z
							 M266.8,242.6l-0.9,0.4l4.9,10.2l0.9-0.4L266.8,242.6z M259.5,227.3l-0.9,0.4l4.9,10.2l0.9-0.4L259.5,227.3z M252.1,211.9
							l-0.9,0.4l4.9,10.2l0.9-0.4c0,0-1.2-2.4-2.3-4.9l0,0L252.1,211.9L252.1,211.9z M244.8,196.6l-0.9,0.4l4.9,10.2l0.9-0.4
							L244.8,196.6z M237.4,181.3l-0.9,0.4l4.9,10.2l0.9-0.4L237.4,181.3z M230,165.9l-0.9,0.4l4.9,10.2l0.9-0.4L230,165.9z
							 M222.7,150.6l-0.9,0.4l4.9,10.2l0.9-0.4l-0.6-1.2l0,0v-0.1l0,0C225.5,156.6,222.7,150.6,222.7,150.6L222.7,150.6z
							 M215.3,135.3l-0.9,0.4l4.9,10.2l0.9-0.4L215.3,135.3z M207.9,120l-0.9,0.4l4.9,10.2l0.9-0.4c0,0-2-4.2-3.5-7.2l0,0L207.9,120
							L207.9,120z M200.6,104.6l-0.9,0.4l4.9,10.2l0.9-0.4L200.6,104.6z M193.2,89.3l-0.9,0.4l4.9,10.2l0.9-0.4L193.2,89.3z
							 M185.8,74l-0.9,0.4l4.9,10.2l0.9-0.4L185.8,74z M178.5,58.6l-0.9,0.4l4.9,10.2l0.9-0.4L178.5,58.6z"/>
					</g>
				</g>
			</g>
		</g>
	</g>
	<g>
		<line class="st29" x1="179.2" y1="55.4" x2="185.5" y2="70.1"/>
		<line class="st29" x1="59.6" y1="152.9" x2="71.9" y2="162.8"/>
		<line class="st29" x1="112.3" y1="97.8" x2="99.9" y2="84.1"/>
	</g>
	<text transform="matrix(1 0 0 1 75.36 76.98)" class="st39 st40 st41">巴西</text>
	<g class="st4">
		<pattern  id="SVGID_9_" xlink:href="#SVGID_7_" patternTransform="matrix(1 0 0 1 4.59 17305.5313)"  class="st4">
		</pattern>
		<path class="st56" d="M267,278.9l1.4,1.3l1.3,1.3l3.5-1.1c1.3-0.5,2.7-0.8,4.1-1.1h0.7l1.4,2.4l1.4,2.4v4.5l-1.4,1.8l-1.4,1.8
			l-1,3.6l-1,3.6l0.7,2.3c0.4,1.4,0.6,2.8,0.7,4.2v1.9h-4.8l-0.4,1.7l-0.4,1.7l0.4,2l44.5,33l-43.2-92.6l-1.4,2l-0.9,2.7
			c-0.5,1.5-1.2,3.7-1.5,4.8s-1.2,4-1.8,6.5l-1.1,4.4l0.1,2.3L267,278.9z"/>
		<pattern  id="SVGID_10_" xlink:href="#SVGID_8_" patternTransform="matrix(1 0 0 1 4.59 17305.5313)"  class="st4">
		</pattern>
		<path class="st57" d="M252.9,291.7l3.4,3.3l3.4,3.3l2.4,4.1l1.1,3.8h2.4l1.5-4.8l0.2-5.1l-1.1-2.3l-1.1-2.3l-1.6-0.6
			c-0.8-0.3-1.5-0.7-2.1-1.3l-0.4-0.7h-2.6l-0.2-1.5l-0.2-1.5l-1.6-0.2l-1.5-0.2l-1.6,1.1l-1.6,1.1l0.7,2.1L252.9,291.7z"/>
		<path class="st58" d="M173.6,196.7l-1.6-0.8c-2.7,3.2-1.6,4.5-1.6,4.5L173.6,196.7z"/>
	</g>
</g>
</svg>
