<?xml version="1.0" encoding="utf-8"?>
<svg version="1.1" xmlns="http://www.w3.org/2000/svg" xmlns:xlink="http://www.w3.org/1999/xlink" x="0px" y="0px" viewBox="0 0 864 432" enable-background="new 0 0 864 432" xml:space="preserve">
<style type="text/css">
	.graticules line, .graticules path {fill:none; stroke:#fff; stroke-width:.25px;}
	.icecap path {fill:none; stroke:#fff; stroke-width:.5px; stroke-linecap:round; stroke-linejoin:round; stroke-dasharray:0,2px;}
	text {fill:#fff; font-family:'ArialMT'; font-size:5px;}
</style>
<g class="graticules" opacity="0.1">
	<line x1="451" y1="72" x2="451" y2="417.5"/>
	<line x1="451" y1="424.5" x2="451" y2="568"/>
	<line x1="451" y1="65" x2="451" y2="-42"/>
	<line x1="533.8" y1="413.9" x2="503.6" y2="69.7"/>
	<line x1="534.4" y1="420.9" x2="546.9" y2="563.8"/>
	<line x1="503" y1="62.7" x2="493.7" y2="-43.8"/>
	<line x1="617.1" y1="410" x2="642" y2="551.3"/>
	<line x1="615.9" y1="403.1" x2="555.9" y2="62.8"/>
	<line x1="554.7" y1="55.9" x2="536.1" y2="-49.4"/>
	<line x1="169.9" y1="-130.6" x2="-179.9" y2="369.1"/>
	<line x1="577.9" y1="-58.6" x2="605.5" y2="44.7"/>
	<line x1="698.6" y1="391.9" x2="735.7" y2="530.5"/>
	<line x1="607.3" y1="51.4" x2="696.7" y2="385.1"/>
	<line x1="206" y1="-107.6" x2="-99" y2="420.6"/>
	<line x1="657.6" y1="35.6" x2="775.7" y2="360.2"/>
	<line x1="778.1" y1="366.8" x2="827.2" y2="501.7"/>
	<line x1="618.6" y1="-71.4" x2="655.2" y2="29"/>
	<line x1="198.7" y1="9.1" x2="243.9" y2="-87.8"/>
	<line x1="195.7" y1="15.4" x2="49.7" y2="328.5"/>
	<line x1="46.8" y1="334.9" x2="-13.9" y2="464.9"/>
	<line x1="706.3" y1="15.4" x2="852.3" y2="328.5"/>
	<line x1="855.2" y1="334.9" x2="915.9" y2="464.9"/>
	<line x1="703.3" y1="9.1" x2="658.1" y2="-87.8"/>
	<line x1="123.9" y1="366.8" x2="74.8" y2="501.7"/>
	<line x1="244.4" y1="35.6" x2="126.3" y2="360.2"/>
	<line x1="246.8" y1="29" x2="283.4" y2="-71.4"/>
	<line x1="696" y1="-107.6" x2="1001" y2="420.6"/>
	<line x1="294.7" y1="51.4" x2="205.3" y2="385.1"/>
	<line x1="296.5" y1="44.7" x2="324.1" y2="-58.6"/>
	<line x1="203.4" y1="391.9" x2="166.3" y2="530.5"/>
	<line x1="732.1" y1="-130.6" x2="1081.9" y2="369.1"/>
	<line x1="365.9" y1="-49.4" x2="347.3" y2="55.9"/>
	<line x1="284.9" y1="410" x2="260" y2="551.3"/>
	<line x1="346.1" y1="62.8" x2="286.1" y2="403.1"/>
	<line x1="408.3" y1="-43.8" x2="399" y2="62.7"/>
	<line x1="398.4" y1="69.7" x2="368.2" y2="413.9"/>
	<line x1="367.6" y1="420.9" x2="355.1" y2="563.8"/>
	<path d="M284.9,8.1c193.5,59.3,412.5,12.5,565.6-140.6"/>
	<path d="M51.5-132.5C117-66.9,194.7-20.9,277.3,5.7"/>
	<path d="M263.7,75.4c217.8,66.9,464.4,14.3,636.7-158"/>
	<path d="M256.1,73C163,43.1,75.5-8.8,1.6-82.6"/>
	<path d="M234.8,140.2C131.3,107.1,33.9,49.4-48.2-32.8"/>
	<path d="M242.5,142.6c242,74.6,516.2,16.1,707.7-175.4"/>
	<path d="M213.6,207.5C99.6,171-7.6,107.5-98.1,17.1"/>
	<path d="M221.3,209.9c266.3,82.2,568,17.9,778.8-192.8"/>
	<path d="M192.4,274.7C68,235-49.1,165.7-147.9,66.9"/>
	<path d="M200.1,277.2c290.5,89.8,619.9,19.7,849.9-210.2"/>
	<path d="M171.2,342c-135-43.1-261.9-118.1-369-225.2"/>
	<path d="M178.9,344.4c314.8,97.5,671.7,21.6,920.9-227.6"/>
	<path d="M150,409.2C4.6,362.9-132.2,282-247.6,166.6"/>
	<path d="M157.7,411.7c339.1,105.1,723.5,23.4,992-245"/>
	<path d="M1199.5,216.5c-413.4,413.4-1083.6,413.4-1496.9,0"/>
</g>
<g opacity="0.15">
	<text transform="matrix(1 0 0 1 447.6631 422.75)">20</text>
	<text transform="matrix(1 0 0 1 447.6631 70.25)">20</text>
	<text transform="matrix(0.9962 -8.715574e-02 8.715574e-02 0.9962 530.8879 419.4079)">25</text>
	<text transform="matrix(0.9962 -8.715574e-02 8.715574e-02 0.9962 500.1655 68.2492)">25</text>
	<text transform="matrix(0.9848 -0.1736 0.1736 0.9848 613.5047 408.8249)">30</text>
	<text transform="matrix(0.9848 -0.1736 0.1736 0.9848 552.2936 61.6801)">30</text>
	<text transform="matrix(0.9659 -0.2588 0.2588 0.9659 694.8847 391.0818)">35</text>
	<text transform="matrix(0.9659 -0.2588 0.2588 0.9659 603.6508 50.5927)">35</text>
	<text transform="matrix(0.9397 -0.342 0.342 0.9397 774.4087 366.3132)">40</text>
	<text transform="matrix(0.9397 -0.342 0.342 0.9397 653.8464 35.0715)">40</text>
	<text transform="matrix(0.9063 -0.4226 0.4226 0.9063 851.4708 334.7079)">45</text>
	<text transform="matrix(0.9063 -0.4226 0.4226 0.9063 702.4979 15.2343)">45</text>
	<text transform="matrix(0.9962 8.715574e-02 -8.715574e-02 0.9962 364.464 418.8262)">15</text>
	<text transform="matrix(0.9962 8.715574e-02 -8.715574e-02 0.9962 395.1864 67.6676)">15</text>
	<text transform="matrix(0.9848 0.1736 -0.1736 0.9848 281.9235 407.666)">10</text>
	<text transform="matrix(0.9848 0.1736 -0.1736 0.9848 343.1345 60.5214)">10</text>
	<text transform="matrix(0.9659 0.2588 -0.2588 0.9659 202.2818 389.7863)">5</text>
	<text transform="matrix(0.9659 0.2588 -0.2588 0.9659 293.5154 49.2975)">5</text>
	<text transform="matrix(0.9397 0.342 -0.342 0.9397 122.8891 364.6016)">0</text>
	<text transform="matrix(0.9397 0.342 -0.342 0.9397 243.4514 33.3599)">0</text>
	<text transform="matrix(0.9063 0.4226 -0.4226 0.9063 45.9935 332.5928)">5</text>
	<text transform="matrix(0.9063 0.4226 -0.4226 0.9063 194.9666 13.1191)">5</text>
	<text transform="matrix(0.9537 0.3007 -0.3007 0.9537 192.5934 276.4637)">78</text>
	<text transform="matrix(0.9537 0.3007 -0.3007 0.9537 171.3937 343.7006)">77</text>
	<text transform="matrix(0.9537 0.3007 -0.3007 0.9537 150.194 410.9377)">76</text>
	<text transform="matrix(0.9537 0.3007 -0.3007 0.9537 256.1928 74.7524)">81</text>
	<text transform="matrix(0.9537 0.3007 -0.3007 0.9537 277.3925 7.5156)">82</text>
	<text transform="matrix(0.9537 0.3007 -0.3007 0.9537 234.9928 141.9894)">80</text>
	<text transform="matrix(0.9537 0.3007 -0.3007 0.9537 213.7682 209.3061)">79</text>
</g>
<g class="icecap" opacity="0.25">
	<path d="M0,357l29.7-18.4l85.5-45.3l5.2-14.2l12.4-11.6l0.3-12l41.7-25.2l34.5-27.8l51.5-29.8l14.7-6.8l26.8-6.5l14.4,5.2l17-1.9l9.5,7.5l6,0.2l12-2.7l9.9-8.2h13.7l15.3-5l8.3-8.2l12.7-3.8l8.2-9.9l9.8-7l11-2.8"/>
	<path d="M530.1,432 540.8,428.8 552.6,430.6 558.2,428.4 561.1,423.6 566.2,422.9 570.3,420.7 574.4,421.4 580.7,418.5 586.9,418 592.3,415.9 596.9,415.9 602.4,410.3 605.6,408.9 608,405.5 613.8,403.3 615,399.7 619.3,395.8 619.3,391 622.2,388.8 622.7,384.2 625.6,380.1 626.8,376.7 630.7,374.1 636,373.3 638.9,371.9 640.6,366.1 646.7,350.3 657,335 657,317.7 665.1,301.2 665.1,279 677,265 701.3,258.6 729.7,246 746.7,248.9 778.7,248.9 801,258.6 818,258.6 847,270.2 862.5,287.7 864,288.4"/>
	<path d="M368.8,383.3 368.6,389.3 361.1,398.6 365.4,420.3 370.9,432"/>
</g>
</svg>
