<?xml version="1.0" encoding="utf-8"?>
<svg version="1.1" xmlns="http://www.w3.org/2000/svg" xmlns:xlink="http://www.w3.org/1999/xlink" x="0px" y="0px" viewBox="0 0 50 50" enable-background="new 0 0 50 50" xml:space="preserve">
<path fill="#fff" d="M3.1,31.4h11.3l-1.5,2.7h-3V43H7.1v-8.9h-4V31.4z M33,38.4c0.5,0,0.9,0.4,0.9,0.9s-0.4,0.9-0.9,0.9h-6v2.7h6 c2,0,3.5-1.5,3.5-3.6S35,35.9,33,35.9h-3c-0.5,0-0.9-0.4-0.9-0.9s0.4-0.9,0.9-0.9h5l1.5-2.7H30c-2,0-3.5,1.5-3.5,3.5 c0,2.1,1.5,3.5,3.5,3.5H33z M43.7,38.4c0.5,0,0.9,0.4,0.9,0.9s-0.4,0.9-0.9,0.9h-6v2.7h6c2,0,3.5-1.5,3.5-3.6s-1.5-3.4-3.5-3.4h-3.1 c-0.5,0-0.9-0.4-0.9-0.9s0.4-0.9,0.9-0.9h5l1.5-2.7h-6.6c-2,0-3.5,1.5-3.5,3.5c0,2.1,1.5,3.5,3.5,3.5L43.7,38.4z M21.6,31.4 c2,0,3.4,1.3,3.4,3.2v8.3h-7.3c-2,0-3.5-1.5-3.5-3.5s1.5-3.5,3.5-3.5h4.4v-1.2c0-0.3-0.2-0.5-0.5-0.5h-6.9l1.6-2.8H21.6z M22.2,38.3 h-4.1c-0.6,0-1,0.4-1,1s0.4,1,1,1h4.1V38.3z"/>
</svg>
